<mxfile host="app.diagrams.net" agent="Mozilla/5.0 (X11; Linux x86_64; rv:131.0) Gecko/20100101 Firefox/131.0" version="24.7.17">
  <diagram name="Page-1" id="NJDpJ4TaDh-GzDL5pi-i">
    <mxGraphModel dx="2933" dy="1457" grid="1" gridSize="10" guides="1" tooltips="1" connect="1" arrows="1" fold="1" page="1" pageScale="1" pageWidth="1169" pageHeight="827" math="0" shadow="0">
      <root>
        <mxCell id="0" />
        <mxCell id="1" parent="0" />
        <mxCell id="lhs4AXZ87nFdSQfo4i2J-1" value="&#xa;" style="shape=image;verticalLabelPosition=bottom;labelBackgroundColor=default;verticalAlign=top;aspect=fixed;imageAspect=0;image=data:image/png,iVBORw0KGgoAAAANSUhEUgAABVYAAAMACAIAAABAXKuVAAAAA3NCSVQICAjb4U/gAAAAGXRFWHRTb2Z0d2FyZQBnbm9tZS1zY3JlZW5zaG907wO/PgAAIABJREFUeJzs3XdgE2UbAPDnLrMjHUknXZTSQUsHbdkyZIuCDFkC8jEERGUJKgKlDFFQlCEKSBkCoiCI7L13GR10ULpL957Zue+PQEjbpE3SSxl9fn8ll7t73xu5u/e5dxCdO3cGhBBCCCGEEEIIvemYVVVVLzsPCCGEEEIIIYQQMjryZWcAIYQQQgghhBBCzQFDAAghhBBCCCGEUIuAIQCEEEIIIYQQQqhFwBAAQgghhBBCCCHUImAIACGEEEIIIYQQahGYLzsDCCGEEEIIIYQQ0onQpkONY3cxv72MKwAApqiYU/LILPc6tyhKl8UJPz8/I+cQIYQQQgghhBBCTSI1a1Xi/7mI317jr9ziWP6jX1jVOQ2vhGFnZ2eEvCGEEEIIIYQQQogeIn77gs6rpObO2maQmdpXO73NKXvMFBY0sB4MASCEEELoBYaJtRVHIpJSRlg3wbX1Cgxq19qWLSouqZEDW+DhH+Tn4WgmKyuukhohQQ2YPEd3B1ZFucgYG4gQQggZhczUMb/LagXLvOHZKAZbaN/FLO8mKa3SNg/2BYAQQgi1dITFWws3f259cP7ik63m7A7j75iw9HQ53UVkwqbnwh8X9jApfFpKVVxetfiM/ac/fNPPoji7lJLdW//FGc9vf3g/Z/2sn29VGbNwzgz+eOMSy20fhp8zajIIIYTQMxMmTNA4fe/evbqvpChgjoJppsucCpZ5sf9n9ncWa5sBQwAIIYRaAqZDl/HTJ/QLdOOzpWVPE28d3PzrxWzFy86Vzgie79gly0YW/Tzuh9tNfFvO8Jq8ZV2X6/Nm7U6WP59GifLi70XyMispIIBoUkbNPfqMGTe0R6C7gC0uzYq/febg/pOPSuUApNuAsT2Yl1ZN/flOFQVAOn0wp5/pte+m/nizkgIAwpr7KCqqqEBiWMGcMHXvPXb8sJ6B7ramiqr89Njzuzbtj6I9jIEQQgjpS2NRX1tcQCORTZCY/6ILv8q17rfSRR/uLiiqlgMA35TcO9G+hweX92Xas/kFASJBALc4RuPaMASAEELozUc6D//qm/fJE5vCf06rYvJbt3cofm1Kh0yBX/8PJo4b6GdtIr1qrEQkycc3/AjQxOcCwjxg2toVQ80eHflrXURmDbdVwIAxU7/r5P39/HU3SkgbewFkHU+qVu540sbeBrIuJD1/F0+V3t313V0D0zX1m7Rm1Uirxyf+2fhHWqnc1NGrHaum5nU5wgghhN5QZ86c0Th94MCBeq2n2rGH+teEfEnX1tzjMxze25pHARz92CGgFTupoNYrgupWPTEEgBBCqOUiHV2cyJx/T12JzVQApKc9Vk5m+k9ev2iImxVXUZF5/8iv6/+OqaAYbUcsnfuedytbSy4IC59c27vh13MZEgDSptP/5k4fGOBoJi/POrd+wW93q58XMbUtAkBaBYyYMWVo5zaW8sLEKwe3RpxJFVLK+Yf4tLKx4CoqMu6du17o2v0tfxdLKHl8btvabTcK5LUyb+Xpaxr128LL/X6ebrQdxOw0f/9SfsSEpecBgOE+dNnvU9raMysy7v23bfM/MeUUkG6D5n8+MriNgxVHXnhm9YyNkdyAD2ZMG9rFnSfOiT7x+8Z994qJNsM/GWqfsO2zZcdy5QAAcTGR9zIXbf5q5ofnI395RBIkM2BGxKFpANK7Gz4+TZCM9tO2HZoMIL2/aerqqG5hv43O/XbmtlgZEFb+w6dNHtq5rYAlKrjx68IfL5da1ktOVYeD0XrYrJGOidtmLzmWo9x1j6Juazu+tbe7fkIlGDhACCFEn/qlfW1xgQaoVwEAgOHb80/OdPBzYB+f4UBR0N6RnVkqGx6RV2sRa19ta8MQAEIIoTefPPH6zeI+I7+cK957+HxkesWzMrY86/LWFReKyijbbtMWTfls+L1PdicT/NZ+buVHF4dfLOa4vTNrwWefpkZ/dbSA4T9m9nCrS0tnHsmUW9iblKm/YtayCEW6vL8kfBzr3OalGzLY7T/4bNaqOdWfrrlWqpz/2OJlF8p4wR8t+mS07X/rVu9Ml3mM+nre5+PvRf4cKVHLuyzlyLqfATi9+jbX3qLEmRd//Wl9qanvsFkzl35RMWvZmULS3rezT82JJZ+eLWSYKAplrsOXLPtA/t/PX6zJt+k7a+FXs/M/WZHQsZOLJHLv+dwXIQyq9OaJGyXdQzp6MB8BgCzxQNgvN6ooRU2hqJU/yJP+Cd94rYJS1BTVAIvJNTVlMwCAdBm+ZPkE7sUtKzcllLP4rJJSUkNy4WeLntUnaNWpi5vk3nfnc+R1NkTT8VX/vX5CWP5HCCH06pFz+Opfs8tlg7fkKaMAAJBVJnt3a25mqazWIlwbbWsjjZRLhBBC6NVBVd7dNHfh9mjzvnM37d390/xh7a1JAKDK0mITM3PzsmKOHY+ssXdzZj+bv7owIys7+8nN/UejwdPXkwVACWtEwHN0syaq8tMS0uuXFesvwmjbb7B36anffr8Yl5by8NimnTdZ3d/tLnjW1L6qICMrOzPu1Kl7lWRVZmxCembS5WPX88zc29i97HuzIifq2sPkzLSY01t2XVd06NvVRplnqjIvLSsnOy0lV9im72DvopPb9t1OzU67u//Pa9LAboHmFpY8KC8uqd1XgaKkuIyysOQpVyEszkpPT0/PLKhWAAAlev61Sq1bBkabPoO8y05t3nI2Ji0rIyk6uYj00JCcqk8k0sLKAipLSuv3kaD1+GpLCCMACCGEXgsSOSV8PnaPWEqJZXrcwbAWAEIIoRZBXppw+vcVp3dae/ebMv+TVcu58+b9I+w8ccaHb7d3tmLJJGBKRjHqFr7FlRVihhWXDVCVtH/FOsa0CSt3js+7eWjb1oNRJZo7E3yxiJhvw4f87Pxn76bFuTkl4GFjTUKZ+vzV1dUU15QLAEBVV1ZTHC5Hj/74OD2+3vtFF1aj8wmvfvfRT3f07khQUphfCt58KxJKa00n+TbWLJfR64988Ow7g4ozN6kqrwRLGz4LQKY+q8CKqIippICnY6KkjZ0A8p6q1SXQmJwpAcp+BBSV5VVgYSNg10oXAJgO3Ro8vvUTQgghhF5BDFGxwtxZ9dWexzg+3dHHnqVs/+9lxzo+3XHw1tz8SrnaIkXa1oYhAIQQQi2JrPTxme3/9uj9aYCPfV7IgqFmB776+HByOSN0bsQSy/qzUxQFz7rIF2Ve3h52ZZ9T14++/nLprPz/fXu5UmPIXbWIoqSoBHyc7BlQKgMAjmMrPpQUl9aNHKgSeE6fHvkl97bOnvVHo0tQCmHt+oG6IUxd3GyhuKhenhWlxaXS9EuzP9uXpvYT0+t+zsQh7/VzvH3sebGasO7+bnd+yc17qTII1DFVRWlJGXi3cmBAmayh5FTz50RF5U8cNKCn3Y3TBWq/m3Wfpu34EloSQggh1JLR1Xsf7Til8VK1EMChKQ7K8v/grbkAcHKGo5cd6/BUh+7rs18sUhKnbW0YAkAIIfTmY3oMHB+qSHiUXiQkLNr0GeRDFp5Or4YQIJgcU1MzMxnBZjRcjibs/Lo6iTNyKsmKknIpg8tt/AYqT7lwOmnI+FnTU7eeymC1/2ByN+mtn24UU8Cga7MAKGFprrC08fnqYlk6urWWKcvLlKg4u/arAnM7N2fHYq5L9/FTu0hu/Vg/z/KUK5cy3h/2+ccFu84llijM7PjS5IcpFU8Obz3eddn075fb/33q3tNqroN//9EjO0svr9kfJdZ9q+Uply9lvj/is0+yt59KKCWsLKUpCRqTex6BkT0+tOPiW4tmrQlvdfDMw8wyuYmNm49V1ply0HR8a2pqSL92AbZXbxXUTyg2vQobAyCEUEvVnEV9jSMFamOWe63KZYDqa6ATOyZHMiIiT/naf/DW3MNTHQJasessom1tGAJACCH0xiO4XDO7joPfGedowVbUFGU8Ov3jT3sSyhW7N/vPmbB46xhzhkxYVphyvlj7y2BTl27j5r3jzucqqvOSrm/ZfFmHnuPkmf+uWsGcOWXyyncsFUVJ17aEbb/yanQ4z2g1ePGvg599kT3aMmVRzrMvVEl6fFbgeyt+G8uUlWfHXdu4ZNcVDZsqS/l7+SpixqSPwocIOLLK3Jj930anVMgr7m9ZuDBtzJh3xsx9j8+RlT1NuLPrm/3HYor12mpZyl/Lv2V8Mumj8EGWRE1R4sGV3xzQmNzzBajSGxsWLEn7cFT/D+cN45sSwuKsxFt/nz+ze/OFesdX9vj03zeDJn320d17P96un1B6MjYLQAghRB8D+v+vj1sUxS15JOK3V37lfZmm/mt+pVz9/T8AcItjtI0ICACEn5+ftt8QQgghhBBCCCH0cslMHXO7/6xgmTU6JymtdLzxBbMmV+sMtGYMIYQQQgghhBBCdGLW5NreX0VKKxuejZRW2t5f3UD5HwAYdnZ2tOYNIYQQQgghhBBCdGIKC8zybkp5rWWm9hpn4BbH2t1bya5IbXg92BAAIYQQQgghhBB6PYgEAdWOPcR8PznXBgAYoiJOSZxZ7rUG2v+rwxAAQgghhBBCCCHUImBfAAghhBBCCCGEUIuAIQCEEEIIIYQQQqhFwBAAQgghhBBCCCHUImAIACGEEEIIIYQQahEwBIAQQgghhBBCCLUIGAJACCGEEEIIIYRaBObLzgBCCCGEEEIIIYQawuPxaFkP1gJACCGEEEIIIYRaBAwBIIQQQgghhBBCLQKGABBCCCGEEEIIoRYBQwAIIYQQQgghhFCLgCEAhBBCCCGEEEKoRXiDQgAEg/EGbQ1CCCGEEEIIIUSvN6XQzLDrPmfD6pGujJedEYQQQgghhBBC6NVEYwiAZensYsOmb326I+x6zFs6Urz/p38z5fV/ZVu7OFoQzZ8rvRHmTu279OjZLciVR9T/qs3L2+3ozUCYOPj4OHJfdjZ0ocrqa5TneggTM9PXKPT6au5qgnjVL+mvzX0HIYQQQi2Ono+iJl3m79k+zY+p4Semx6iweb1t6q2wgUXoQlWkHvrum99u5Ms0/MgKnf7j1CBW7ZwwTcy5qpw2Qw4bR9j1W7xpxfguPp7+Xds7MGp9dbToOOOHJe+5aDpY2nb7G+TVO1hGVGtjm2edjDbvL5jWxeoVLq2oDroqq69+nrUgLDtM/X79J50aDOu9JJr/aK/grua2/WDl+i962Kkya4x/ja60XJFe3HcQQgghhF4x2otSpOvYDb+MtausflauVhSeXvXF3sSTv++QZmh4166VSP9FdFc3k1TV1R8/3RqlKRSglhNmyKfbhj/+fOnpMsroOdSAsO6/7Pfp1G/TV1wopZ5NI137DnW7ue6T3+NlAACk2zj1r+zWztFxJZWU1lW+CkjXsT+HWWyduS1e8+430Ms6WBrP/z2PjZtwnY3VG9v17akzxnZz5zEZIMx+dGL7+sPxkuCmrbPJmr4njX3QCfuBi1ZPbM8lFAAgLkuPuXri4H+3skW0J2TiNynsf+ZHwjfdNvafmTB1f3vs+Pd7BrhYkJLyp4+uHd9/4EJKVQOpNsMfjZb/FOnYf85kh8t/pfT4/H8Va3ZGV1FN/dfoTtOlu7lvHwghhBBCAACHDh1KTExcs2ZNRUUFAPB4vIULF/r5+Y0cObLRZRt8m6ooOLm8boku8epN/XJHlem9iF40ZbKRnDC1TG8ejNaDh9o/SeEOe6f15T/Tnj05klYCy6L0/OfPkXW+StIv7k1vvhy+yprzYOl+ar0aSLcRCz52vLB45pK0aoo0dfS0FwkpeBW6x2jintT2z6ULwbG2p66umrQtXgYE19a397iZa35ot3bRzpiGyswGEKUe/fbr0hKhscv/Jn4ffb+4U8ofmxasfVwkZQm8eo37dOX3rqu/3PmoRse0jbTPm/6fUhTd3br6fFk1dTnOilvdrGEtjZfuZr59IIQQQggBAEBWVpaPj8/y5cuXLVtGUdSyZcvc3d2zs7N1WVbP5zumz7Rfp5eFL/gnR0FY+Y+cMe3dAD5DJiu78vOCPyTAcBkavnUwk81hSzMvb1+343aRotYipHXQ6FlTB3jxGNKy2CO/bD6RLATHPrMXjAm0ZgEo0v9ZuvJkLh3PdAybkLGzpvT3NCdkNXmlHFbJrVqZLwBg+k78cctwOcif/L1kQ86Izc83ytJ/5CfT3vW3YcsrU6/s+fWPG7lSANKp//wFH/hasQiSw1LbNIOYhgzvW3Vy8Tbe4vChQYc33H/2qpEAps/4H34fpgB56j9hP+bV/pr17o/vZy377lwppetuB4bH6G8XDbIjGSwovLXjhy3X8xUAQFj4DZ8+ZbA/n1SQDKoi/sD3P5zOVgBoODQGHwhtu4vp2HP63AmhNqSCkqX+s/y707mUpnTrnBLf5b/Eg1Wf5kSJ2nn+Nrr9vIWj21uzKGAQ5Y8u3Cjz7NnJ2ZTFhoKb29duuVGg/QDV2th1F0v0OQok39a6JDE6o5oCAEVN7uO0Zz+8WOehA9KJQ55+ueBQLgUAJt2/2tr79mdHXqyh/uFgaDhqtNCUVqf5f7wXO2PZuUoKgOE+YcNc+dp5+zMV6v9cXdbTlBxSosK405vCRN9s/mz09Vk7kmT6nWbaTz+N+TTKDiddhnz8TsXe2RtPF1AAAJLix+c2ryDCf5nx/oU5+7NDNe9k0HJVVO1zTf9fWmjYCUQDu9HvnbpXjNo5/ykh6PNa95R8K3rOEM2XbrUbnOb7Du2nKEIIIYQQwMqVK1esWOHq6rp8+XKKotzc3AoKClatWqXLsoa+4iFbvffVws6P1sz9Ma5czuBwCAm0BUXOme++2JcmI3j+09Z8/b9H0T/eFqot4vz+ovkd7q/6fHWS0DJ01povJ6R++nuSZRs/4vzSaQez6SulkS7Dvp7tfX35rJWpNWDmPir8B69688ji9yx4XnGU6fNsIuH47lcLu8SvmbM2rpLjOnD+8rCPSudGxItJnpsXdX7p1IPZCs2bpjvCuvvgDmnntuelm5zLX/9e990PLjyvvSpL3LvwmxPFyiwF1flqasljk3rtdnnGkbDpByQK4HpN+jH8o873f7glJBzfW7Sox+O1C6bElMkJ++FrV7lYkJCt0Hho4qWGbCAAaNldzMAxM9zvLJh+OFdGsNgsGaXbKcEMeWkHqz5tiTLq5NnnXS/F2cWTD2YrmA7vhm96v/K7hdMflCtM/aevXzg64M4vUTLNBwhqn5l6kiVePE99OXtmScTBS/GF4herUFsnt1P7KcNDbQ4fK6SA2TbAM+vh70J4tk81HY6dJvWOGi00H3qa1mPwqfscVXrz3L3pkzq67HoiGqzXaaZ1uqZ8JtobY4cTNh06OseduFKgvihVdP3io4+HdLD9q4HQsMY/2nMa/r+00Hwm6LMbk+rmvNafkXQeTssZ0sCl+9mGaLnvGOcURQghhFALV1xcHBYWpowCAEBRUVF4eHhBgaY3ZvU02IcSaTdo6Y4/lHYs7K3WvTHp2nugw+09B+LK5QAgF4tlAACUXCxWAABVGX/+Zmnbdi7qdZAZrd/ub3t736GkagoUZQ9OXJV06OimnIFqytNkrUyGv+dIMNx697G++ffx1BoKgKp++rRIx2aapNvbg5zu7Pk7rkIBlDDzzM4Twr6DAp93tq/MpMZN0x3h8PbAtrEX7lRQVMHVC8nt3+njoE83W3rtdplEogAAEKXcfljZyoVPAunSe4BT5J4/Y8rkapvU4KExWP3dRZUVl9m07+xpzQRKKpFQTTslmuFg1T//dUm0zh6Q5d+NTOUQ8mo5AFWTcCeGcnG1Vh7z+geoqYRxuxd8tfep++jlv/26fPpALw0dkouiL0Xav9XNlgBguAb5lUdFq8oxGg8HWe+oGaLenqTrlDPGqQsAAPKS4kpzSx7ToNOs/nSN+WQbZ4eTPEuzmtJScZ3JktKSGnNLnsFnWf3/ryH0ORN03I0aDzfV4FltwBnS6KVb233HaKcoQgghhFo6mUwmkUiUnyUSiVSq6zuGRvoCOL2ydrvN57OTAlurkqxCrS06FVUV1RxnrvozEmHNt7YMmbnOW5k1gmsqv8UmoMkv/+tlkhnCtyzLKtG/eyZSYGtV/LTg+ZqootxCdrDAjIDKWunV3zSdMdr0729/L+JBNQBQZTcvRE8Z3c/9vz2puuZVj91OWPgNnTyuj7eAKZcQVjbyEwwA0tbOuuhpbr1zQ8uhocWLLMlS9i9b/974yT/+zk44uWvX4aiippwSxj9Ymk4tT10SrY0S1ojYJs+yQAlrRGwumwCgNB0gGojzHhz97cHRCLvQcQvCVtuvmPdHap0ZYk9f+fizvq7H/pJ0CJRGbsxVgJXyF42HQ1HvqBnS75mGPanx0FMAoNdob0Y7dRl8Aa8qvxKadJqpTdeUT9I4O1xRUV5l6mbNAah1oWBb802rcioVYA167mQlebOeCeoXgUZ2Y8ObQtMZ0vilm+Brvu8Y8+qKEEIIoZbLysoqPDzcxcVF2f7fyckpPDw8LCysrKys0WUNbAhAlZZUWNsJGJCrpThKURRRb5GSwssb5u9IUn9IqlfdtOkUJUVlNk4OLMiVaJtFLleQjHqvwxTFhWV8e1smKAvJhMDBVlJUXK/Dqfqbpiu2b/8+zubcOdv+UK6T4HCs2w7w/WtLrI4RG913Ozt48qIB1d8v+vxRhZzhMWnTbAAAqrKi2lLAr7e45kNDE7XdJSuKPrIh+piF94ivlnwp/fKrYzqdEi/pYGmiY6L18qD2GQCAAC0HSNvG6k9ScO/PAw8GfhTsuDe1zjplyWfPisLfDbiR05Fx99enClVNIG2nQZ2jdoSOJuBargbta0RmPDOAiqatp8kIfvcBoZWR4VkySZNOM9V0jflktAkxxg6nih/ez/6wX0+7K6detAUgbN7q0z733h+FFNhq2cmNnnt1/7/GPBNqXQQa3o3ADGog5/ScITpcurXdd4x6dUUIIYRQi7VkyRJl+T8sLAwAVqxY4eTktGTJkgULFjS6rIGlDXnGtauVb038wM+SCQCkiZlJowUtecb1a6Je49/zMCcAAEgTE3ZjixhGkXHpbG6X/00KtWUBABD1X3jJC/KKnXzb8QgApompKhuKzMtncrtM+MCHRwJwnPtNftfs0plorXEEvZkE9X9LfOirCRM/embiR8tPEz36dzDRdQ167HYGkxRXVojkAACUQvlOTZ5646a4x7ghHqYEANPKxcmSeLba5jg0hKmVFYcAkFdmPc4SmluYkjql+5IOlkZ0JqrpAGnbWF1X6eAb7G7FIgCAYNuHdvOB7KwSqt46qdwzBx4FTf9yAHH1cpYCgJKIZWaWFgyNh6P+UTNoa+vSfOjlGYmpjm/18Xx2Wtc/uZ9nteE8NwnBtfUbNHvFVNuzvxx8IqPriGvMp7F2uCLz6NaTFhPDPuvvac0EAKZV276fLJ3EP731aJZC607Wdu4939XNeiboNXOD/xpazhBdLt3a7jvNduNDCCGEUIvi7u6elpamfO1fVlYWFhaWlpbm7u6uy7KGdgcoT//n21+4n372yx4LhVBcE79n6YbcxhZJ++fbzeNmzts82pKQySSlN39d9PuDpneKRNoNXra71/PX2orKKz9+tu3Y6tXktP+tjpjDAWAQ4qwzx2pVLqdyz/5xcfHcrftmSIQFZ35Y8uD5wjkn1q4z/WTWxt1WTIUw68auFbvj6raobYKO/UKyT8x/ovYGXhxz4mzZ9/068iJ1HFVK590uefDXtk5zw7YPJiViGUVIHv8logBkSX9++/uUT7/aOsqcIS/PKTeV35dToOXQ0NSDnopJu1ErZ/e0oOQE1KRd2L4+VQ6UDqfESzpYmtGXqOYDVGdjv/4zUY/R0whTO79BkxcsaGVGyuXS6uyHJ7/97WYVRVXXW6fw4X8X5evanb+cRwGAPP3q6fxvFn+R+una+ocjsf5Ro4XmU67yesQW3y8W7XiXKZEqQFpyf0/tMexeZPXnBvKs96lLicuKWMOW/dFLqqAoaXlmzLV9X229lS0CAIqmI655ezVMpGWHC+P/WLTk6Zhxn/40pZUZQ16TG3f1WNiiCyk1FABo2cna/mjP93n276VDP+7RTGeCtvuC5t2oJecNLaJPDgmeTpduRY7m+06zXF0RQggh1NKMHDlS/WtZWZku7/+VCD8/PyNkCb2iSJJUKF85s+z7LVze4coXP9yoftmZQs2LMPf738oZsGXBzsdGrjaBEEIIIYQQogePx6NlPYbWAkCvI0LQ4/Ow8QEWLIJSSMtSLm357SaW/1sShufYbxf0sWEIk45s2Ijlf4QQQgghhFocrAWAEEIIIYQQQgi90uiqBUBPl04IIYQQQgghhBB6xWEIACGEEEIIIYQQahEwBIAQQgghhBBCCLUIGAJACCGEEEIIIYRaBAwBIIQQQgghhBBCLQKGABBCCCGEEEIIoRaBSdfQAgghhBBCCCGEEHqVYS0AhBBCCCGEEEKoRcAQAEIIIYQQQggh1CJgCAAhhBBCCCGEEGoRMASAEEIIIYQQQgi1CBgCQAghhBBCCCGEWgQMASCEEEIIIYQQQi0ChgAQQgghhBBC6DUjahWQN2StyCnoZWcEvWaYLzsDCCGkmZeXV4cOHR48ePDkyZOXnRf0JuvUqZO7u/vff/9tvCQsLS3feecdBoNhwLJyufzUqVPl5eW0Z0Nqais3tVefgVGTz6opNHY2tOnQoUNQUFMfZKOioh4+fEhLfhBCyGCdBwxv7d9NlzlZogJWTZH6FF2uYzWunVllmczKAgXbjFmZL7VsJbN0Nsm8a3iOUUvSeAiAa27i3duXJLTWF1DIFQmXH0lqxLRm7JVjxjbr7tGDQej9AKdQyG+kXa8SVxkjV6h5uLi4ZGVlGfZrA/h8fv/+/ZnMun/DgoKCc+fOGbBC3SlL11FRUY8fPzZqQgbz8vJau3btuXPnfvjhhwULFiQnJ7/sHKGXicfjBQcHOzjVzuK/AAAgAElEQVQ4UBSVn59///79qiraLqoBAQG9e/c2aghgyJAhXbp0iY2NVX61srICgLKyMl2++vv7MxiMffv20Z6NAgtnIcOClD27fSuYHBM2y5oUGjsb2gQFBfXu3SsjPc3gNbi1dgcAvUIAchMroWsnk8xIhrDU4HQb4MRwcWQ6qU/JkT3NkT+lPSE7O7v+/fvrPv/58+fz8/Obnm5TAjdNjNdYmHPe6dmaQZIAIFcoTl1Jq6iWGLw2aEKozhgBMlNT08DAQAcHB1NT05qamry8vOjo6JqaGhqT0JFAIPD29m7VqhUA5OTkJCYmlpSUNHGdTdnVJ0+erKiooDEtmUx24sQJGu8pSq39u4HAvawoWzWlUMYAAFumXH22cjnJAwtneBECUP6hGv5rUExOWegERmWh5aMjQClkpoKKwJEyM5s+HdrxO49qNG8nvnlP381pwFtvvTV8+HCCIPRdkKKof//99/r16zRmRiMHB4fAwEAbG5uioqLo6Oi8vDxjp/jqazwE0K6Pf+sObXIfZ2v81dHbyczKvG0X7+NrDomr6Y8CqF/fleQKxZnr6WUVzR1x6Nm2d1/HAeV5FZYOFkVE/pOiRl5Letp42lD25XkVlk4WDJJxMv5E8+QTXt7FzhhehW3x9fX99ttvJ06cqDEVMzOzDRs2LF26NC4uTt81Dx48WP1xXMnf3799+/bOzs47d+40PNMNUpauL168+MMPPyxcuPDVjAKEhoaePn16y5Ytcrm8U6dOb2oIQGLtKhW0oRhsUlTOyU9kiIz4ilXFwsLCw8ODx+NJpdKMjIycnJxmSNRg1tbW06ZN69u3b0xMjDLWFhoaumjRonPnzkVERKgKqK84Fot1//591Z960MABAHD6zFldvk6ePJnNZhsjG/ZDP68izHKTYpRfHb0CzKnq/KNbjZ2NV0q1e/cqr/4KBtsi/rgx1s8gGFwwUX7mEqbt2YGH5ftpT8XR0XHDhg3379/X8R9hZWW1adOmOXPm5ObmNjHpoKCgoKCgqKgoAxYEPeM1dQx5u82Ut+0VhfkAQNo6Mkjiz+OJBq8N6sXIdEdvgMzd3X3KlCldu3bNzMxMTEwsLy93cnIaMmSIq6vrzZs3d+zYkZ6eTktCjWrbtu3EiRMDAwPlcrny1LK0tGQymdHR0Xv27GnKfbk5d3XDafn7+9vZ2fXp02fBggWVlZX65qdhZUXZB0+dUX019+4MAFWP76jPo7zwnjv64pFv8uTJja6ZkIltrq4XCzxKun4MBFnSbQYv7hi7OPV6aVZkciuCAB8nfm9/VwBoxTdbuu8GAFiZcd4JcXewMuPzuHRtoNKIESNMTU1iY6L1XdA/IHDEiBFGDQGYm5vPnz8/JCQkMjKysLDQ3d191qxZ9+/f/+mnn16LcpDxNB4CYLIYTx9lRB66pfHXjiO7AoBMIhv6zejj3/8jrBTSm78hb7fpGtQqJulFvURLHmf7qoHfb7t771GzhnBYDFZpdnnagwz3YLd4VvzR2CMNzz/Uf5i/lKucn8liNU8mlZr5YqftVTYAyGSys2fPlpYa/mrlJV64VVgslkAgmDJlysaNG+v/OnnyZBsbG8OejOs8jqtWmJKS0qtXLzabvXXrVgMzrUYVR4t9UkRwHP39/QMCAs6dO7d582aKoqZNmxYVFRUbG0uJc/09beQKxamr6RVVL79ST1VVlZOTEwBYWFg8fUr/GzMlFov1wQcfyGSygwcPGikJbaQWjuUhE+RME05hIkMqFNu1q/Afwc2Osow9TMiMtf/ZbPbgwYN9fX2TkpLKysosLS07d+4sEokOHz5cUFBgpESbwt3dfe3atdeuXRs3bpz6lcTa2nrixInbtm376quv0tL0e2nM4XAcHByKi4vr3/4tLCy4XG6dXcFms+3s7PLz86VSqcEbgnRUVlaelp6p7Vdzc1MAqKrS+iLU0oqvX3oEUePSiZd4prp1V4uEk0Ap9FtcB5my9ExZuvJzf+67ydLHmTLDqzloM3DgwNu3b//000+6L/LFF18MHDhw165dTU89KirKgJi1LuWchrFYDEVhviQ+BgDYvgFsdlMbtypvyteuXW3r4QEAySkpyckpbdq4u7durW2RtPT01NQ0GgNkw4cP//zzz+/cufPxxx/Xubi5u7tPnz49IiJi06ZNR4408hTadCNHjpwwYcLOnTu//fbbnTt3fv/99wRBhIWFTZkyZcCAAWvXrt27d+/hw4cNW7nG5x9dGLCrlWk9vH0iqJ1dnZ+iEgokEgkASCSS9evXf/HFF69LWBkIggINb90pCjwcrfoHuTEJ4vKjp3FZRSs+7M4gyU5eDr38XO4m5Ry88XjZWJ2aJ+iOwWBER0clxuv9JkxBUT4+vvRmRh2Px/vtt99u3rw5atQo5YEGADab/fHHH2/ZsmXmzJktOQpAT18AD49FAsDQpWOOrT5YU1ZNyzqVWCzGvbj8XYcfqU8Mame35JMuVyKztuyPlsrov2G/7hq+sCpvujRe7DS+ylby9/dnsVh79+41eOXNvC0aRUdH3759e/jw4SdPnqwT83Z3dx8+fPi9e/fobXpaVlY2d+7c9evXA0DTowBD3m7zdluT8qwsMU9m4R+i3Gm+vr4EQQwYMEBZCNy5c2dF7JEQbpGliwuDdG/iixRaFBUVdevWDQAEAkHT6xxqM3jw4E8++QQArl+/3vS3YRpJbDwAgF2Uoj5RbNO2pPNUq9h/TbIigaKUEykWt9x/RFHPOTZXNxgjCsBms6dNm5adnb1u3Tqx+Nn6CYIICgqaOnXq/v3767xZcnNzA4CMjAzac6Ija2vrNWvWREREnD59us5PpaWlGzdufPLkyZo1a6ZPn67jf5/BYEydOnXkyJEKhYLL5e7Zs2fHjh3Kn0iSnDp16ogRI0xNTTMzM7/++mvl+TB06NCZM2cqlz127Ngvv/xC6yaiutQLkxSTU+3RS72Kvqpigrba9fqWKiU2ngSTaf74THXrrmKbtpzCpAZmPnDgwOjRo/Vavzonhosnq93e6t8bns2wVCiKkslkei0ik8mo5xcferV1tSoormlinfyXqK2HR2hIsPJzcnKKl6dnaEhwcXFR/TkFAhsWi5WaSltMZ+TIkZ9++unGjRs1lvDT0tIWLVo0bNiw2bNnkyRpcPFbFx988MGoUaNmzJhRUFDQvXv3zMxMZac8WVlZHTt2PH78+J07dzZv3kyS5D///GO8bNAoqJ3dxLdslHVGlEjbFz2hKKsVbNq0ae7cucXFxXQlWihjKN/8K4lYPHheF0ClimPmasLpMHCAaoq5uWkDgU4liskt7jmHUVnIv7WtpOt0/s2tFQEjK/2GeGRc7hjU+nJsZmJ2ier/Pfu9Dnll1VtOR5UZob62kpeXd16e3g9RXl7exsiMyrx5827evPnrr7+qT5RIJJs3bwaA+fPnr1ixwqgZeJXR1h3gw2ORTDbzvUUjj606SHtdgDqiEgqmh51dMrPLxiVvX7unuQorLa3C3mA0XuwaKKVPnjyZZfwaEEa6cKvbsGHD7t27582b99lnn6k/M82dO5cgCHpLBcpgSllZ2bx58z744AMnJ6fsbM3NcHTEYjFK0zPlBblJ6UwOxKpXnzt+/LgqUXF6SUeOrFROsdkOTUmOLsXFxTY2NgCgbLtljCRYLNbEiRPj4+N9fX1DQkJUe4NeIjsfqB0CUJb/BXd3smuXNwipyOrBn6XB4yv8h1s+/Iv2nAwePDg7O/u///5Tn0hR1MOHD8vLy8eNG1cnCuDh4QEvNQQwbdq069evq8r/clOB0NFPwbHg5sezi1MB4NSpU56enlOmTNHx5SebzTY3N58xY0Z6enq3bt1Wr1598eJF5SY7OjqWlZUNGTLE0tJy/fr1s2fPXrRokYeHx7x589atW3fixAkej+fv72/wtkhNbSo5NvZDP1d+zeDzAcB+qLcuX0usnXli2v4CfD5/0PNnzQw+P0/IUz2P1nkSVb4IVc3M5/ONF4zTSNQqoKL9+xTJ4CWcqvOTeu16M4LnxW53WP6nAUnUuHbmZtwjKIXJ04dCt84NhwAcHAy/NpJA9uYOuCO+VqFopLGPYamcPXt2y5Ytp06d0rHzVC8vrz59+ijDW7Qb0scj1M9hZvi5yjf3GSwnJ1ehUPD5AhrX2bZt21mzZq1fv/7o0aMNzHbkyBGFQjFnzpzo6OiUlJQG5jSYt7f3Rx99VF1dvWPHjszMTD6fn5mZOWPGDABgMBiff/75hAkT3NzcysvLJ02aFBsb+2o2J9TXvn372Gz2Tz/9NGfOnFe/LgAhFdo+2EuUZFIUAEEyqwutb20Dgcs7k+eIWWYf9mqnPjOfx+XzuL4udJ6u6vLz8+3t7a2s9F4/STJo6ZFEIwcHh+Dg4DFjxmj8dfv27QcOHLC3tzdeBl5xTQ0ByKRyJ1/XDkM6AoBMImOwmL59A+4fudPogk1UUiZasPbK+33b2vJNNM4Q4GXb9FZhb7bX62LXMGNvS3Z29sGDB8ePHz9w4EBVgWTAgAEdOnTYv39/amoqjWndu3ePz+ePGTOGyWTW1NT07t1b9VNTugmMLSZjiwgounfv3j0tsxCxNmRQ3VpyL01xcbFAIAAAgUBgpMjOkCFD7Ozsli1btnbt2tDQUCOFAOoQ23iWdJ4iuLuDXaj5Sd0y9nDBoOW8+BOkmM62LTwez9fXd926dRp/TU1N/fvvv+tHAV4iHo/Xt2/fcePGKb9K+K1Lu0wzefoA5LLi7p/x70Zw8uIAYM+ePfv379+2bZsu1fmEQqEqWHDr1i2pVOrl5aXc3uzs7EOHDgFAaWnpoUOH5s6dy2QyBw8enJWVpTwxKioqbty4YfDmSLl2Qiavinj2NjtPyAMAc0Ksy1chy5KrvUfeN1iNa0eTzEihS8f6IQBV7XomMD8wnXBFeD5bpnefrBSTI3QKsrn6MwCYPo0s6jnfknnASM1wgtidCIJ4KIk0xsoBIDc3d/PmzStWrJgyZYpQ2MhrGC6XGxYW9ssvvxij6pOjrXnPYMfi9Jw+XVz+u0BbAZVtauEc0pcgGQBAKeRZ985LhcZq/Zf8vFyt/JCallbnZUZmZlZkVjmQjIzMLJGYthNm6tSpt27darj8r3T06NFOnTpNnTr1m2++oSt1ddOmTdu6deuJEydMTU39/PxWrVp16NAhZfX7yMjIwMDAn376KS4urrq6+t133500aZKRskGvqARlCy+1vqUeF0UlFLQPkQYHB48fPx4AJBIJm80eOnToH3/8QUuitky5est/bX0BlAirE573ugIAjq1qVXHSZsqMOTuXTJHbe5HiKpmFIzMvcfTslYeXja8z2/qffpw7f4H6lKtXr9LbP1lubm5ubu5LaQ3UgKCgoMjISLGWf6hYLI6MjAwKCjpz5ozGGd54TQ0BJFyMJUmCY/asYwlReQ3JaKYnFYWC+vec1mj3/0a0b3qrsDeSVErnxU7BNpNzrRgiraVuOddKwTYjJXQ2D1Ghd1satnv37n79+s2cOfP69etVVVWmpqYzZ84sKSnZs2cP7Wm9rG4CXykVFRU8Hg8AzM3NjdHRA5vNHj9+/J07d+Li4mJiYoKDg0mSVCiM27BIYutZ0qmh8j8AkFIhpyBBbOdtkqUtWGOItm3bPnnyRNu9EABSU1P/+uuvcePG/fXXX/q2rjeG4ODg6OhoVft/VmmG3dmVyuIZxTatcemoDAGUlpbGxsYGBwdfvXpVl9VyudyePXv6+PjY2dkxGAyNbUoLCwuZTKaVlZWTk1NmptZ26foipGJVx3vKB0EdvxIejpqafBqopKRE1cOf/VBvc0Ks3h2g+pNone4AdXwqpYuCwxPbetufCivsv1hi7cYu1VAbhSCIQdz3cxRZMdL7BiQhdOoAQIjtfcX2zxqj1jgHm6Vr7vmoKcxJi87st44JDyjAiFeYs2fPdu7cedasWdoifSqfffZZSkoK7ePOtHW1Gtq3bY8ODsmnLrAcnIDGsxbApeNATtCwtIIKAHC3s3AlGSlXjFX/PDk5JTn5RfAiKelJUlKtK7ZE4FHcYzYQjMhbWzgF9IxZa2lp2aVLl48++kjH+bdu3bp7924LCwu9+sbXha2trZeXl7JUX1NTIxaLk5KS1LvL6dWrl0gkqq6uBoCzZ89+/PHHxqusR6OohILnUYBa0nKOkSRpbm6u/FpcXGzY6K3Nr4SyeOj5qVVVMifydBbLrcyz7/tmr0QtzmamreNwBwcH1WnJZDIHDhx45swZ9QZThYWFytqmLZOuheRW7VycfJ21/ZoZnZ6TkAXPewc0Bp82/GBf+8bne87f0wYAPnyvnVyhuBqZnVtIZ38PbW083/F9t9F5wCgti5vq2LGmXuxUf7bY2NgbYgeZuV0DIQCZuV21e/funDx/f3/aR81p+rboTiQSbdmyZdmyZcp+AZW9AK5atcoYXYk0TzeBrzgfHx9lC4js7Gxvb28D+g1u2Pvvv29ra7t8+XIAiImJ6d69u7u7u5EqVSpJbD2LO03h39nBbmw8EUZVsdxUz17NGmNhYdFox5xpaWl//fXX2LFjX4UogKOjo3o3kARFgUwstWwlN7WRmVgD48XNKysry9HRUZd1Ojk5bdy48e7du9euXcvNzQ0JCdE4G4/Hk8vl5eXlVVVVfD7NBwLpqMY1hFWSwRCVc/LihS4dNYYA3mK/zSQY14QXDU2iC7skWcF6VpeQXZwsdO1sjBBAL06/ZHnCUzlt4SRtfv7554iIiN69e1++fFnbPG+99Vbnzp2nTJlCe+oFxTUhvvbF6TksByd7f+9LB+gMMTCYrLSCiksxmQAAAa4uTCMOTqHq/0/Z1V+dXyW2XsWdJrNLUgDIko6T+JG7OQU0VDgNDAxMSUnRfYDhrKys1NTUgIAA2ntTDwgIiIqKUvV+6uLiUicSmpmZ6eLiEhMTAwBSqTQ6OjowMPDChQv0ZqPZlJeXq786ove9dLmcdPQKUH2t4pgBgPoUABCZCFy5evcFoCRnsIstjdid3mtBW8fhYrFYWcJnMpnLli2zsLDo0qXL8uXLVVEAW1vbl/6o8xLpGgJw8nV29HHJTcxy9HEBgPoflCEA4/lkXJAft5IS697LQBEABAQxmB6+0QmFuYWNzq+r8vwKa4ZlKNGlkfkKoDS/Ocb30lfTL3ZDhgxp27bto0exXC6HkrHuFcpZZewq7wH157xbypZScorB4nI5YrGofXuah5U26oW7vgsXLgwZMmT48OEJCQkjRoyIiYmh5S2K1LKV2KG96iu7WGsplN5uAuuLKSIlOXIpT0T7mnWkii6ZmZkNGjRIuaURERHh4eGnT5+uqamhK4rEZrPHjRt379495UNMdHQ0AISEhBgvBKB8auTf2cFprPwPABTblKB7iHKxWKysVdEw9SgAvRnQV50RhmVWzqWhk5gVOazSTIKSU2o3r9u3b+vYEdrgwYOLiorWrFkDABwOh1QbbpbD4TAYDLlcDgC9e/eOi4uTSqVxcXEzZ85UtYE3MzNTvvhCzUDk3JGQS6u8B1AMdo1LqEXsYaJ2d/1+rAA3VpsD1XsoMKRPO7mpQGLrYXd2JbPq2YtBuZkgf2C4zMyGWU3n+0xXprsnyydWGvUW523llEx5mmqMAHpVVVWFh4d/99138fHxGsf4EAgECxYsCA8PN0bVqopqySfh597u4kpR1OUD515WZ0zqrwQNGEMeAJT9/wFA/a7+pAL34k6T+XciJLaeFJC8xFPFnacJbjfSxaMu7O3t9W1Rn5SU1JT+KbRxcHCwtrZW1q8EgICAAC6Xq/oKAE5OTgKBwMrKSvnV2traGNl4A7BEBTywMKde3DVcTTgAUCKsdR9x5XLasKrlBiWxcnz3OlPW//Rj/dk0TnxjaOuSzM7O7vfffzcxMVm4cGFqaurOnTvHjx8fHh4eHh4uk8k4HE5oaOi2bdteSp5fBa9HVXkmg/RubS05fZGS6TkmE5sjcW2blEHnw3RJdmlJNs1P568XFosVHf2grKSksCCfMLG9XGkNDGtoH1B/znMAUAk8SlFYkG9mwomOlhrQWUgDJNZuEht3AGAXpbJLM6VSqbF7H9ywYUNERMTixYspilq/fj1d3SmrXkMBAEVq3gRlqweJRBIZGTl27NjMzMxTp+q2j9VX/QEdCwoKzp8/38TVGkwVyhUKhV988YUyOnv16tWsrKwePXqYm5vTNfbyiBEjbGxslFUAAODx48fV1dXBwcEHDhxo6jZoIhW0qXZ/i38nglOkwyjKBCm29TZNpfnFTlZWVufOnQmCaPSkVUUB8vLyXmJfgNnZ2cphw5XK/YZxsqMsEk4AQAXbTMp3U/109+5dHdeZmZk5atSoYcOGyWSyPn36qJfnWSzW2rVrHzx44Ofn16lTp/nz5wPA8ePH33vvvY0bN54+fdrJySkoKGjChAnKMIEBKBZH9fKnzrughr9SLA7IaCtNvRbdAcp49hJrV7MnlxQsE2ZVvsjeW2znw82PV83gxHDpazI4VvwggN1BOSVXlp0t1+NVhMLEwjL6H1X5HwAY1cWW0f8oODygNQQAQN0T01+zQJuEhIT//vvv66+/XrBgQZ2WTSRJzp49e8uWLVFRUUZKvaJa8t8FrVc5vnv7krRH2n6ly5AhQ/r375eRngYAbq3dDbtlaOz/HwBAJhHc3MIuzZDYegEB7KIUwc3fSDrGkjQxMdG3J6PS0lITE839YTWRsudU5WcOh6P+VfkrRVGqKXSNhvjmYdUUOUPRuaMviqbKq6t6s3/lRLlakyvQp9XV0n03AMDKjDM4pI2dpanAglun2T9o6QtAn+1onMH1NGmv4KmuoKDg3r17K1eujIuLUwYI9u3bp4oCTJ48+eHDh6/mcMjN4+WEAKZOnTpt2jT1KSdPnly5cqW2+b3crVnCCpG+5X8Apq39w8fFCoXmR159s2EkLyUbXQjCh4Rd8iaVYAmC5OY9Etn5AEN7wVsh4+Y+Iqxp7iGCYpmUhn4k4zlw8uMBoKxjL2Zl3oEjf4f4t2t02aZIS0s7e/asQqFgsVh1Bgg0GKs8h1X+X+1pGhrUnDhxgslkmpuby2SyuLg4WoLudTod0L27ASOdtNpCuWlpacpwAC1jL5uYmIwdO7a8vLx9+/bt2z+rf1FdXR0UFMRkMpXvk0PsHe/n09aSR2znw82JkQraSAVtVBPZxSl1RgpUqnHtRIgrWeVP6/+kTt9DkJ2dLRaLAwMDNT79u7m5KYcAVMnKyvLx8Wk0BNC6devWtUfMzsvLS0ykoVpsdHT0119/bW1trWy/wBCWiB18hZV5Uksnkb0vQ1rrLcrQoUPT09OVdToacPbsWRaL5efnV1BQsHr1al9f38LCQgCIiYlJS0vLzc0dOHBgdnb2zJkzlf9uqVQ6a9asIUOGuLm55eTkbDq+y+DyP0tUYMJRqF4H1XkX1PBXE2k5S/uIAG/kjazGOZRdnGYZ+2zMMwXXQujaUT0EwCAYD8R3AEA1LgCD0K8VGKs4jVVctwqoWcoVwzLcAFXPhc1m9+7dP//885gxY/bv368+feTIkf/++68lq+jD92rdKM/dzCgs0anWcVN49f3Qs++HKVf+STyzy6gJsVisjPS0SxcvAMDbffrSW0BllT8boIciSEIhAwB2KT3tO6qrq+3t9WjuCgDW1taNPocY8MfMy8vLz89X1TR89913fX191Ssefvnll3FxcSdOPOtRbvny5Xl5eXrlHKlLrlf9UPcgHZMkuvs6d/NxvJmYe+B64rJx3ZqeH33PGallq8uVfAAA7wGcvEes8hz1yq0NT7lcCQDAsWzFKtc8vltTkCRJkqSq/K+kjAKsWbPGxsZmzpw5tCf6GjEwBJBWmPeYLAaAjNwcN7IYSCjtZm6SpetrioiICABQnWFpaWk//PBDA/O397RRFBtSlZ+0tYu+p3VBfbNhJC8lG3YEZdnkrnpaOdhTVJ48rZEXpwwrhmMrnVrq6q409CNSVGF7+3dl1VCKIMs7jM3zH3PrlnEbyZuZmQUGBkZEREyfPt3c3JyWjgB0bAhQWlq6a9cu5We6mjzUKXLr3t3AK/LfMcyIESP4fP6RI0fUX2tkZGR07NixTZs2yU+eLAjtPIhnFmHN35cY1/TkOEUp8Pgs1K7rAVqqe4htvSr8hwmubGh0tQYcgn///XfKlCkVFRX1x7BgsVhcLld9SkFBQUFBQaMhAGV3+qooQHV1tY5jkjWqvLz80qVLEydO3LhxIwBYxByqad1NaunEKXxsnnxJbOupPvOHH3545syZRkMAFEUdP35cNfSD6k2Iqh5BfHx8nUXEYrFy1OvSbublg8wdKthcne906lg1Rfyaovznr4PqvAtq+Cu/wf+7vmeCkboDpPeaQEoqLR69GBfd/PE5oVOQ+gzKcjXF5FR79DLJjGQY1HDGieHiyKy1UTmypznyRqJvhpGbWAldOxmcVb0oFIrvv/9+y5Yt9+/fT0p6Nsyhp6enUCg0JQrCpoUostIAgGBzmO4euw7HGan8r/7O36vvh07B/fYfv/B+954KmSTpgiEjOL5EEr47UHL10r6cZ8vJrXu5aIqsrKyBAwfqtYi3t3ejLfAN+GPGxMTMnj2bxWIpuwPIysoaNGiQ+gyurq6qoZFYLFZgYOCmTZv0ynnLYW5uOkitkX+dqlXJKSmmpmbK4WY7d37Rvjg2NrbR25nSZ+8GF5TX/HYquqyatpEpDDhn6jzeGDyFRiRJLlmyJDMzs/5bJWW1oHbt2hmjM6/XiIEhAIk9K8a1AgA4JOsxFIqdOeBqDqDHrlSdYSKRaPHixSJRQ82PfdsKFMWG1Edl2NpHJTbUUbBe2VCxtLewcrBseJ7CsqIaSRVFUGVEiaKxSmKGZaMpmATR9BrzLDartZsLDbnRk8TaTcZzUJX/AYCgFJYP/yrsv1Ri7UpXSF6j//3vf05OTrJ/KecAACAASURBVGFhYQCg7BeQltXq0hCgeeje3YCRTlp/f3/1Nof1f21itTETE5PRo0fHxsbWGUk+ICAgNTU1LTl5Zdee7VIfpT66O+7toZUeXkdTGhonXBecgkQdO4uSCDxKOk0W3NnBqtSpAoK+hyA/P//PP//88MMPDxw4UKfXg+TkZINrtaiiAHK5PD4+3uD35PUdOHBg9+7dT548OXXqFCkTmydfUv1k8vQBXanoorSbeXlXc6ubVYaV/42t+e8gxs5Gu4wMN0Yb4DyvmSKBrCdJ9R8CRK0CKtq/T5GM+qMG6oJBMFSVCLiEaXt24GH5/oYXMVi1e/cqr/4KBtsivjkGH83NzT116lT37t1VIQCZTBZ9/8pvy/pK7l5RFBUAh2vSo++uw3G7/qUh0Fmf+jt/r74fOocOiDgXky/mFpyLm9a/P8lkG7suAI3Etl4lnSYLbm5RTZHx7MW27SweHmxgKX3FxcW1bt3a0dFRx5EanZycnJ2dExISGp1T3z9mYWFhUlLSgAEDTpw4YWJiwmKxvLy8Ro8erWxoKZVKPT09WSyWiYmJUCjs379/fHz8qz8cwCsrJCQkJCRE/cHG39+fzWbrGAIQWHAFFtx2Li+6raWlLwC9zhlWeU6IWxoAqPJcv3KrtikBAQEAEEN3FQBl+T8rK0tbnVb1FgE69iX05jG8IQDnqRgAuFlSABA7cwxYg/IMy83NbbQ/xvaeNvJbeg/5Q7BYIrbZk/RGIu66Z0OF72QtdxY90dKtl0KhuJl2I7/yebWoMiB1GNLZgGw0RZkC4LUdZ1pi487Ji6vTNRRBKTj58VJBG+OFANq0aTNy5EgAOHPmjLOz87Bhw06ePNn05gDaGgLUqR2gwskzVltKfbsboP2krSlLZlRRnby1B0GqYqqKm7TDR40aZW1tvWrVqjrTHz16lJaYuKlXH+vISyVpjwEg//KxmQM+qHZtfSEzvSkp6kgi8CjuMk1wdye7UI+gg76HICMjQxkF+Pvvv+vXBTCYMgqgGiaKFtbW1itWrCBJ8quvvvL09NyzZ0+dEQ08PT29vb3Lysp07wvAMKryv9WtV/eNQTPfQZozG2Ykz4vVLl2msdVMR5PMSKFLR8NCAOpV9Ptz302WPs6UGWfvEUSNSyde4pnq1l0tEk4CHU3HGyWR1ApX5edm/Rrej/U4SlZUAGyOSY++f1zMNl75X/XO38rFx8TabvvZmAIJBwCKpOyI83HT+vVU0Ne9hfFkP81+Vv6/vV01JoWM51DSear54zMMCZ0XhOrq6suXL0+ePHn16tW6zD958uTLly/X1OhUg0PfP+avv/7arVu3wYMHOzk5kSR5+PBha2tr1a+HDx8ODQ0NDg7OycmxsrLavn27LutsmaqqatQb+depWgUAPXr0rNP+Ua9qnsbrC0Cvc0Y5vI6OYQtaFmzY4MGDBQLBihUrGphn3759GzZsGDRokKpiYEujawggO/5Z1bjcxCwAAPJZ4V9JGQ4wgPIMa5iZCUtgQtXU6H2pJW3sY5NLZPLG77W6ZKOO+Pz4o7FHPG292tp6Jhc+eVL7qd3ZnPdt994d7VsBQGR+zq/R97OrGu9914BsGIxHQABBkkDb+7oGlJWXV5RXWljyrF674bUIQmTvJ7NsxSzP4ebHjRkzhiCIr7/++ubNm97e3lu2bBk9evTq775Tnwf06SBQWeSu89JbPRhs1FpS9RnQ3QC9J22AOyiEGQmpxdpm8Pe0sTEz/KnL3Nx81KhRcXFxkZGRdX6yMzH5qVNXxaX/KgufvYGhFIrqtMT+fl2aIQRgWPlfSd9DYNQoAF2sra3Xr1/v7u6elpa2dOnSUaNG7du3Ly4uLiUlZcuWLQAwePDgL7744tKlS9XV1SNGjDAzM6MxdXU0lv/V++GrUx204a869sOn45lg7O4AabkmZMkysmQZAMAE5kjT8VeE5+uPqKfg8MS23vanwgr7L5ZYu2kcNVBHTgwXT1a7vdUa+nXfvXv3hg0bHjyoVeskODh4zpw5kyZN0nH9EhtPgsk0f3ymunVXiU3b+n9zWlJpAEkSi2d2cbNiCO9lAADTxS1XxBKJ5ZY8TnklbfWHlZTl/+0X4gvF3PZpKR7uHtsvxBdKXrwoKpSwtl+In9a3n1CSaVLx0jocbVRuTs6DvJqSHrNZxRkix/Yix/YAIDOzkdh5myeeNn9i4FCUDYiIiNixY0fPnj0bLaH16tWra9euepUV9fpjqvrfoZgcoUuIgv280ZxMZPr0ASl+djFUsEyFLiEUqy14twUAUlrDzbpPSnUauqvO80+dqu8DBw7UNmC7v7///ft6vxR8BVlaWjo7O196UlDEcaxQG2j8YCbDRpzr5+f39OnTRsc/YpBkJy+HXn4ud5NyDtxIXDaWhr4AVJqzVEKvkydPBgcHz5gxo4HarJMnT66oqFA1aWmBdA0B5CRkqQ/7V9rNXOTSTNWV7QUmcoOqGDFs7WNi6BsMUJN2Dr5D/YcdjT2iHgJwNudt7/uO8P6V7NN/AoBvuw4RfQdNu3D6qQ5RgGbjSxAKoEaQ5MmTJ3UcUttglFwhlcsoHWIxOmIXpZV17EXVHiOKIkixY3vTO/RdsAiypPMUmbk9pzCpxqVjjVvnHTt31dTU3Lx5EwAeP3586NChg/8cKuk8VX0e/t2dur/hURW5a23d876LNNUOMC5jdDegFx9367M3Mv44Ei8Sa66XNfF9Xzu+qcHrd3Z2Pnr06NmzZ+tMb2NpvTC0s5VUnFf2IvrA9+8U09pv1Y3LBieno6aU/w1jpCgAXdTL/3Pnzi0tLV23bt3WrVsDAwOVNVFJkpw5c+aBAweUd3eBQKA6b+n1Wrz/f4MRBDHI5P08RU6MVMMTf41rCKskgyEq5+TFC106GhwCIIHszR1wR3ytQqHhafvHH39cuXLlypUrVaWOgICAsLCwht8v1ctqZ27GPYJSmDx9WOPauf4/nZZUGuDmaJGRW+FoZ+bs7iFNSiBZbJ45Oy273Ejl/4jzjwolnGHulIe7h/JzndkKxazt5+Nnd7Vo1iC3ngiSAXIZRSkIhURVrDXJjbGK+ltVBqZXfn7+ihUrwsLCpFLprVtaR5Ho1q3bl19+uXz5cmN3Zk4xOQV9FrLLsxmVBaRcSpEMGb9NofcA24trSVGFgm1a0PcrTkkmsyKXUMgokikWeFR59be98D2hQxTg6NGjJEkqn3/Uq76TJDl//vx27dppq94VFRV17NgxAzYnqJ1dUDu7BmaISiiISqB5l2rrCyA5JaVLl64sFmvDnYKqdh3AqoNqniSAnITcOZ07BQUFNTqYxefvdigor9lyOorGvgDeAAqFYtWqVUuWLNEWBZg8eXKbNm2WL1/eYlsBgMENATT2/GeSJQEjlCXtbcwVmvrNbhRpYxeVGE17fho1KyhUeO9ycdRN5dfihzcEAJ8Ehiw2fllCR5YE4UfAPDm1kiTNCgsO5OfrtbhUKvXx8Y2L0bVJNs/c0hUAAHx8fDMz9Ri0SRt2aQazMq+8w1jLh3+pdwdI1pSw6GsFILL3lZvb215aS8ilFINV9PaXGSBQ7/Nm8+bNQnu/OvOI7H25OlfUVy9yq1P2DdP8DQFeLrdWFgIrk/d6uQ/v53k3NvdOdG58cnFGToX6iB4ymcKEa3jzpcTExPqd1XtZ8zf07m/FNUkqKXEcPC7nxD5KJrMJ7XnD1nXdnesKmsZ91Kb5y/9Kr2wUwMrK6ueff3Z3d8/MzJw/f76q8n9VVdWNGzeUn21sbKysrFR9JhcXFze9AYLImc19Wuu+piz/W96irfyv3g9fneqgDX/VfYAofbNBY3eAxtCd8zYTGNdEmjs8Ezl3JOTSKu8BFINd4xJqUTsorLsgdieCIB5K6tYMUoqNjV26dKmyfA4AAQEBK1asWLFiRZ039g2gmByhU5DN1Z8BwPRpZFHP+ZbRBwhZref1pqdSX1VV1YABA06fPp2bm5uWXf7nsYT3ernLH+dxQrumEvxlYWdzC2lrtqOkavNfIOEMc6d8/XyUnzXOXChh3UkpHNKK3izQRiCwEQhsQtMyIq9vLuk6wyzlqu539qa4c+fOwoULFy5cGBwcvHv37jrdlZmbm0+aNCk0NHTBggW69ALQRCJHf1ZFgfWdWq2pq1t3lZsJSFGF/P/s3WdAFMffB/DZ68DRuyiIIAqKokbs2GOLsUVNYiyo0RSNMU9iYkxi1MQSE5NoEo31L6Zhw957bKAogoqAgICigEcv1/d5sXo5j3b9gPt+XnFzczuzy97ezm+n2LrYp5yyy/hX/d2irtOqfDrbPrhU78ZLS0ujoqKYv1WPHLhc7hdffGFvb//BBx8YcVgZIyzYY3JvN2VBzXe8LHdPQojRQwB1YCLagpp++gUFqYR4aLOYhYnmAmgC6ogCoP3P0PNmWpAjrXlWpHCDalMdRagW3vaKFJ0niqA4HNre+V56rT2KdSVTyARCraY86Orp9fDoC3G74uSbXcMHGqsmhnuDIpeUdEeKfkIpJ7BYw1l0JqGzlOQaTa5r0eA5ePDgqFGjvJs3Z156eHgQQmqMRmu89ehRrn6x2+qcr0cVvTSlYPCX/Ly7hCISjxCWuFhm7yVxD+IbqSklc2zGK0ilFDJCCKWQ8QpS5Y7NlGo3ATRN15iHGO9GwcwDASyre5jXg5wipytHs2y87T19Jg5t7ePVRSyVZ+eW5Ykq855W5okq/HwcbWz06X8kdQuQugZoJLLEpX75ib8OGCLk8QkhQS4ud2lls6ETlBXlh9k2v12/aoS9qq9Wom4WaP8zGmAUwMnJ6aeffmrVqlV2dva8efNEopov4MwgZzZbt0Xg6iBuwXsywcXxSrnz5Wc33Kr2vyoFzCyE28GfHbCzMkpJamjYy+09pc6+dmlnlVwbTnme2LONxKOt+qqBWhKyHLrxeh+s2lljKYykpKTFixcvWbKEELJ06dLFixffuqXD04Uqn06EUBLPEIlnCJNS2byz3QPNZ7wGllLd7t27KYr6/fff169ff/To0deGthHKyknXXqeSitf870xtPa30pjbn33/t/zyJPhNFWVxGZibTPKsSV/FEGS5Xfhd1f9v16iaeyBzXybt3786aNeuNN97YuHHjr7/+qgp99urVa86cOUePHp01axYzV7+pKQWO7Ir/OuFK3VuL3YMIIVW2LlXPT+bSkBGCglRewbO5sdgVBXJbJ/2Ks7e3X758eX5+/oIFC5pM26yOuQD69IkQi6ta24hJebWR8DZELK4SCOq/AzTdXACNSI2DahkZGRldu3ZVjwKg/a+i//M083B15ttwaJlPC13v9Vh2dk+LxTK50Tqf/5t+odvAHgFdW6Zfe2CsbVpEGEUNZ1GVFOEpyVElOd3SV66kqeysQIrqROjrWjzyLCkpUcVuyfPwbY2zbtbxloEoWZXLld9lzr5S11aEENsHW7nFOcwDVZe4bUaJAnBLcstadKXZXOYJv9Q9SH2RKu3zGFIBIw4ECHVVTmr7Qkri04Y1IWS/cF9R2gN3ltJf8ohkPyLZpITm5vGcq/gO9kKhSzP78PbuHu7C7NxSPTZOs7g1xFMUMrFCXimTMyEAQkiIq1uiUnm2uPyf2yYfaih19hN1m+kat1V182R+WVlZ0dHREydOjIqKevTokaWqwXBycvr555/V+//XlrO4uPjRo0cvvfQSMyqHGBwOEORInf8tK+pjT9iU879l6P9vcd5snwGCYfdlyV15z4a25sizshT/NcAqm7/EE2U6Ju1lXioFDlW+XfUIAfTlD7qvSK4+0YCGW7duLV68+KefftKjZV7p250nuq+6/vBE96t8w6uHAAwspTqlUhkdHX39+vWZM2devnh27OBAuYCzdseNQ2eM346tcvDz6ezLzPk32p8ODg5Szf/XGKWmpqWm/ndZ5oky3C6vJ0oTzp3Utm1b9R5qMpksKiqKzWa3adNGFQJo06bNiRMn1O++GMHBwWboEWBqHh4ev/zyS2xs7Pr162nTdL57/oS/lh+LlKfm7ALAqKqs9PVtXttb2oQATDoXQGNx8OBB1aCS6pKSknx9fZkoANr/6uoPAchlCp8Q304ju2qzOc/WPo/uGnM+9oyHJWevP37yVFB/1hd5uQky4/UZPlCbcknZD2e++78BC9oKWguE/EBW62EhIwLdWhNCAt1aDwsZQQgplZRcSr94Le9JcNsw1UAAQohTcKdreUZe8aIO1eNhNE0fPXq0qKjIj6I+41CX2ZzHLw+V29sHEsIsRrJt27bLRM9rbh3ht9DQUEP6Mda98Rf5EEIePHhw9uomUfdZLte28fNTDCmXECLIu1vp162g/wJ+QarEPYhb9oSfp/krq00ePdS71zodWJlMYefvU6pQhrq+kF5mY47JILXUwts+OMA1/vHjFLcaxj5Qcrm8uKiouKis0LmZX11j+WpT28p8ZYTMOXv894HDnW0EhBCapk9mZexO02oNPwNxy564Xl5v0jUstZGRkREVFWXqMaXaGDp0qDbtf8a6deu+/vprDoeTnp7euXNnGxtD+8s4xlUoOVRJD6G4GUfSnG/E/v8MjS+1q6sLIcTVzV2bl0ac/kqjGiVu3lKeM93y2XeK4tnwpEWOtVTSnLNwcShOgrSuhR5Y0jL1eKsw5WSVT5iupfhy/Ftz2ybJEnrz+zMp2YpM1RoBGm7dutW/f39di1DYukrdAzxOLOWUP5uZSGHnmjfka7mdG6eihkmO9CulDunp6QsXLpw2tr1Yovh09YXkjPondNRDm5Y+Ny7c6eQqb+bEau/vfev+nU6uckLqucke2tGXFGgbtVHIZf4eDqSDLyHE38NBkislhMhkCpa7Jy+kAyGE5e4pTXpCCJHJZH4t/fsPGEgI8Wvpn5KqwyIyWt9yaDLw29GjR4/x48dr9MYKDQ29ffu2RopG3QICAnJyckwUAqDEJQq3/3rP8QrSeAVplS1e4pU94RQ/lNt7SZ39bLNj1T+isHPn6xXUHjp06IYNG6Kjow2tdE1Uqx3V3XeiXWfSrrORL3RhYWHqMysJhbaEEO9mPgkJCTKZrF379km1TIbfrn37Bw/qn9+kgcwFYKkvDkPjwWR1HA5n8eLFP//8c2lpKdr/KlT37t3rziEQ2rQb1IErqH9ECiFEJpbePnVLUm6ZRYnNwJ5vHxHYT8CtOSShVCr3J8U0s7NjpgMsTr5JCHEK7mTTJcKc0wE6OjqOGjVK/Z44Ly9v3759gRT1JZsVRVHOo0a7uv7XHIyPj79+/brexTk7O48aNYrPryHeL5FI9u/fX+/dfB2q70sdaJrevXv3E8pZ1H2mcfrsUZTEM0Tm6MMtecTPu1vzbP/a5NFRHYeUodOBdRDyRw0IsLHRjPfF384L7jS4c+fONV5/u3TpcuPGjT/++EOnmustJNC1dxetRhorFfTm3drOQ6GlYBe3Xwa8bMPh/hB/dU+aocEj0I+Dg8OwYcOOHz9eXFysTf5WrVr17t1bKBSeOnXK19e3uLjYkOsYoyTcrqiPvSme/+t0KdNQVVW1b9++0lJ9+r/UXQ2JwFXKfyE0yJOI+OKax18YsRq1iYyMDAsLU83yUB1zA11eXutCaMzHtex65stp6cv2V0+pIwSgH5mrv9TJ1y79vHpiRUBfXnE2V2Sm5RuFttwPp3ZZG3WjtMIk6/B16tQpLEzn+AsjISHh5s2b2uTk2tj7dR/B4QkIIXKpOOvqYVlVmYMdb9TAQObXrapKvv/0/dIKqYODw+jRo5mTXNeTVu/vqYHfjpdeeolZHU3DjRs3VOvXdO3atXPnztXzGHgLVweazcvvv4BX+phTkkMRQgiRCz0kHm3dz65iicuUPNuC/p/yCjO4pc+W0ZE5NpM5+bmf/U6b6QDVBQUF2dvbmy7CqNO/1YgXujq+GgkJCRkZGaNGjQoPDycvLgXFzAYVFxdXbzUmr9xdqHyhPfJpbwdtKpaYmDhnzhxtcmrJUl8c7XE4nCFDhhw/fhztf5X6QwCgh+ZC+3c7dlEtCrj+VnxDWA7gFw5ro5JOVJp2erOGQOrsR9EKbvFDS1ekoTNp+KZxCXZ1c+DyYp+Yr7cONEzV5wUEszGkMamifavSSjg7CkrKJEor+OkHo1Ny+GKfznL7Zx2FWFVFtjnXWdJnMTgl16aqeReF3bMwIqf8qc2jG7q2/61cZGSkxpNwVedcC9YKrAFCAAAAAAAAAGZVYwcQ0/XsAFBBCAAAAAAAAADAKjSsKcEBAAAAAAAAwEQQAgAAAAAAAACwCggBAAAAAAAAAFgFhAAAAAAAAAAArAJCAAAAAAAAAABWASEAAAAAAAAAAKuAEAAAAAAAAACAVUAIAAAAAAAAAMAqcDRei8VimUymVCotUhtoyFgsFpfLFQgEdeTB+aMlbQ4mAAAAAACAcb0QAhCLxUql0sXFhc1mW6pCoKu8vLzmzZuboSC5XC4SicRicW0N1yZw/jScgwkAAAAAAGB0LwwEkEqljo6Ojbf9BibF4XBcXV1lMlltGXD+aK/egwkAAAAAAGB0L4QAaJpG+w3qwOFw6ujkj/NHJ3UfTAAAAAAAAKPDdIAAAAAAAAAAVgEhAAAAAAAAAACroLkiAAAAAFgVmaMPITS3JLcJlAIAYCmtWrXq0aOHHh+8cuVKRkZGgyoFmjaEAAAAGiU2m+3j4/P06dPKykpL1UG/GxFd70KaUikNs/QqnzCKNnnj3DylWPBItmnTJigoSL/PpqampqSkWFspYH7MF6TuE16bPFAboVDYZEppgBwdHYcNG6bT1GMKheLIkSOlpaXGqoPUvbXYXc/Lo6AglVeQZqyaGAIhAABoEFgsVs8ePV555ZXg4GA7obCysurBg6zr8deOHTuWn5dn6doRQkh4eHjr1q1FItGxY8csXRfi7++/cuVKmUwmFAqXL18eFxdnqZo0pdsdy95UWe0tndFZ6ki2b98+NDRUvfXr5ORECCkuLlbPVj2xTZs2PB5Py2ZzUyqlEfHw8IiIiCCEXLhwIT8/v3oGLpfbv3//5OTknJwcs9dOB3379o2MjOTxeHU077XJAzXKyMj4/fffm0Yp6vRoeBNCFArF0aNHS0pKjFiTkSNHzpo1S9dPsdnsP//801h1ELsHSd0CeU/v6/pBqVsgIQQhAACAZ1gs1vRpU998a7JSqczJycnKznZxcW7fPiQkJDgl9X5DCAFQFDV//nwfHx+5XH7t2jWRSGTZ+syfP//s2bMbNmzo2LHjJ5988tZbb1mkGk3pdsf8N1UNp/SmxLJHMikpac+ePaqXI0eOJIQcPHhQPU/1xHHjxlltKY1CeHj4woULmUjrpEmTVqxYUT3qumjRIh8fn3fffVe/ImxtbXv06OHl5fXkyZPLly9XVVXVmKdnz56enp515KlNhw4dQkNDk5KSNFKq56yeJykpKTExUZe9qVW9u2nIPpq5FKsycuTI7t27q58bKra2NoSQysoajmFoaKhx294NB+/p/b783LCwMO0/kpCQcP6p6WqkM4QAABo9Z2fnrl27tmjRQigUlpWVZWRkXL9+vby83LilaHSvLS8v379/v7E2HtCq5bjXxhcWFX/55ZfJd+8wic7OTp06dbmVcMNYpRiiY8eOPj4+UqmUx+MNHDhw586dlqqJUCgcP358hw4dfH19//jjj6SkJG9vbxaLZZE1JuvtdG30rqRBQUFdu3at7d24uLi0NGPG1822g+Y/koQQuVNzJcXmFWWpUqTOfpRSzi15ZNyCzMkiR1LFxcWFaRUzmL706ik1Jrq4uBQWFlpnKQ2fUCj87LPPvvjiizt37hBC2rdvv2TJkilTplRUVKjyDBs2rFevXrNmzZLL5XoUERYW9tVXX6WkpDx48ODll19+//33v/76a41WtzZ56tClS5fIyMht27Yx3aFLS0uZlOo5q+fZtm2bUUIA9e6CgfuoRymDBw/WrxRrw+Vy4+Pjt23bVv2toUNeJoQcO36i+ltMXxLj1uTAgQMsFsvGxkb7j1RVVWnELo0iLCwsLCwsISFBy8yEkPOxNXQgshRjhQA4du4unOL8EpmRtgcAWrCxsZk1a9bIkSM1LrKVlZU7d+7cvn27QqEwYnFCoXDgwIFeXl4HDx7Mysqq/wNaCwoKEtjYHDh8RNX+J4QUFRWfOXPaiKUYYtiwYYSQqKiomTNnDhs2zDwhAPegzn7dh1MsDiFEVlmaefbvV14eMHbs2PPnz9M0ffTo0fHjx2/bto3FsuTaLubvdF1HiRRFmbO4RlqQipLFEfWY7RK7hXkpcWtd2G2665VG3xkBQyoaqdqeS2vPiM+rVTp37pycnMy0/wkht2/fTk1N7dKly4ULF5gUDw+PuXPnbtmyJTMzU4/te3h4LFu2bOXKlZcuXWJSIiIivv322+nTpxcUFGifRxuhoaHx8fG///67QCCo7VBrk0cP9e6CUfZRy1JWrVp18eJFvUvRg3lCk5YNgJpHaWlpVFSUpWvxTEJCQo1hkepqDLeZQlBQUMuWLU+cOFFHCsOwEICg49Svx5VvXrIn03fonNfKfv3+RL7RHkOxBbYcaaVE+WJB943ZnoFG7YUzxCrZ2dmtXbu2devWzMuHDx+WlZU5OTl5e3vb2tpOmzbt3r17ly9fNlZxTPfanj17EkLWr19v9F4GhBAlTRt9m0ZhY2MTERFRUVGxc+fOXr16BQcHt27d2rhPm6tzbtku7M2vRBUSb0eb4uzkQJL75YZfzp8/P2vWLJFINGbMmOjo6C1btuzevZuiKNpCh878na5TU1NTU1PNVpzZdtAi3dd5hQ9c47aKus3glTwiNClv1cc1biuv8IFxSzFzXwPLDgQoLCxUf9xkos7zTakUdcwz5+vXr+sxlUDbtm27dOlirOfV6po1a6YxvD8rK6tZs2bM3xRFffbZZxkZGXrHhadOnXr27FlVk5UQcuHChR49O2YNvAAAIABJREFUekyePHnNmjXa56lXYmJiSkqKKkCWkpJS23FWz2Osp7j17oJR9lGbUs6dO6dq/zMZunfvrlMpdZM5+tBsbvULqXFDk1KXlpRCVv0qigColQsICFi4cGFAQMCGDRuYO8PqKQytQwAs7+Gfvmu3c8mudLVGuCTj3917ZbkmaIRxQt78enDmt2svltFGKojrHT5uwrCw5kI2i5bkp53fveNUuriBtjeaLErQov/M97qkrPn+ZMHzY0/Z+Pef9MagIGeuNC9+3/bd1wu06kWncYZYpU8++YRp/9+9e3fVqlWq5w8tW7acPHmyTCYzYvtfxcPDo6yszOjt/6ysLJlU2rtnz5g9uxvCyH8N/fr1s7OzO3bsmFgsPnXqVHBw8NChQ00dAmjVe+ytrKchLdwKL/+94O0JR4+mz5gxQ33ardLS0uPHj7/22mv5+fmWCgFAY8crSHON3Szq+R5hsVwurTfFNEVNta8BmEJsbOyyZcv0mLvb0dHxiy++MEWVcnNzNR6G+/n5qToFjBkzpl27dpGRkfoNxWImEfzggw800vfv3//DDz+sW7dOJpNpk0ebsmrryF03ozy9rHcXCCGG76OWpcybN696hjVr1mh/JOtGs7mFPd9xid3KK/gvWm3c0KTUPaiw23SXS+s10q1hThnLrp7T8B09etTFxWX27Nm2trY//vijUqmsnsLkNKwXAF2WcT2BEEJ0myHSgIL0xWo2OPI196trl6x9WEWzBO5+bhKJNd4xjxkzZsyYMXVkiImJiYmJMUHJlI1Pl8Ejh3Rw4fLkKerJ7cfP7F3+54rP7ordI2Z9OHPw41VHHzWOJ/uWO5iEEBIQENCvXz9CSG5u7kcffaS+LNyDBw+WLVtmikIdHR3t7OxM0fS9l5J6+dLFfgMG/rJu3R9//nXixHFxQ5qeZ+jQoYSQU6dOEULOnDnz3nvvvfzyyxs2bDDK7UJtuAJbFxsBn5Jdv3BQOeO1nTt3qrf/2Wy2UqncuXPnli1bpk6darpqQJPHe5ru+u9aQmheUbZJtm+WvgYNgbOzs1AoHD58uCqFmTBfPaXGxBYtWmgfV21KpVR39+7dGtv/FEV17969VatWGRkZV69erR70LCkpuXv3rt7l1iE+Pn7evHnt2rVTzQUQFBTE/Mg2b9589uzZv/32W26unktdBgYGKpXK9PR0jfTU1FSKogICAu7du6dNHj2KDg0N7dChQ/X0mzdvGv1I1rsLFEUZvo/alELT9P37mhO5M3c1eh9JDbzCBy5XN4m6zXSJ28YvMH6fNalrgCg80iV2q3rXKuvBLFeh66esankLZv7F2bNn29nZffvttwqFonoKMTQEwG417qvXyn79/oSIEMq16+RPe7s68FiygqRj/+y+/EhCCCEsh7ZD3xjX08+WJS9LO/3X3xeyxcS921uRw9o4cAhRPjqxbsNFmyEfzuztwmJzSGHC3q07b4iUhBDCDnj1k8WDlESRdXTtjoJBXz4baEDZtx488bW+Qc5cRUXO9YP/7L9RICeE5dFz6vSXA+w5FIvHkeXG7dkec6tIrSHJcnR2KM1Iya2iCSFKcUHmQybZd2i1omvbFNv9pfFTRrZ3opS04uGJ3zZdLGiEMQSmRVpbw9WkTVaWDefp6fWr6YGL1AqnbEJ7dSw4tzS5TElI3qXjNwZPCm9xPCbrv38dy7P39LeHBthQSkLRFdnXjuw5nPCsn4D6GfK/2BKz/zsseDAJIX379mVGgP/9999mWxbe09OTEJJngqf0crli9Q8/lJWXDxs+4qP5H06PjDx27PjemD0NoUeAp6dnhw4dioqK4uPjCSEikejmzZsvvfRSt27d1DsTmoKrg420sri8vPzQoUMTJkzYuHGj6q0nT54QQoqLi48fP87MCGDSmtTGPPH4plSKZUu31D6aoa+BSkBAQPfu3evNdvXq1epNBQM5OTkJBAL1lBqXDqmeKBQKORxt78fMXwrT3UwV/FV/yZSinqJTKVpisVhLlizp27cv8/LcuXNff/212SZAraioWLVq1TfffMOsAhAeHr58+fLKykoWi/X5558nJSUdOHBA7423bNkyJyenekRDqVTm5ua2bNny3r172uTRo+jy8nKNTuNCoXDUqFFz587VY2t1q3cXKIoyfB+1KeXhw4c1Znj06JHeR7I63tN019jNpogCSF0DRN1NFVxoFM6fP6/H4JTz58+bojINlqrNb2Nj89VXX8lksuopRrxMS7JOrf/nVrGc49r5zQ/eea342z/villeA96e2vbOhm83ZkmE7V7/vxmvPFy2+4F980Dqyrqvjuc974pwet3Xx2RKwm85+uP3RnW4szVBQghRpB9Y/bybN7vVs0Io94gZ0zumb1mx9X4F17vXtDnvjipZuSddSgm9WyqvrP3yeL6Ssms97qO3R9+/t+2WRFU5eUbsFXrGWxNL9hyPSy+UPv/2K3OrF13Lpjhth01onrh68ckCBcXhchSNsP3PqK3hauImK11x/+plQtgBL6RS7j5eFQ9PlDNHU/Eo54lzl2YCkvVfi5ay82wh/ffH5cfzlZRNi36R780ZW7l8Z6rmGWIhFjqYhDy/5SKE3Lhhvgnzvby8yPPGp9FVVFT+sObHAwcOjBo1asCAga+/PuGVV0as37Dh6JHDFpnrXoVZC1ckEr3++utMCjPn8/Dhw00dAuByWIqyKkLIrl27tm/fvmvXrqKiIuatCRMmMH9ER0dv3bp19+7dZWVlJq1Mbcwz8rAplWLZ0i21j6bua6DOgv9HsVh85MgRZvWQemcX8/Dw4PF4Dx8+DAkJ0aMUXeumdynMQ35ViRovNVJ0LUUb3bt3V7X/CSH9+vXr1q3blStXNLIpFApd1y3XUlxc3OzZs/v06UPT9ObNm5n/7BtvvOHn5zdt2jRDxmE5OjrWNuqhpKTE0dFRyzx6yMzM1Og0HhkZmZiYeOvWLf02WId6d4GiKMP30Tyl1Ejm2Ezi1V4jkVeUXdjrXdcLa3mFmUaZqE/q4i/qM4eXnypzaSlzaan+Fv/JbW5JrjVMB2gNgx2M4s8//wwPD+/Vq9fgwYOZi7NGivFCAHR5/uNSOSFELrp56Fz/RT3a7rqb6NG1h8ut6FNZVTQhZcnnr0tntG/GekAIeeGCKX/WmVaSfete5UQvJxap7cEfq1l4b4/E3b/cL1cSInl8KeZ8r497tzmQnqQkhBBmk3RF+tWE0hmtvFi31B4mS+7vX/1DWq9BQ+cMdSm8dfrQkcsPKujai65hU2VFpc6BoX6xFzJK5abs/WsGMTExMplM1YQgZmmy1ojiC3iSUtWYDJlYrOTzeRSpfPH39Nm/oyrn/O5z3Rb0brsv9VaDGStgqYNpb2/P/FFSUqJK1JhO2ehzIzMhAFP0AlBJu5/+/Q9rNm7aNGH8+PETJs774IPi4pJLFy9o89kZM2bMnDlTPeXIkSMGjomgKGrIkCGEkMDAwMDAQPW3unfvrtPyV3pUj82ixOJyQgjTEWD8+PHqHQEYJSUlzIwAWnYEMO5RMs+PcVMqxbKlW3YfzdNtNT093eiP93Xi7+//+uuv79ixo96cPB5v8uTJ0dHRZqhVo+bv7189hQkB2NravvTSS97e3o8fP963b5+Dg0NtGzHw0pefn79nzx7Vy5YtW06bNm316tUGTiPP4/FqW0dQKpXy+Xwt8xhOKBSOGzfORPMpaLMLhu9jvaXk5OScO3euxgznz583MIyu5GouU0dzeERJq5apMTw0SVGEKGmaw6telorpAqBCoS2z/p+GwIAA8nxpwOofKS+vp5uqKe7c9ND0qhEZGdmpU6fTp0+r1gLQSDFyZy0GXVpcynZ0tKVYDk4OwpCJn/gz30iKZ6O4xaXIi807ShjYf/Twbq2c2AoZy95JcaGO5a1Yji4OxU8Kn89ISBc9LeSFONlQpEI9F11ZXsnzEmiuDSV9evfsP3fPcl3bDZ/27ny39Sv3ZwnqK/q/TSmyj/wS1e+VMZ8s4WZc2Bdz8l5xg2mE6uPQoUPk+YNES7X/CSG0RCzh2/Cf/6u4AgFLIpHWHk9XFuaLOO2cbCli/Nno9WeRg6lakdjOzk4V1dZY5tfocyMzAwEeP35sxG3WqLS0bPOWrQUF+fM+/Gj4iBFXLl/UpiPAli1bCCGqq2dmZubq1asNrEmHDh18fHwKCgo01lPp2rVrUFDQwIEDd+3apeWm9Kgeh8Uuefis8y3TEUBjRgAGMyPArl27tBmCa9yjZP5nDu3atWPW161RQkKCapouo7D4QxWps58Rn5xbw8JUgYGB3bp1U0+JjY29f/++zMFb4v1fhJQlLec/SWZXFRm3dDabPWXKFObBvvrz8MTExCdPnnh5eWmMvs7Pz588ebJEItFvPXkroX62FBQUxMbGMn3yvb29165dm5SUlJeX16ZNmzlz5lSf6U3FiJc+Lpf75ZdfxsbGMr8LHh4eERERhJALFy7k5+u27rdUKq1t3ASPx5NIJFrmMdz48eOTk5O1XORcV/XuAkVRhu9jvaVcPnvWt5Z1Y1MOH8o2oFMptySXW7L/hcq4BVT4dXe5soEryiRGCr9yRZmul38VdZtpn3y0xoEAjfEJua5fzBp/X5iAYI3pLBarW7duzK+AEathIsaqRmRkZGRk5IkTJ1asWMGM/K+eYpIQAMvFw1VeXFxJK0tLSoqu/bFq7wP1u3dVr35CCCHckDFv96zc/NM3aeVKlu+oRZOYZKVSSbGrtciVJYVljm4ubMKMBqecXJ1lRcVVmt/aOr/FMtGdw8fu9h4V7H7MblBNRde2KUVxyuk/Us4K/QfPmD1D9sOaM41xMgA1hw4d4nK55HlvdougCx7l2fVoLqQySmhC2D4tvIpzc8W156ccnBwUpSVVdG1niKWY/2BmZmYyF7uQkBBVm/zKlSsuLi5t2rRp27atKQplegHoeoujt/j4GxXl5W6urjw+X8vZAVVXT7FYvGjRIrG4jrNJK8OGDSOEHD58eOvWrerpycnJ33zzzYgRI7QPAehavbInmS7+oZWiZ/9cpiPAxIkTNX7gnZycJkyYwGKxWrduffPmTaNXo15m7nTNYrHqKJGZIMO4LNirXOoaIOr1Hs3luf77Cz9f52XSatS0hxvUVTrFUn90JrdzLw1+xeH2ftvsWOOWTtM0RdXSzqj9I8atQxMTGxt79uzZ/v3779ixY+fOnR07duzSpUuzZs3atm175coV1VpuH3300cCBA//444/atmOsS9+UKVPc3Nw+/vhjQkh4ePjChQuZkMSkSZNWrFjB/K2lkpKS2nouODg4ML38tMljIKYLwIIFCwzfVI3q3QWKogzfx3pL8aXIEjZrpZJOVL7wjevAoj5jUYsVyjQjfRGlbgEmmg7QdLMM1Ku8vPLYcc215cnz5/81vuXdzEebLev6xazt90XXdAOrYSKGV4Np7e/bt++nn35inp9VTyFGDQE8+8Vj2fr1G99PELv1npQoc+NvSN4f0e/atrM5lTRh8QVsiVizDz2LzZJWlDPLu6uWBVcUFhR7BrSyu3CznC0QUM8/o3x87dLT+a+8HPvwWEYFx6v76L62sf9LkdW/JAHLLaCtID/1UZmcpriu7Tu1InmJJXSNRde2ewJ7obK8TKqsePzgiaSbvQ1VT6ihMbBg459BVyZdvDVq7LDgm9F3xR69hnSpjFuXo/m0lxJ6eDtw8ovlHNewV/o539yZIiWEvHiGiKudV2Zn5oN5/vz5N998kxAybty4s2fPMl/pe/fu3bt3LzIy0qQhABPNBVCdUGjH5XIrKioUujwfY66ejx8/Vq2SqDcbGxtmAOrZs2c13rpy5UpZWVmrVq0CAwPrDi3rXT1ZVXnW1UPZccdUKaqOAMyMAI6OjmPHjn3llVdOnDgxZcoUnToxGusomf+ZQ1JSUlJSktmKs+BDFal7a1H4dF5hptQzuLDrNNe4rYbPolfb7hi3r4Fln0Tdv3+/xq8kt+SRxhracju3p/0/5hU94JQZbXCTQqHYsWPH66+/fuLEiexszeP55MkT9eunr69vly5doqKixo0bZ6wKNElKpfLrr7+OiYnJy8vbvHmz6rE/My2ui4tLTk5OixYtevXqFRUVVfemDL/0BQcHT5o0afHixUVFRUKh8LPPPvviiy9UiwUsWbJkypQpqm569crKymrevDkzU716OkVRPj4+WVlZWuYx0Pjx42/dumWiJRWIFrtAUVSLFi1YLJZSqZQ5NiOEcEtyCSEsFkv7fay3lDSaLFcoF3LY39GKW8+ztKfIp2zWSrnCaO1/l5aF3d92jd1ionlPeU/TXeO2Fnab4XJpfZNZFED7L2Ydvy+1pWt/k6br9SEsLEzL5QnCwsK072JjyGVq2LBhkZGRf/3114YNG2pLYegSAmC5Rry3ouuzTvjKp+fXf6+6NaUr8h7yhn+8sr9CQZTlD+Kifz2cJiGEKB8d//3vEROnfjFUSMkVstKb//y4++6LN/Oy5CO7Qqe8u7QvSyZV0ET24KiEJoQuuHzg6qzJi1dNkEkKL239OflZbmX++S3/47/++ufL7dm0+MmNfb/tvy+tv+qUjUtgr7GRke42lFIpr8xL/vf36IRKKbumomuJ3fMDhn4wqYuQVhAieXh1945qDVXQS9WdXZs933rz81WRHFn+zT1bTtSwIiC/5aD3vppoz2PJRLdPbNh1p4omhLx4hqw5nKmovvGmLDk5+eLFi717927fvv2HH35orPVs6+bp6VlVVVW9I7rhuoWHF5eUpqWlqsKTbq6uM2fO4gsEsXGxuu4ac/U0XEREBLMIYvWrsEwmu3DhwogRI4YMGaJTCED76uXcOF1V9ELLRDUjQHR0tKrxP23aNP1GMBrrKIEpSF1aisKnu8RukXi0kXoGu8RtE4VPd73yuynW0mP6GjBz9VvVLNOciqeC3ESJV3sjhgAIIZmZmVFRUVJp/fcmVVVVUVFRjx49qjen9QgJCXF0dGSe+qqP879+/XpCQsLkyZM1HvtLJJL09HRXV9eLFy9qOUjNkEsfn89ftGjRmTNn/v33X0JI586dk5OTVYOPbt++nZqa2qVLlwsXtJq/hhCSlpbGZrMDAgI0fkeCgoJUy9dpk8cQQqFw7Nix8+fPN3A7ddBmF1gsVrt27ZKSkqp8OpHnIYDQ0FClUqnlPmpTym2arJArFnLY38kVt2jSniILOexVckWi8R7qUQqZy+UNGtdq4w6P4hWkuVzeQCk1n45YfOSaIRrIPYn21dBp1ExCQkJCQgIhzYxeDQ0PHjz47rvvmBHKtaUwtA4BKB8f+fb96vPP7ln8HSGEkLyLm5bVODW2ojDpwPqkF9dLyXj+KUIIIfL8uL++r9Zrii6/t3/Nov/G1WQ+/4iyNOXYxuXHNLIr1LdJF51ds+jFrVWkHt+08rhmITUWXcumFHd2ffu5Dj1+oUaK9F1fvTiqha7KPL3p29N1fIYWxe34/kS+RmhA8wyxQitXrvztt998fX1Hjx7dvXv3ixcvikQiOzs7ZlCi0dnZ2Tk4OBjlgYMGiqL69u0zfMTI8vKKhw9zKioq7O3tW7ZsyeVyr1yNPbB/n9FL1JJcLv/zzz+ZW73qtm/fLhKJTDcPv0b7n7Fr164dO3YMGTLk0KFDU6dONWT9bWjIWEq56+UNvKIsiUcbQgj/aZprTTd8hlP1NSA0KQyPNEpfg0Yhb9AXzrei2VVFCo6AECJ1b13UcaLnqW8M3KxAIGCmx9dex44dBQKBTr099SiF+ZR+pTAL0KhK1HipkaJrKRq6deu2cOHCgwcPZmRkVB/nz+FwRo4cqf7Yv6qq6saNG7m5ucHBwZ07d9ZpZJYe3n77bRsbm59++ol52axZs5ycHPUMWVlZzZppe5dPCJHJZOfOnRs5cuSPP/6onv7qq6+eOXOGCX8zeV599VVV7KN6HkOMHz8+Pj7e8FBCHbTZzXXr1jEDKtVxudz169druY/alEIIuU2TVQrlZ2zWXiU9lkWtVCiN2P4nhGj0NlIx7vCo2sLBlh2EZQbMbC/M2H5d/zZiNaRugeefkvOxOg2MbSZ1C+Q9NeEXjRCSnJycnJxcdwrDJHMBAIAZlJaWvvPOOx999FH//v29vLxee+019Xezs7Orr5mkt9GjR3t7exNCuFzupEmTjBtIpmn62PETAhubNm3a+vv7c7nciorKO3fuHjt27PTpUxacJev06dOnT9cannry5MnmzZvNWR9CSHl5+ZIlS+7fv99AGv+tW7cODw/X9VNxcXGqNca1YZ7V7M2zL1riFD/USDFFh0/1vgYUTQtTjou6GaGvQYM6krVxTvhb1G2mTf5dVnmh1DVAFD7dJU6rNTXqUFxcrHH/7erqSggRiUR1J5aXl2v/jTZ/Kcz/RbVB9X8Tk6ieolMpGpKSkpjFqxUKxaBBg6qP8yeE7N69W+OxP/MyPT3d1FPVhoWFjRs37tNPP1XtYG5urvoqPIQQPz8/XWck3b59++bNm2NjYy9fvsyk9OnTJyIiYsaMGW3btg0JCTl06BCT5+rVq9XzGLhTQqFw9OjRc+fONXA7tbGxsRkxYsSNGzfq2E3m5dGjR6t//Pr168YthZGopPcSEslmbVMoNeYFMBFrWPPFbNQvgLr+bRQCfbvL8Z7e1/uzRocQADRsihf7jMCLysvLly5d+r///a93796BgYGOjo5SqTQ3Nzc+Pv7q1avazKKvJR6Pp1QqmZszU8SYExOTEhPNN8C7Rj/n5RprU/M8dXgKpOHKlav1Zak3wzM9enTXuxpaoihKj/NB18nSiFmebJhtXxoOE/U1aBRHkvc03SV2S2HP2TYPb4q6z3SJ3cp/amgAoqioqKioiFmBmTFy5EhCiHpKjYk2NrUu8dW0S9Fw/fp1VZMvODh4xIgRQqEwLy/P09Ozb9++zDx/I0aMuHr16uPHjwMCArp3785ms69evfrw4cOePXv26NHj77//1rv0utna2i5cuDAmJkZ9tr/4+Ph58+a1a9dONRdAUFCQrit45eXlffnll1999VVKSsqDBw/8/f2DgoIWLVqUn5+/Zs0aX19fmqZjYmJqy2Pgfrm7u69atar6vBXGMnLkyDlz5qSlpc2YMaOOXZA5NpN4tWc+InNtRQgpb/NskTlmxXujlKLSgUWNZVHbFMqxLCqVEPNEAcAo1Gd70fVvw5W2fT7yX9/7a7Grh9i1NyHE4Z6hQWcDIQQA0OhlZ2f/9ddfJi1i586dptis1L212D2o7jyCglQr6ZncGKWmpqammjykbZ4nG+bZlwbFRH0NGsuR5D+973L59+JukUZp/4NxyeXyvXv3pqenu7u7x8XFiUQimUxGUdThw4eZx/6xsbFMHwfm5eXLl/Pz8003J05gYOC+ffv++ecf9cSKiopVq1Z98803TFwgPDx8+fLllZX1LIReHTPNQffu3b28vE6ePLl06VJmI0eOHJk0aRIzuV1teQyUmZlp+NS5dbh27Zpq+3XvgmrBDiWbp/7SuKUQtfn/Emlyj6Y1ZgeEBs48vQKtAUIAAACgJ/NPPlR3iWYuzhQlNgGWPWhBQUFdu3bV5RN3yZBwQsKvXbtmYORCLpe3a9eOeTDOYPrJq6fUmNimTZvbt29bYSl1OHXq1OrVqx0dHQsKCjp37hwcHMwsWcckikQiPz8/Zg4C1cuQkJBPPvnE8KJrlJiYmJiYWD09Li5u9uzZffr0oWl68+bNBQUF+m2/oqKi+riz6Ojo4cOHq/q015hHSzKZrHPnzpMm1bT8dZ1CQ0Pj4+P1K5QQkpmZeerUKQ7nWXOjtl3gluRyS57N7lQaMoIQ4nD3sNFLIURz/j+N2QENp98wKKLjSCjzlKKuMuNKoG3Z9LAalt11lsYTQprV9Jb3kxP3K+31KK4Offv21XISfnU8Hg+/1BoQAgAAi+EVpOEJf2Nn/smHzFyixWdXoqQVpLGtG2/Bg8ZisfQrncWq4RZWJ6dPn9YoXSKRkGpHo3picnLymTNnrLCUOjx+/HjWrFnMigApKSk//fQT8yxXlZicnMzMFBAeHs68VOUxs/z8/D179phiy1OnTj137pzhvf0JIQcPHtTvq5GQkHDw4EG9y/X19R04cOB7772n9xaMWEprinzOZmnM/6eaHXCxQmn4uoD6DYMiOo6EMk8p6lJTUuy8av4ss0pxjR4/fpz6xGhDLBnnz5/n8Xh6fMq41WgCqO7d/xssWlJS4unpacHagB7y8vKaN29utuIePnzo6OhY41tN4PxpOAcTzK/xzAWgLTPMBQCmpr5EdmMvBQB0EhoaeufOHSNO62N+bm5uXC5Xp5ka9egFoGUpfEJ8KVJjO781RbJpItG+SLBK/80FYDDMBQAAAAA1M0+zHI1/gAYoKcnCs+Qa7unTp7p+xObRTV37PWlZioTU3P4ntacDNFUIAQAAEGLYo3sjwqN7AACwWohIQoNl8Uf3RvTCyDeKohQKhaWqAg2fXC6vY7Qkzh+d1H0wAQAAAAAAjO6FFgiPxyspKZHLDV0TGJokuVwuEom4XG5tGXD+aK/egwkAAAAAAGB0L0wHSAgRi8UymaxRTz0CJsJisbhcrkAgqCMPzh8taXMwAQAAAAAAjEtzLgCBQIBmCegN5w8AAAAAAECDhaHIAAAAAAAAAFYBIQAAAAAAAAAAq4AQAAAAAAAAAIDO+vXrZ+kq6AwhAAAAAAAAAACroDkdIGZ0b/gwmTwAAAAAAADo4YUQgFgsViqVLi4ubDbbUhVqvPLy8po3b26Ggpgl5cViMaIAAAAAAAAAoL0XBgJIpVJHR0e0/xs4Dofj6uoqk8ksXREAAAAAAABoTF4IAdA0jfZ/o8DhcDBYAwAAAAAAAHSC6QABAAAAAAAArAJCAAAAAAAAAABWASEAAAAAAAAAAKuguSggQJNRUlJi6SoAAAAAAEAD5ejoaOkqWABLZHBbAAAgAElEQVRCAFZK6uwndQvklOUJnty2dF1MyNPT09JVAAAAAACABicvL8/SVbAMhACsUUXLHlW+4TaPEgp7zna6/odtdqz2n3377bcnT55c27sSiWTw4MHGqCMAAAAAAAAYGUIAVodmccpCx7heXk9JKwkhhNLt43v37h09evSyZcuuXr3KpPB4PD6fz+Fw+vTpM3/+fIqiaJo2dq0BAAAAAADAUJgO0OpI3QKVPDt2WR6nvMD91HLbLB26ABBCRCLRpk2b3n//fQ7nWfxIKpWWlZUVFRUdOHDg9u3bqnQAAAAAAABoUNBasy4ypxYVrXoTQqqad+GU5fELUvXYyIEDB4YMGTJq1Kg9e/ZovJWQkMDlcmUymRHq+pyTk9PLL7/M5XJryyCTyU6cOFFcXGzEQgEAAAAAAJoenUIAlMCn69Dh/V8K8rTjUPKKvLRLMX8dSymnCeU++JMvhzqXiZWEEEXuqV/Wn81XmqjGYAipS0u50JNVVUJzbQhLzz4gSqVy9erVa9asOXXqlMas+1u2bDFGNV8waNCgOXPm1Ful3bt3G71oAAAAAAAAU6v+bLU248aNM7AsHUIA/FavzH+nY87+P1dvyyyRUxx770B3aSVNCCGUwIabsueb3y5XYAy4dsaMGTNmzJg6MsTExMTExBi9XLuMfytb9uQVPRCmnDBkOxkZGSdPnpw6deratWuNVbfanDp1ytbW1sbGprYMVVVVp06dMnU1AAAAAACgSZo4ceKECRPqyLBz587o6Giz1cektA4BsLz6TYgoP7Diz0uFNCGE0PKy3Htlz98U2nPLMiVo/2uNad7XFgUwUfufEEIoSi704OffM3xLW7Zs2bZt28GDBzMzMw3fWh2Ki4ujoqJMWgQAAAAAAFgtpnlfWxTADO1/w5/ta0/bruCUU3B7z/Sr1wtrbOZzbHi84Ilffrng/UlD2rvVOmYb1NXWzjdh+58QhcCJ5go4ZU+Yl+VBg5/2/0TsE0YIqWjZo2DAp6Lecwil1VkhFot/+eWXuXPnmqiqAAAAAAAA5hEdHb1z587q6U3p+T9D214AlJ29nbi0VK6WxHMPbC3Iu5tTRhPxjW2f3yAcO682vUa/8dGUvSu33ihFl4D6xcTEyGQy9WiTSdv/hBCZgxchhFOWx7zkFaRUBPQtCx4meJRg8+ROSec3na/vILS28zgIBAJvb2+dKjBjxoyZM2eqpxw5cmTZsmU6bQQAAAAAAMC4oqOjpVLpW2+9pUppeu1/on0IgK4srxJ4O3AIeR4FoBw6jpnifXjRjrvPU+QVT+6c/ONw62URHe1v/osYgFYOHTpEnvc5MXX7nxAit38xBFCUbX/3cPFLb0k82lS06uNw+4BNdpyWm3Jzc/vwww+//vprnSrAzBeoigJkZmauXr267o84OjoOGTKk7hUBjh8/rjExIQAAAAAAgE6Y5hgTBTBn+78hTgdIF6Uki4Z16eBwPa7Otj0tKa+Q8/h8A6tlVQ4dOsS0b03d/ieEKOw92eJilqxKlWKTc600dFRht5l26eeFqSe13A5FUQsWLDh37lx8fLyudVBFAcRi8aJFi8Ricd35tVkRQC6X7927V9eaAAAAAAAAqIuJieHxeOT5BAFNj9bTASpzz+6N/2Ta7DHSHUcTn1QpCcViPxsyTgm9fHhFjwolNMvWt2+/toW3T4rQBUAnZmj8M+R2bpziR+opNIvNFpfJHLzssq5qv51x48YFBgYuXbpUI53FYp07dy4iIqLujzNRgMePH2szleCpU6fs7OzqXhHg9OnTWtQaAAAAAACgHuZv/JtzOkDtFwWkK+7u/GFj31eGzfrqTXsORYhSLEo7WawkhOMRNnZy3xb2XIrISzKu/r3pxCNtB5ODmcnt3G0e/vfcnmZzC3u+Y5N1VdZuZEVAhEOiVg/SfX19Z82atXTp0vLyco23mICZNpgogDZKSkqwIgAAAAAAAIDhtA8BEEKUZffP/r3u7N+ayRnH1i45ZsRKgVHRFFUw4DO+6L7D7QMKOxdBbsLzdFZR+HRecY4w7bTcwbuiZU/7u4cpuaTurbHZ7M8///zy5csXL16s/q6Tk5PxdwAAAAAAAACMQacQADROFFsudGNLyoo7v2mbFccrymaSy9oOEzfr4JAUQwixu3+m0q9bQb+P7TL+tcu4UMfGpk6d6uPj8/nnn9f4bmhoqNGrDwAAAAAA0IQ1xOkAofGilHL3cz9IPEPY5fmCx0mqdF7pI6ebf7OqSgkh3JJc59itLFkVP/9eHZsSCARvvfUWh8PZt2+fyesNAAAAAAAARoUQgFXgluRyS3I1EgWPEtRf2jy6We92xGLxgAEDjFkzAAAAAAAA62bO6QBZZisJAAAAAAAAACwIvQCgKcvLy7N0FQAAAAAAABoKhACgyXJ0dLR0FQAAAAAAABoQDAQAAAAAAAAAsAoIAQAAAAAAAABYhRdCABRFKRQKS1UFtCeXy1kshG8AAAAAAABABy80I3k8XklJiVwut1RtQBtyuVwkEnG5XEtXBAAAAAAAABqTF6YDFAgEYrG4qKhIqVRaqkKN2sOHD81QCovF4nK5AoHADGUBAAAAAABAk6G5IoBAIEDbEgAAAAAAAKDpwXhyAAAAAAAAAKuAEAAAAAAAAACAVUAIAAAAAAAAAMAqIAQAAAAAAAAAYBUQAgAAAAAAAACwCporAhhdVFTUlClTTF1KQ66AugZVGQCjwFltdDik0ADhtDSdxA6rWY4+lq5F06QsedQh8RNL16JpwjXBdHBsTUfXY9uvXz+T1cWS0AsAAAAAAAAAwCqYvBcAAAAAAAAAQCO1cuVKjZTPPvvMIjUxCoQAAAAAAAAAAGrWqBv81TX8EADLd9Lv28fc/WjSjzcllil//A8/T/GnZQqaUPLC1AvRG7eezKiyRFVAS5RD8MgZM17rF+otUErLn9w+9Ovy/10voS1dLbAMVouxK9ZMC+YqaRZLWfEk+fKRv/88mFSosHS9wLTYrd/evmmiS2mlnHktT90+d8GeR0rL1grMQPNfL7uxLnLJyVL8BBiFm5/9//Wzf9Wf58WnS4pkV++WLDpSkYnvlYHYrd/e9gVZNn1T2rOfJlazib+u9dn4+pqbcsvWrAmpdpDBmCinV77/s/Pe0UsvySxdFdBKgw8B8DuMHU5ui/q8FrEt4WSxBX7CKb6Ta9Hej2Zuy1AStn3gsE9Wfvee6M0fbkjNXxXQBiXs9P66r4Kvrls65dP7JQq2sEWor7wcN3/WixK4elce/L/pm9IUhGPfstu4OYs3dt0y76ujj3AX0MQps6Ln4W7PKuFfbxoeIW7H37IPoOWx98qPltAOboJuriwxfl8BoOm6dOlSvXl69eplhpoYVwMPAVBOEeN7Zfwz52i33yYPbXb6Hws/wVGU3T9+7ObsN/ydWDfyEfRukFj+4+YOerB22oazTMBIUZ6TcNfSlYKGQl724NL/FhXyN333br/LX55G1xAAAC1xBZ+Osg9QiJf9nrf64bNbIIoiNK6jAACNTcNeEYDlOejVNjePXM67duRfl5GvtrF0wIJl5z9kaPsn12+J0P5voFgeL3XzuHHysiU6jEAjIUk5diq/c6/2XEtXBACg0eA2sx3sSMrulW54+N8tENr/AACNkaUb1XVitRw+wvvKL/FVRJZ07CxZ8WqXbcmxYkvUY8Lqv4fKKZ6Dh4dt3vEVm7LRu7ChopxcHEpFhRg7B3VQigqKeB0c+RSR4va1KWP5TlizezhzNZBeWv3W95cxRNFKqP3rlYVHv569MQk/CgZj2bFdKFJYonh+G0aFhru876c8cKLoSIlFa9Y0qF+vCCEsWyf6uCXrAwAvoijKz8/P3d2dEJKfn5+dnU035iBoQw4BcNu/MsT2wreJUkKIIvXE6dK1I3r8GnfW/MO6lQ92fjJzW4aSELbQt8+73679rHLKsgtljfjf3nTRZaUV9gHObEIQpoHasFzdnSUlJRJ8hZs4ZfbOjzAg3CrhX28CykpFMU1cHNkCQphgWrOWwjc7yTP+RQjAGF48aZnpAC1bIwBQ5+vr6+Pz7FvZvHlzQkhWVpZFa2SQBjwQQNB52EAvl8FLdsbExMTE7PlhjLd9zxF9nSlL1klRnn3xaKykTYhPAz5wVk355MbN0i6Dejha9DyBBo3fZtggj/hLSXgiDACgLVlu1flyYt/WYaY3fmAB4EWUjZ2NpMoia7eZi4eHRx0vG52G2wtA2G1Y76dbZr0d9XyxGZb3a2v/N7S/x9E9eRYbic91Dh76Wh9B8tqHmAyggVKkRK+P+/2Tb2bKv/vrSk6FkiVwC2jBzU573KQvS6Aljr1ft3Fz5w/K/vWDc1gjDABAe9Kq745WDh5v+/W7Pv3uVt0uJQG+iAUAWDNOi269HdIu3SlUOLQbOahFyu77TXnMFY/Hq+Nlo9NQQwCUU6+hndMO/Jr1X1Nb+eRkzLWprw/yifkzx4wNcFosemI36btdr3I4LEpZ+fjuv1v+73+Xschcg0UXXfxujnTi25O/++dLFy5RSgrTL2z59sfHjxG1sVK0pDDffvpPMSPkNKWsyr93+fCSWQeSCnE+NH0sv4k/x4x8fkMiT97y7sL9losgAzR6WfH5gyscPo0QDgq278snkipFYnrV7UpLVwsALIISOPpFfPDx/7Ww55PytONrvj2Fybgbj4YaAqCLjy98VWMiFLrk9BcjT5u7JsqcvQsm7jV3qWAIeX7cn9/G/WnpakDDoMze8/HYPZauBZibIm3TW/02WboWYAGKtE1Tplq6Ek0VnXWv5L17GPpvbNVOWmVu9LuvWao2TRSuDEZHl9/euXTWTktXo/H77bff2rdvr8cHk5KS3n//ff0KbaghAAAAAAAAAICmq3379ou//FyPDy5ZtlzvQjGrHQAAAAAAAIBVoFJTU01awJQpU6KiokxaBAAAAEDjFfZ9nqWr0DQlfOxp6So0WbjDhyZvypQpXC6X+btXr14a7166dEn11rlz5/Qu5cKFC3p/NiIiQr8PcqZMmaJ3qdqIiopq3bq1SYuoW3x8fJcuXSxYAXUNqjIARoGz2uhwSKEBwmlpOvHx8RW/97Z0LZomnLem88svv1j2Dr8Jw3lrOjod2ytXrujdxtaJfqUYEjvAQAAAAAAAAAAAq4AQAAAAAAAAAIBVQAgAAAAAAAAAwCogBAAAAAAAAADQsJS1H/V41Jqydq8ad7Mc424OAAAAAAAAAHTy119/NW/eXD2l4293aJlS2WH4hfUfE0IePnz45ptvGl4QQgAAAAAAAAAAllS9ec9q9yorsB/r3tmIiHeMWJCOAwEoh44zNxz6diDfiFUAAAAAAAAAADX2dw547f/I/s5B425W+14AlEPrwW++/cZL7kJBrnHrAAAAAAAAAABE1P9jiUtL/tNM1/M/mGL7OoQAuA7sjO3/t9113t4hpqgJAAAAAAAAgDXase+Yn4stIST019v2tw7Kw169cOGCeobsoqq3RhmhKa59CEApij96ghBuhOGFAgAAAAAAAMAzk0cPZf5Q9v2/spAR/CdpERHvmqIgTAcIAAAAAAAA0CCYqP+/io7TAQIAAAAAAABA44QQAAAAAAAAAIBVQAgAAAAAAAAAwCpgLgAAAAAAAAAAc0tKStKY9l9LiYmJeheqcwhAdmHxMH0qCQAAAAAAAADPvP/+++YvFAMBAAAAAAAAAKwCQgAAAAAAAAAAVgEhAAAAAAAAAACr0MSnAywsLDxy5IhEIuHz+ZauC5FIJKdPn24glQEwCpzVRodDCg0Qc1r6+/u7uLhYui4AAABgECo1NdXUZZSWlpq6iNqcOXNmwYIFliodAACgyfjuu+8GDBhg6VoAAACYyfz585k/evXqpfHWpUuXVG+dO3fOnLUyHGfKlCkmLSAqKqpLly4mLaIONE0TQv7555/AwEBL1UHl/v37r7/+egOpDIBR4Kw2OhxSaICY07J///4W/EFvwuLj43FgTQTH1nRwbE0Hx9Z0cGwZTXwgANOTNiQkJDQ01NJ1ITwer+FUBsAocFYbHQ4pNEDMaYnBKQAAAE0ApgMEAAAAAAAAsAoIAQAAAAAAAABYBYQAAAAAAAAAAKwCQgAAAAAAAAAAVgEhAAAAAAAAAACrgBAAAAAAAAAAgFVACAAAAAAAAADAKiAEAAAAAAAAAGAVEAIAAAAAAAAAsAoIAQAAAAAAAABYBYQAAAAAAAAAAKwCQgAAAAAAAAAAVgEhAAAAAAAAAACrgBAAAAAAAAAAgFVACAAAAAAAAADAKiAEAJYiOzfXl0PVjtth8S05k5UuurgkwpXDZnO8h69NrNS2BOmJWV5swZCNebSp9gFMT/ng5wi+6qxgsTgCBw//jv0nfLjmQHKJ0mjF0KIzC15yELYZv+5aSeM8X5gDxeK0mn2sSGMPlA9/HcBX+0IZE/1063AB2236Eanxt107yYHJjiybUX+UmLNQAAAAgKaAY+kKgNVitx6/7Oc2ZUxjhS69+Ovi6Ix201bM7MJn3me5hTdnE0KUBacWvvr2qbZLzv8xovKPj+aOGU9idn3QwdZyNQezo3hd3/l5VmcOIUppeWFu2o2zhzZ+vHv9j0OWRv+1oKczZeDm6dKr34x953Lvjde+eT1YaJQaWwhFlA+2zvv69es/97e3dF0AAAAAoAFCCAAsheUTMfX9iGcv6FzO/qXRWf6DZ895U6MJJpG6j9t27du2bhxCyOcxNyYnJFVW0cTW0GYfNCZs/4GRM8fx/0v4MefIlxPf+v7zUZNd4/bP9GfruD2lTEpzec8/JS8X9P/t0sJ27o3+gsjtMmZ44YENc7+ZGLuqp52la1MDuVTG5nGb0JdXIZVRPC760wEAAIARBAYGbt26lRCybt26Xbt2magUrW9cWC5hb3614Z+9+w4c3Lt16YQQYRO6h4MGjccti1s7uaufqx2PK3Bs1nXq2ouPpeodwGXZx1dO7dvWy17At/No03fa6tOP1Ps7s9nlNzbO6tva1YbHd/AJG7XoYPZ/byvyL/36/vBOvi62fBsH7+C+k5cdTBc/f5MuvrF1/qtd/d3seFye0L1V+OiPtyc00l7iTQ6vxfCVe38Z61Z49OvlJ8sJIaTin3E2LOEbeyX/ZaraOd6GspmwW0IIUdxb0ZXH77Mm7vjn/f3sBb5zz0gJIUSafWLV9KGDR4x4qbmDc4sOL89ac/aF06fOM6QB4vf8fM1kr3tr53x3vY5q0sU3t388tluAu5DPt3Vu0eHlt384/fDZbivSVvfg8XuvSbj2+9sRrd1seTYuARGzt9+tLL8d9cHLIV72AoGjX49p62+UqX0VKEqavvfTEaHN7Pl8O4+2A2b/Hv/8myLZ/5Yj22Pm/oTNk0LdBfaD1+con9dgTHgrN6FAYO/Rusdrn/19u6zW7xZdlvi/OS+HeAr5fHufjiMXxmRIyAs/Qbr8mxSJS8K4vO6rYi//Mr1PoJstT+Dg0+GVj3emqH2gMmXv4jd6B3naC/h2rv5dRs7bGCd6XjvZxY9acWxGb7+9+71wb1vbzksT5PVdK6RZx1dNH9jex8mGL7D3bN3jtU//TCp9fnwOT3PheMw8nHPh+8k9WrnYcPkOPmGjvjicI3/h33H7zt//N6y9tz2fZ+sWGDFzQ3zpf0er7oNZeW/Xogk9gzzt+VyerYtvp2Hv/XqpwHhDaAAAAMB4hg0bxvwxYsQI05WidQiA4+Qu/Xd55LjRr46bu4fz5mdvBOr62A1AD7JbK18ZOu+Pxx3nrd974uT+jfM75e9c8MqY1befTxOQv392v5GLz9uOWrx5584tXwxWHFk4fOD8k8XPb4CVj/9+Z+Yexze/+/vA3o0fhIqOrJg0+38PlYQQQhcen9d30IcxVQO+iDp27uSu1W+4xa0Y22fynw+VhBD6yV8zhszaktN+7i+7j586Fv3j7LYPNs0YPO2PXNw9NwyU12tzX/elHh+KuSLRIjeXx6XoopOLv7jcbv6vUb9EhnCI8uE/U3u/svi83bgV0SfPHftjyXDq2GfD+s89+qy5V/cZ0hDRUpnD8BXfT3BO/H7Oj0m1DM+vuv7N0L7Tf08NnLUu5szZo9sX9a/cv2B4v/cOP6UJIRSXy6EU2X++//mNnquO3bp3/a+pzvGb3nlz3GvvHPRfsOf6vaRjX7TL3DEv8ge1qQUUN5a/sSSz28cbdh/467uJrkmb3xs+85/HNCHMgSeVaRsXrpeMW75126JBLixSEbd0SN8ZWx91+nDToTOnY36Z3SZ9w+SI0WuTZTXuVP7ed4bN3JDULPLX/aeP7fhqQN6qt769/l/huv6beHwepcjYEvn+meDP91xLSbn65zvNbvw0afj8E0yjXXbv1zG9J6xJ8p2xNubMucNbPu5Z9Pd7A17+6moFYXaIy6WUj6MXLM/s/+XG7SvG+rHqvFYoc3dO6/PKF8fooYt3HDt7es+P05onrZsSMeqnuzJCCKE4XC5ddvWbKUuyB39/PCkj7crGV5UnVrw5e/sj5X//jn9mz9rjOfev2NSMpIMLgtK2zX39/9m767Cosj4O4OfeCbpLUlAwEBBFXZROAQNb7H1t7EJdA0yMtbsDdbFbVzqU1VUxsFlMBAFBkBBmmJn7/oEgIgIiSMz38+jzMLfO4cy5l3t+95xzF//zudZXXJg5QdO7Dl53X2vEmsDLocGnd8zsnH1yqnufDU+FVa5UAAAA8Euw2WwXFxc+nx8fH9+sWTMjI6PaSqiqG/JfhJx8UfRT8o2bryaZNaHJf7iHgFomevffBx2b3gOW7JrRkUsIIfZ2aq+vuu46dvqJj4kpiwjubpp/KLH59OgzqzpLEkJITyeVd8ZjT+y+uNB5qCIhhAieZNnciPE1lyCEEGeLgn8NvK+FXM8f3V9GELdp9q6EppPDL661kSGEkM7Wju3YVu19/dZd77/OirkVHP5B0m3b1hn9i+YdcHS3NjH/67lagQjzaNYTXLMOphxR0LOnaSIX3co2ZrHZRPDkjuKxx5v7qVCEEJIfvmLuibR2S26fnGfCJYSQzrYORjxzx21+u6a4/tGaVUkN4dbuL1ddDK3Rd/XK7qEjV0za2jtsequyF3km5djiNbeEtuvPB0xpxiKEkC62XZRTjQcdXLp3ptuclhShKCJ8l2d1fNP/LCUIIb3+GG+zfWzIbaVj8dOclShCdKbO6LU+aH90TIrIXIcihBBRVry0X1zg1OYsQkhXVyuZVy1Hnt8a+HLgjGY0YbNZ5NONlC63byw05RBCiOj11rmrY2UHHb+8o48qRQghVo6dFVLaePuvuPy/AE/5MhkWvfprw6kU+V6Hj64YpEoRQqzsO0q5tZlQHOX74a+Joigiysj9be9+H3cFQgjRnb8nKbrFhMNbzy11Ga7y4bSfX1ihy7bLh8fq0YQQ0tnOViurTf8NiwO9L4/WogibzSaFd+INQ+6vspchhBDehQquFcKbGxaeSNYZ/fe5NS5yhBDSxcrBRNCpw5KVq6+MPtBDjlAURXivpPtd3DBcnyaEaA9cOuPwwZHRwdfzR/WTIYSiiDA5vd2BiNmOMoQQojndd+ju4A1hoc+EVmYs0esDFRWm1MOQsCS686aNfwzTpgkhxL6rQ1vTnXeaCHmEYEIVAACA+sTS0lJRUTEmJubu3bstWrRwc3P777//aiOharRkKGWLjtoP7zxB+x9qH63Xb+3pv0/O6lhyH8/Vb6bDEmW8/yAihAhfhoXGM02cPDpIfl5NqQ059T4v5fhQ9c/9hNmmfQeYFo8hp1T09eWpwswPOQwRvgwOeiLSduluziooJtR3dWtFvYkIjxcSll6zpuz88M2LT9xNLeohTOt3mzFviluzBj9gvPGQkpVlU0x+fn5Vh2dIWXu6qnyuGoX3r4S8pdt08zAQldQA2tzdSUMYFx6VVnkNqb9onSHrlzqzY5ZM2f38m3zm3wi5lsPu0NtTv6QnF6Xq2r2LROH9qJgPnwuSVuhi3+7zaUMpaGhIEbaZTWeFzyVHqzVRo5mszC893TkWvXuVTMhAqTu6mHMK427ezf+8gLBaeHRvzSn6xGRG/H0jX9aup4Msr7hc+arOHhasjMjQu9/2A/h0+/p9Pqe9s33xF0donW49O3w+WjW/JkrG2t1eoaTANK1sWrDz7956KCC8G3+HZbI79XRX4xcfjidt62Et/emf0Ot5JfurOfcsmWyhomuFMCE8/KVIzbWP7Zf5GTnGHm7N6YxrkQ+Kf1u2SVcX3eI/x5S8lpY8xc/MKOnMTynYun2Z2oHVREeTxWRmZIoqL0yWVjN9ScGt3UsCrifmiYpybu+9YEbvNmj/AwAA1DMeHh6EkJCQkPDwcJFI5OrqyuFwKt2rGn40BEDJmv5vyXCyb8Pf6fW1Jyw0LoLkyM2TPDu30lFVkJGSkpSUNp57o5AQwhBCiCg58Z2I1tDS+H5FppVUlEqtZbHZhIgYESGi5DdJIuHrLU7yUl/IdlwaJxC+S0wWEnZbn8Pbh2k/XDvQQktFq63zoGmrj95890vffAaVYD5mfChkaEUlxSpeyWglzSZSxR+ESW+SRYV3/NrJlqoB8l13JAmFyYnJwkprSH3GMhi10ddaGL5wWsCbry/Vog9JyZ8IV1u3Sekyk9bSUqaEqclpnzemZOVkv6ynaZrQsvIlSyiapinCiEqOTEno6Zc6Hq2mqc4i/Iz3JePVWRpaGsURAtG7xCQB8/HoAOVS5SrdbGokX/j+bdI3YzpEmalpPMLRaKJMlUpAS6N4TsHqfU20ipamZOmPaiqU6MP7DCGTmZiUK+KFTNCTLnU81cEnc0QFyW9L/u6V/oUqvFYIk9++E7K09LRLRw5pTR1NWpT6LrX4cLSCokKp74Nm0Z8vU58/yynIlxp6x2KxCGEYpgqFSTcds/vgRNPk/SOtmqo2aW3bb+KyA1Gv879TKgAAAMH4ZOUAACAASURBVFBXFBUVLS0t8/Pzr1+/np6efvfuXQUFhd9++6020vqh55mUvPmYVTOaXp6/+O+k+n3/C41FbvRcF7f1iS2H+K73t2ulIcehRW8PDvf4M630RiJRRfGo705cSdEUYRuO3n9gVJmJLSi2WksOIUTaZOSBe17LYsOCgsPCwkKOLDy2eXm7GaeCVzurYDbMeiH3evSdQnZT87bKVf1CWKwvDS2KpinC6eBzalMfta/3pyS1WrKqUEPqM3bLCZv/OGa58I+Zx9wCbanSv2B5hcUwTFEP+eqh6XL2LH04FotVajlNaLW+m07PsijzF4hWai5Jyipq65ZZJhR+iT9U62ui6NIhEKboIkLRVNF/SadlV5Y5Sny9Cy3btAlNSFHCNKt0Yt+/VshRn3+JSn+n6qm0MDkGfTf9031+XGRR1s74j9zuv/L3gNA9/XQwngkAAKDecHFxYbPZYWFh+fn5hJCQkBALCwsPD49r1659u3Hz5s3nz5//6dOnSZMmVSOtHwgBcAwH+/s0vTR30cXEcqdsAqhx/JhDh56KTP0O759l+vmGW5BD8krunmktXS1a+OJVYiFpU/KCt+yUpEyhXBPtSpqFLJ2muixRvEi5vaWl1He3oqR1OvQY1aHHqHkkP37PYLtxm3z3j3WYZYTZMOue4L/9G86m0y3HDGjHJp8bnKJSTUPCZGdlV9DSYuk01WYx2ZRGR8tO5V0JRVWqIfUX13T65pknbPx9Zp8Lsi15Dx+trKsjQ2LevEoWEYPiNiCTk5j4gWFbfN01oOqYguTkDwzRLH4w//5dmpBIqmsolHcO0lpNdTjMU76c8W+WVYjd0EpqqhxSmPougyFanzcXJr5MFHz+aqt2IpclKupwUBwhEKUkpYpo9SZqNKWoq6tAiT5J6HSybP5DpVH+tWK6tp42S/j6q2sUESa9fitkaelqs4ojCtVVxcKU0DDrOtys6/BZpPDt2fH2/Q7O2zSu1+rfMKYJAACgvih6F0BoaGjRx6ioqOnTp3fu3FlZWfnDhw8lm1EU1aNHj5EjR27fvn3+/PnVS6vqLwXU7DnFM2XHikto/8OvI/qU94mhVdVViiuqKPn0ukP/CRiBQMgQQlgGTs4t6Iyg46GZxU29j5cnt2vWenhgWmV31nRTF1djVsblQxfTvjQTc69v8J6y+sobIRE8CfT5fdy2e1/6JUsZOtg0Y4s+Zn3/3WXwy/Ben53Wf15Uvt4w/+ntOYQQwlZSVqCEqe9KvnkmLeTvWxVcr9imXV11mOenD1/NKVnGpF9ZMmbmtqtpTKU1pAGQ7DBn8+RW7wNnLrtaqh537mqvILhz+syXaQJE7y6cjuFLdnKxVaxmNwD+rfOXSl6VwbyPDLtfKNG+c3uJ8ralFOzdukgXRB0+9upLKfIf7Z3qvejU03Le7SDdvmMbNj82OPx9yWv54s+cKXkdQfW+JuZT9Lng4pkPiPB5WNhzoVwHSxM2kbB0d1QW3Ak88uBLXoRvjs8Z88fBO+VHlCq8VrCaubgY0RnBJ8O/zJxQcOfMpVdE09HF5Kfb4JUUpujNxcWjf18V/aWGc3Ts7Y05TPbHbIzlAwAAqC8MDQ0NDQ2zsrJu375dtCQvL+/ff/9lsVhOTk4lm9E0PW/ePHd3d29v76CgoGonV+UbEJaRWRv1TroHTkwlhBDC5EauHLMlFuEAqFXcDvZWssciN83dYTDBQjr9wd87N0S3Ht5DYeWlmLPnb+jYWrRsN3n5sCP9A0Z2487xdtETvQjftfavTKNxcwbr0KSS6skymbRqXKDntrFuEq98vDpqUmn3z2/23xWrPs1rGYuw1GXSI/Ztjnrzatbv9q3UuLz3T4K2rf6XNpnf6+fv2+FHCV+G7d+TySaEMIJP6S/vhJw8GflSoNdz/dnNPYvmQSecDi72ynvPbFt0uLOfqy7z9uquBTve6cnTz8p2wi4haTt7Rf+zw7Z5eTALp/U0US5Munls7cojL9osn6RAkcpqSIMg02XBxrFn3LYefkNYJkWLKLV+fn/sCP/D13MI33dkFy0q5VbgqmWX+KY+S3/Xp6v3VJqW10vZ1ndMzqxBHdR48edXz7uYqz1sqpdu+TFmWnfEcp8DzktmuQ98P+9/Nk0lsp4E71ixMYIe7LC4nNcssAyHTuy25n/nZ/SZkjXVvRkr+XrAhkuUiRL9sOiLrdbXxFJTvr+g19SUGb1N5bPuHl6y/DZpNX1yd0WKECVPv0XOoVOW9+z1acF4lxayn15cPbDqz3OZjjvnyZQbIan4WsFpP9V/WGD/A6M85RbN8Gwjn/MsePvSDfGq3ffMcaiBKfkqLkxaVTHvxtFll1688RnnZqopLfyQELV/ZZBQf3S/3+rpGy0AAADEUFEXgPDwcKHwS0w/JCTE1tbWzc3txIkThBA2m+3r6yspKTlt2jQej+fk5FTt9wVUuS1TGO3nZF+9NACqi9YduevIqwnz9s3qHiiSb2rRfeL2M1PMnkpd+3fN3nEjCvbc2NVb3XNn5AWjBf4HVnvv/yCU0+/oseyC/wwXpSo8zaSUXTdEhrZasnzP5gnH3uUSWc1WnfttCPEbbyVPCFHpuS30RNNF60/4j9uUmiPkKmq3+q3PumDfiR1w6/zLMfxb271vEUIIoWiOtLJOq46Dlq6cMrGf6ZfH1pRy3/V/LRLM3TXZ+lC+RBMT59HLDq4K6+r0jM/nE/LtEHNCCK3jdfCasvmiVQH+I3e//0Qr6JrYjt67b8HwthKfD1lRDWkQKHnHxRtGXPDc+/rLMom2PhcjmyxbvGXnxF6+OUROy9hq+PZtvqN/k/v+cb6Pz+MTStV1zZHOV2YuGrrgWQZRNrKauG/dCs/vT5kh3ck3KEp/+dKtB2YMWJYlkFI36uC29OKiaa7q5Y4c0B6273LubJ8NgbOH7KRVWtn/vvzY9GvdnB7weXyGEKo6XxOl2GP9vmYn/5jdf+bLHLZ6a8c5x9YvKnqnIOG0mnjmmuaqxesDFwxZl8GXUDEwd5p13G9OH4PyIwpUxdcKSt1zZ9SlVn4rDiwauj2Dz1UxaO+y4IyfTw/9mokjVViY0tbLr1xUW7T68IbJ+9995LPlmhh2cFl8zm+GS4OpwgAAAI0cm812cXEhhPTp06dPnz5l1hoZGRkaGj5//nz+/PksFmv+/PmFhYXq6upTpkyZNWtW9VKkLC0tfzbXFQoICDAyMqrVJCrw4MEDMzOzuLg4U1PTuspD/cwMQI1Ara5xKNJaJny2qovpgqzpMY9WlTsHBJQH1bJWxcbGWlhY1HUuGieUbe1B2dYelG3t+dGytbW1LfrBysqqzKqYmJiSVZGRkT+TK2tra39//++t5fP53t7ednZ2lpaWkyZNKigooGl67dq1t2/fPnLkSPVSxA0QAAAAAAAAQB3w8PAghAQEBOzZs6fMqg4dOqirqxsYGLi7u48dO7agoIAQMnjwYDabHRgYWO0UEQIAAAAAAAAA+NUUFRWLeuWHhYV9u/b27dutWrVas2bNzJkzMzIyCCEuLi6enp7e3t4VvxW9YggBAAAAAAAAAPxqLi4ubDY7ISHh5cuX365VVlZetmzZmjVrnj17RghxcnLy9vaePn16enr6zySKEAAAAIgPVss5//Ln1HUuAAAAAAhxd3cXiUSnT58us1ytRYfmtn2U9Frve8bK0e7ClrzVw911yJAhM2bMeP36dbmHqjqEAAAAAAAAAAB+tZEjR3670MhpsE47x6dBB+8ErmRxpVo6D3Ueu7iXhdqkSZNSUlJ+PtHyX9sMAAAAAAAAAL+SlpltC6fBr65fTHt6k5+XnZ+ZGh/+l1BOc8SIETXS/ifoBQAAAAAAAABQ52TVdVt4jN1z9Fwr3dZOfwxKT7j7Lu4azeHy8j7WYCoIAQAAAAAAAADUsXYDfY79HfVaqPr6Ffn3eXjvLq3bD57Ly82KPeJfg6kgBAAAAAAAAABQx4T8gpEDPUt+zkl9/TTowOsblwW8TzWYCkIAAAAAAAAAAHXsn52zf0EqmA4QAAAAAAAAQCwgBAAAAAAAAAAgFhACAAAAAAAAABALCAEAAAAAAAAAiAWEAAAAAAAAAADEQiN/IwCPxyOEPH78mM/n13VeSEJCQv3JDECNQK2ucShSqIeKqmXRn1QAAABo0Kj4+PjaTiM7O7u2k/ie8PDw2bN/xZsVAAAAGrfVq1c7OjrWdS4AAAB+kenTpxf9YGVlVWZVTExMyarIyMhfmaufxx4+fHitJhAQEGBhYVGrSVSAYRhCyNGjRw0NDesqDyUSEhK8vLzqSWYAagRqdY1DkUI9VFQtHRwc6vAPeiMWGxuLgq0lKNvag7KtPSjb2oOyLdLIBwJISEgQQoyNjU1NTes6L4TL5dafzADUCNTqGocihXqoqFoW/UkFAACABg3TAQIAAAAAAACIBYQAAAAAAAAAAMQCQgAAAAAAAAAAYgEhAAAAAAAAAACxgBAAAAAAAAAAgFhACAAAAAAAAABALCAEAAAAAAAAACAWEAIAAAAAAAAAEAsIAQAAAAAAAACIBYQAAAAAAAAAAMQCQgAAAAAAAAAAYgEhAAAAAAAAAACxgBAAAAAAAAAAgFhACAAAAAAAAABALCAEULnCpNDl3Q2kaIkua5+L6joztUP0aqOtBEXRMs7b3pTzKxbGzm/DoSiW5rgQ/k+nlftXbylabvAZXvmrC6On6rMlbDe++sVF/YvTLfxnpiG7uEbxLgxXpKV6BmT9kqQbpYpOUlH6je2T3NvqKklLyqgYdOozN/BRDlO87tVGWwm2/tTowl+dY6h9YnDpBgAAgAZsq69T5KGBpf/tXtZVX1uhttNl13YCDVzek8A/Rk7Z+Z+UWuMvKUqCK7wWEPjfuDktWV+t4F0/FBhPcznMd3asUbSO/cgpHKV28tSvSO0H0hU9X2vd9mSfe9dmGbK+swnUiYpP0rzrvl1dVsQ37T1lyQxjucy7xzZtHGZ/L+vaRe+Wjf+cFmPidOkGAACAhqmNkar9sGOll7ha62+c73Do3OOTQfG1ly56AVRE+GDt4NFn5CZeuHVooEajLyqOibWlzJ1Dh+4Lvl6eFx5wPNnYsqPcL8kFq1lv33VrJtsq/+IQQAXpCviFDGGyrl+Nw6Pi+qfik1T0ct+89ffl+u8JP7F88oghv09bcyF4lU1BqN+S85m/JKQFdUK8Lt0AAADQWARfezV5aZiHXbOlU63lZbi1lEqVb45oFcuxa/YfO3n2wuWzAcuHtP3VD2nrBKVktyjszpVFrjqcus7Kr8C16uYi9+yvg/8UlFrIZP4dcDajdQ9XXWHpbQvfBK38n5OJtqIUhyulpGfuPmnXra/aVJ+enVowwNJQTUZCQk7TxNV7+430Ul1xWSwqLXrNEEt9RUmupFLT3watinpftPdXHfJ5l35XZquPvpQYvWZY52bKUhwJeW1zzwWXEr9EKYRpMVsnerTTU5aWkJLXbG03bOmF56XzX0z0ZqujNEup39EPpXMpuLPAhMPWnxRR8HW654YqsNRHn7u3Z4ipmqScy5q17lIqw87l8W/4GLFpxeEXeII7C0043PbLHn4pFcF9PzMOx3xxXHHmmKy7B2f17tRMVVZSUk7dqHO/uYEPc6rS7qz2juKowpNUlHT5zHWeZu8xvTSKL1js5kNHOUll/H0yPLdkMxZblHjZr7e5tpwEV1rV0Hb0jthslHdDJmaXbgAAAGg83rzLmbg4NC+ff35H7zLDBEr+bV7g+DNJVLmPpCjzydlV3rvfFzBsdVffXZN7XR0bUN6w8UaF1rHz1CGEEGFlWzYGjEDSbkA35VMnDoYvt/WQ/bww7XzA5Vzzef2N7q7/0ijKi5rt0nNTRocJS/avN1YsTIze4bvc2+0l6+6FUXo0IUT4cp+X3dhwpV6zVsxqr1rw7Oy65ZOcb6dFRvt1kCKEEIpO2DJ4moLTlM0ntEUvLv65YMu8geyWTwN6KX4dWaLYHA6Tc2PZ8Jcd/7cmaGUzTmrUqt//t2LwOIPHF0dp04T5EDTVrtfOj5ZTFgVsNFXMfx6+a+mKPjZxB24eG6LzdXiL1u0z2G5OVOiJK5kDBxc/6i+8e+LUM9J8xjBrSXK9dLocLod8+m/XH3el+vrva9XUzMqwq/riXiMDlaac2j/CQNWASxIqK868m0u6Oi/9r9WoRbtXd1AXvL1+eMWyYba30mKuTG1dYbOk2juKpwpPUsHje48K2e3am5aKoVLyZu2a05fi7iUI+rYrqiSFt5d6XdXuO3v3BJVPj44t99032Uve5OE6a4lf8QtALRCvSzcAAAA0Lvk8wcpdN1fuuvm9DSIPDfyZ41d9mKToY9p7QgihubJyknlJb/FUsvGh5F1/768d+NeBS3+6D1SmCCGixJMHQwu7/DnIiHXnyxcufJWQ29JhWI9NG8a0YBFCiIOV5GP9gecCL6eMHK9FkbywlX6XszquiDrqUzTeuqcV96XZ/AN7o3w6uBFCiCjrMTXo7vEJzViEEOLY/P3V9n6RoXcFvRzKtHEpiiK8V9L9Lm4Yrk8TQrQHLp1x+ODI6ODr+aP6yQjiNs3eldB0cvjFtTYyhBDS2dqxHduqva/fuuv911l93XWGatJrqMus4NCTf38YNESFIoSQwtvHT/1H2iwcYsEhX1dnNptFPt1I6XL7xkLToiwVGqlLECKt1bptW0MWIWUGS3xD9PrA3NWxsoOOX97RR5UihBArx84KKW28/Vdc/l+Ap3zN7wjl+JSaks1IqqkrlA4tsdQ01Fiie8mpos/doIRJ8Wpr7h8coE4RQlzs1V6EO20PD3smtDbDrA8AAAAA0Mj80ExJtH7fFatGW6p9uOQ3NRIjaRsjKZsRgwx3bjl4+t2A0VoUEf4XGPAPx3lnf13W1VJbsdqM2n1+VOn9ZPQNNFiijPcfRESLVfggJPwd3XqMm2Fx9aINpkblTC36OZcQQrhdvPobFLevWE0N9FhMfEZm+b1K2CZdXXSLH+lT8lpa8hQ/MyOHIZIvg4OeiLTHdTdnFRQUd/7Xd3Vr5bcyIjxeaGXydQOOUu021EPp/KUTf2cMHqpKEcK/cfz0C3bHlYPbsAkpO8yfIqwWHt2r+9idyYz4+0a+rGdPB1leSdZUnT0sWKGRoXcLPe2qvSP6AfwApiCfx1BcCe7XnUu4ElzCFBQUFF/CKAXnQT3Ui7fh6DXTZTFvMjJFhCAEAAAAAAC1Sl1Fes8yV3nZH+t/WtQR4M6j1BkrI380xR8KAYhenZoz8Jxia8/Zi9aMyRy38+F33usGDRen/bBh5uuWHjz2cuT0ZqK4I4fvynYL9FQrO/NDwYtLG/y3nIq6/zz1Y36hkGEYYaGQMmMYQggRJie+E9FWmt+fhotiKymXmk2CxWYTIhJ9J6hEKygqlDoSzaIJETEiQkTJb5JEwsQtTvJbyu6ikZgsJCZlG3CKXQf3UDt+6sTl9CHD1aiCf46fec21njmwefkNPZaGlkZ1m4Cid4lJAubj0QHKR8uuknybxCPke6d4pTsiBPADKEkpSYrh8/hfVy1eAY9QUlKSxTWQlldWKnUlZLPZhDAMYpwAAAAAUOvaG2tIZ6bkXfnyxFVu5vUKti9RcGHk69Tq9BH+8fclCbKenNl2vuuGrsZ7H96trDs0NDisVoOHd1k2M+Dwo8lzsw/99Uyt959uihQpHe1h0s+Ot+9/6FOHcYu3r+vcXFWaTQkfru/ptb9kC4oQwogqmCqiZiaTpGiKsA1H7z8wqsx7+ii2Wsvy2sqyTkN6ax06fOLy+2Ej5K4dO/tW2mlRX53vRSpYrOo/BKYomtBqfTednmVR5hyjlZpLEvLd9mVlO8KPkNbUUqQKUlOyGFIyHyARpianCGlNHU3MFA8AAAAAdczESEWUkVZmoa2tbcV7RUdHs9Q07ke9qUaK1Xtlskgo5LA54vBOADFENx3wu/OCMSdPxlpmnHyjO2CEg0yZLT4GHTz5lmW/5eSWCdqfW1H5r4R5DPkchGJp6WrRwjevEoWkSXEF42cmvcumFbU0FWoupyydprosUbxIub2lpVTVdpGyGdKv6Z7dJy+/76d5/Pw7Bfe1nurVq8c0RRNGJCzVdYH5mJXNEMWitVpNdTjMU76c8W+W5b7e8HuvF6x0R/gRHJP2ZhK7H9y+xxvbtTh+wmTE3nohUhrQwZBNSGOf0RQAAAAA6rc2RqqiZ8/KXSUpwR7mabz7eFy5a2lltfvPYquRYpWfg7E0jFqpcSlCKElt22Hd1W9ee4wuAI0Tpe45opvCswvLN15MazF4mGXZPutMQV6egHDVNBSLa0/hf/vXn3kvYoQCIUMI4Zi5OGoyz8+fvJ1fvMu7Q0NbNzOfGpRXkxmlm7q4GrMyLh+6mPalIZ57fYP3lNVX3nxnJnCJ3wYNNOJdvXTpwsmLaWqewz2UqtrOpgghRCj4XOtpRRVFWpSanFKSDu9+UHhS8SdKwd6ti3RB1OFjr75khP9o71TvRaeeVjR+pto7QnkojW797WXTzuw4kVTc2Ofd37kzkq/de5B92dAWAAAAAMAvJSvN0dOQFmZlfrtKgsua5qbRx9Xoe/u+yeBlfizvbeiVqWovAErO0G3qFFd9eTYjyH5x7cgfG/7JbfRjZUVpN09ejMsWESJ8/jCbEZF/j+/do0YRimvoMtRer9F2I6YU3X/vq+6x629WxxVD235TRSi1LnYm3LDLq+YGKA9rSSXdPrNl+9POv9tFrb8Zfiqkh9xvHZo7zlnscXbs+v49BHNGdVH/9OTilrVBovYLfXoofp4OsGawTCatGhfouW2sm8QrH6+OmlTa/fOb/XfFqk/zWva9Pvyc9oO8jNeu9/flpmv3H+YkW9W0aBV1VVrw4My2gBb2WkaOrq3tnVqzY06tXNVHd5S5fPbDM/5+UdJN2cVjyGndEct9DjgvmeU+8P28/9k0lch6ErxjxcYIerDDYm6F6VR3RzFV2UmqPdT/jwP288c79n44oZexdOqNQ5v23FPvd2iBS5W/emhwxPXSDQAAAA1NGyNVkplBypuFanivNnauRievxH9v37hn76uXaFVDAExWzGbvmM3VS6ShEj4/MX/smoSSp7HvT8wbe4IQQskPPTvQXq8RvzRc2n6EV7O9W3WGDzIqpynNMpl5eF/KpMVHx7nuoJWNOvedefjE75pRHyNH7l3/+xj+8Vur7AxGHo2S91+4JnDRqM3ZtLJh54Ebty3z7ljF7vpVRim7bogMbbVk+Z7NE469yyWymq0699sQ4jfe6vsTY7CMvQa3Wz7331yj2cOsqz64ntV86PwJp8fs2jV1YpD78iAX07azDu9MmbJic2+zpYyCwW99Z208aL+wzfiX/M99/KU7+QZF6S9fuvXAjAHLsgRS6kYd3JZeXDTNtbKRB9XeUSxVepJKms+5EK62eOHmI74T3gtkdM1dfc8s9+mui2ZgIya+l24AAABoWIwNVYQfym/J7z4eV2YIQAunwTSb+zToQNHHe4/LziBQRZSlpWX19qyigIAAI6Pv9l6obQ8ePDAzM4uLizM1Na2rPNTPzADUCNTqGocihXoI1bJWxcbGWlhY1HUuGieUbe1B2dYelG3t+dGyLZmTz8rKqsyqmJiYklWRkZHVy0/koYF3HqUaZz0SvksuvVxu5vWipJUNTD68fFi0sIXTYG0LF0JIUmxIfNhf0dHRfTy7pmfmf3vYSlVvOkAAAAAAAAAAqL5WzZVFQenlrmrhNNjIafDzqJNPgw60cBqs08F1b0iciKFHOTvTbC4hpHrtf4IQAAAAAAAAAMCvJ5GfXVDI/3Z50TP/wAuhnjZ2SnqtJJU09oY8SOVJEEL2hT0e5Wz3M4liQCwAAAAAAADAryZKflvucm0Ll72hjx5nS7148VxSSWNv6KNU3uepwdN4nL2hj34mUfQCAAAAAAAAAPjVOG3actq0/Xb53tBHaTxOr+ZMs2bNi34uvbbMxx+FEAAAAAAAAADAL2U/7Fi5y6OjJ6bxOL2aMcatW+0NiUvj1fDrjBACAAAAAAAAAKgv+Nvdi35Y1K1ZjR8cIQAAAAAAAACAeqHkZYS1BNMBAgAAAAAAAIgFhAAAAAAAAAAAxAJCAAAAAAAAAABiASEAAAAAAAAAALGAEAAAAAAAAACAWEAIAAAAAAAAAEAsIAQAAAAAAAAAIBbYdZ2B2sXj8Qghjx8/5vP5dZ0XkpCQUH8yA1AjUKtrHIoU6qGialn0JxUAAAAaNCo+Pr6208jOzq7tJL4nPDx89uzZdZU6AABAo7F69WpHR8e6zgUAAMAvMn369KIfrKysyqyKiYkpWRUZGfkrc/Xz2MOHD6/VBAICAiwsLGo1iQowDEMIOXr0qKGhYV3loURCQoKXl1c9yQxAjUCtrnEoUqiHiqqlg4NDHf5Bb8RiY2NRsLUEZVt7ULa1B2Vbe1C2RRr5QAAJCQlCiLGxsampaV3nhXC53PqTGYAagVpd41CkUA8VVcuiP6kAAADQoGE6QAAAAAAAAACxgBAAAAAAAAAAgFhACAAAAAAAAABALCAEAAAAAAAAACAWEAIAAAAAAAAAEAsIAQAAAAAAAACIBYQAAAAAAAAAAMQCQgAAAAAAAAAAYgEhAAAAAAAAAACxgBAAAAAAAAAAgFhACAAAAAAAAABALCAEAAAAAAAAACAWEAIAAAAAAAAAEAvsus4AAAAAAAAAgLjjcDg2NjY2NjYtWrRQVVUlhKSnp8fHx0dHR1+7dq2wsLBGUkEIAAAAAAAAAKAu2dnZeXt7JyUlRURE7Nu3Lz09nRCipqbWtm3bHj16jBs3btu2bdHR0T+fEAYCVIzJvLN/Vu9OBqrSXK60ir5Fj6m7b2aI6jpXYkP0coONBC3lvD3p6zL/eGKgIs1SG3E+7+vNE9Z04dIy7ntSmEoOXPjPTEO2RJe1z/FdNnyClOgt2xsTqgAAIABJREFUE9zNdRUluRKy6oaW/eYeicsuVQNE6Te2T3Jvq6skLSmjYtCpz9zARznFq0WvNtpKsPWnRtdMSBXqjcpqBQAAAEC9QdP0hAkTxo4du2LFipkzZ168eDExMTE/Pz8/P//NmzcXLlyYMWPGypUrx48f7+3tTdM/24RHCKAiOTELnO1Gb4mV9fDZsGfP+pmuUre3jXPyWHGXV9c5ExO0XlcPMzbv36CIzNI37/n/XInKYUSZEcE3S38TTGpY8F0Bt6OHizr1q3MKdYRJu+Bt4zL18JvmQxZv27tr9SRrUdSa4faeGx9/btTnXfft6jzp4Buj4Uu27926sK/KvY3D7PvveCao23xDbaq0VgAAAADUI+PHj2/duvX48ePv37//vW3u3bs3btw4Y2PjcePG/WRyPz4QQMJo6IYtg9749lrxbyO/mxIlHvJbf4+yWx8ePMWQTQghw4fZyLRz3LRle9SsXa4SdZ0/ccAycnNr4Xvn6pWreUN7yX5eyL91JTxTv0tn3u3Q4DiBQ8fPlZj5GBnyL4/d1qOrDiJb4kL4cMfCgy/Vh52K3u+pQhFCyPAhHTmmPfav3/HPxE12HNHLffPW35frfyQ8cKAGRQgZMrS7nku7GX5Lznsd7qOEUFGjVFmtqOv8AQAAAHxhZ2dnZWU1fvz4nJycirfMycmZP3/+jh07Hjx4cO3atWqn+INtJUrRavrsDrwkYbUTbEhYbYevXLVp+dDmJYES6Y5W5lwm8+3bHPQo/TXYJh5u+lRWZNCNkuf9gofBYUmynceP6SL5MiTkv5K6mB8THJ3Lau3u1oxFCCGEybp7cFbvTs1UZSUl5dSNOvebG/jw6++NZj5c3/S7VTNlKa6kol6Hfn6X3jTysFajw0h3GrPcf52Ph0pxa55S6GJrzhGmJSbxCBElXT5znafZe0wvjeL17OZDRzlJZfx9Mjy35Cgstijxsl9vc205Ca60qqHt6B2x6DPegFVSKwAAAADqCw6H4+3tvXbt2u+1/4XSSrlGjukOs9LcFhNCsrOzV61aNXnyZA6n+k81figEQCnbTxnBClhx/q1YjKCmtayGT5n1e2flL48Khc+fJRTSmi2MFPD48BfhtPdw1aRSQoPufm6dC1+Ehv7H7mTv7GjbnnoYHFo8TQD/dnDEB7qZm4cxmxBC8m4u6Wo3al9Su2m7L4aHndkyruXzHcNse2168qWRL0o9NmHMaTmvlUfOnt4zq2P2paX9PJfeQhOhIWE3d5voM7t/m1KXQN7ThwkCdtOWhpKECB7fe1TIbtPelPtlPSVv1q45nRN3L6FkLEDh7aVei15azt59+vxf/j3l7u2b7LUoBhWhwaqkVgAAAADUFzY2NklJSXfu3CmzvFBBK6ela7rDrFS3pdlmffnKBjTvc4zg/v37ycnJVlZW1U70BwYCUAo23oMFAbOufWjvUu30GjR+/C6fDfelbNdN6IKupL+MhKWHi8qOw6HBT4WWpiwiSgkLvk/Ml9pr6PCc2ohWBoVnTPpdjSKChyFhSUTb28OcTQgRvT4wd3Ws7KDjl3f0UaUIIcTKsbNCShtv/xWX/xfgKU8IIUTw8r3F5bDNrvKEENLVpXl2W9u1u3eG/9HRXarufl2oHkFuWuqH3MzXt86sm7/ptdHIv6Z2YBOSlZqSzUiqqX8VsmOpaaixRPeSU0WfY6DCpHi1NfcPDlCnCCEu9movwp22h4c9E1qbserml4EaUn6tAAAAAKgvbGxswsPDyyzMM7TPNuvLUF89rZd8+yVMEBERYWNjExkZWb1Eq94LQKLN0CGyZ3b/81FMO8h+erJvuPv0cIXBuw9MbIGWwS8kbdPNUUHwODj0tYgQJisi6F+hkZOjPs1q4ezYlBcTFJVDCBG+DAuNF6m5eHTiEkKYzIi/b+TL2vV0kOUVfMZXdfawYGVEhhZ3JyC0mmsfO/niZCQsXOxVSUbs7efiMcylcREmbOlu0LS5qe2gVXEtfE6HbvPUpAlhCvJ5DMWV4H7daYcrwSVMQUFB8aWMUnAe1KNkCkmOXjNdFpOZkSkWfZ0atfJrBQAAAEC90aJFi7i4uNJLChW0ss36clMea1xeoPH3Aol3DwkhhGGkku6WbHPv3r1WrVpVO9Gq3hDRaq7Dze8GhLwXy9tiQeLFmY5WY68ojTsRuW+AHgIAv5acfTdb2cI7QWFpDPl0LfhagaajswmbEI65i6NabmTw9QLCpIWH3BMqOXWzkiKEENG7xCQB8/HoAGWpL6SbTY3kC9+/LRkNzNLW1y31TJBWb6JOizLS8NLHBojW6b/u7PnTR/f+Od7szaYebW3nh2cwhJKUkqQYPo//ddySV8AjlJSUZHGjn5ZXVipVEdhsNiEMI6axzsak/FoBAAAAUG+oqqqmp6eXXlLQxIShaMW7gaz8TNanTMW7gYQQbuYr1qfMkm3ev3+vqqpa7USr2itS2rStvnyLmds7EEIoeR1l2RZbPm2euTEmt9I9G7zcuxu9eviESfXeErVnXFs5TALwy1HKTh6dJc9fD4nOGa4REvVRycG1I5cQQiQtXWxl90WG3Sv87VXov3xZ5252n98aQFE0odX6bjo9y6JMFaeVmksSUtQOYLG+DYFR+IIbIkq2ubVHc0IIGfi/Me6T2nddNX5l90d/WmhqKVIFqSlZDCmZD5AIU5NThLSmDp4IN3bfqRWdMY4LAAAA6i2elhkhhGKKn0pSFCFEMvmrngI0TYtE1X9sWdUQQG74sgHFgxQ4DktOWF6atLGxvxSQEEI+3d/Y333Wv81nXzqz1FEdTYa6QWm4enTght24euuB6tV3UtauVp8H68vZuHTmnrl69ek/8VdzJa08HBWL2nm0VlMdDvOUL2f8m6VyeW36QkIIEb17myIiLYs7dYjSUtJEtI4mvuaGQ5R28+TZmwXGA4Zal3xtlHynLiacbVeexOcylibtzSR2P7h9jze2a/E8cExG7K0XIqUBHQzZhKDHRyNUWa3ojJdBAgAAQD2Rnp6uqqqamJhY9FEorcRX0ieEZHUYphD7F6HIx/aDKUYkWTQcoJiqquqHDx+qnShaOxVgMv6e3tcnWmvm2UvL0P6vS7RuVw8zOiXm7OGrz1i/udoVz+5GqTk4tyMPIvZd/CeD81s3V7Xi5Qr2bl2kC6IOH3v1ZWA//9Heqd6LTj0tmeld+C74/L/5xZ94d8Oi0qkmnX5rhoEeDQYlfHBg5pRxM3Y9KChZxmRGhd8pZGk005ehKI1u/e1l087sOFH84gjCu79zZyRfu/cge5m6yTPUtspqRR1mDQAAAOAr8fHxbdu2LfmYr92u6LF/gYZxqseyVPdlPPVW8vdPsrOTS+/Vtm3bJ0+eVDvR6kyPXBjh2yui2ik2HPzba332v5TqNEk3/uTe+FIrKKlWboOstRET+HVYhm5urRb6H9grIWrr59ikpOhpPSenlnPX7j2UT7X73VXry3LdEct9DjgvmeU+8P28/9k0lch6ErxjxcYIerDDYi4hhDCEIWxd6ahJ/edP9XY1lEy7scd3U7xEJ39vG4m6+AWhWihNL98ZO68tW+xiFz92kK2RojDtYdDB3eeSlJy3TLLiEkK0h/r/ccB+/njH3g8n9DKWTr1xaNOee+r9Di1wka3rzEMtqbxWAAAAANQP0dHRPXr0uHjxYtHHAp32n1cwDDfzlWRynOS7h2Xa/4QQBweHc+fOVTtRvCHpu5jcR/cTCkW8mE2TYr5eQ6uNvtzfWhu3kr8Qu42Hm4H/n//xjZ2dSz+mZxu7OGkv3/CKZe7u9tXje+lOvkFR+suXbj0wY8CyLIGUulEHt6UXF01zLZr5nc/jE5bZpCPzcvx9JvW68zZfUsvMc+m5dbNMME64QZGxXBRy1WjVip2n9/oee59Py2o0b9/Tb8mCmX1aFF3cJM3nXAhXW7xw8xHfCe8FMrrmrr5nlvt010UErxGrtFYAAAAA1AtXr14dO3ashYVFbGwsIUTEkeZ+eCn59o5U0t3S8/+VZm5urqmpGRMTU+7aqsD90HdRyr9fKvi9rnMBn3EsV8cLVpez3Hr9S8H68vagFNuN+PP0iD/LPZrDlkTBFkIIIQf/mVaD2YRfjlJoO9T/6FD/72+g1H7UhkujNpS3jtafGs2b+vUi3UkRvEk1m0f41SqtFQAAAAD1gEAg2L59+8yZM8eNG5eTk6MevKTi7eXl5efMmbNly5bCwurPy4dHYQAAAAAAAAB1IDo6+urVq/7+/vLy8hVvKS8vv3z58qioqGvXrv1MiggBAAAAAAAAANSNnTt3Pn78eMeOHe3atfveNu3bt9+5c+ejR4927dr1k8lhIAAAAAAAAABA3RCJRNu3b3/w4MHs2bNTUlIiIiLu37+flpZGCFFXV2/btq2Dg0OTJk22bt36k8//iyAEAAAAAAAAAFCXrl27duPGDWtraxsbmwEDBqipqRFC3r9//+zZs3Pnzl27dk0gENRIQggBAAAAAAAAANQxgUAQGRkZGRlZq6lgLgAAAAAAAAAAsYAQAAAAAAAAAIBYQAgAAAAAAAAAQCwgBAAAAAAAAAAgFhACAAAAAAAAABALCAEAAAAAAAAAiAWEAAAAAAAAAADEAkIAAAAAAAAAAGIBIQAAAAAAAAAAscCu6wzULh6PRwh5/Pgxn8+v67yQhISE+pMZgBqBWl3jUKRQDxVVy6I/qVCz5Ga/JESZHHtZ1xlprJRzLOo6CwAA9Qw7zuzP2k4jNja2tpP4noiICEKIl5dXXWXgW/UqMwA1ArW6xqFIoR6KiIigKKquc9H4KNd1Bhq5OrwLbfRQtrUHZVt7ULaEEDatoF2rCZivScrbaV2rSVSAYRhCyNGjRw0NDesqDyUSEhK8vLzqSWYAagRqdY1DkUI9VFQtHRwcLCzwRLWm4fl/LUOlrSWxsbEo21qCsq09KNsijXwggISEBCHE2NjY1NS0rvNCuFxu/ckMQI1Ara5xKFKoh4qqZdGfVKglOasN6joLjYrcbMRWAADKh+kAAQAAAAAAAMQCQgAAAAAAAAAAYgEhAAAAAAAAAACxgBAAAAAAAAAAgFhACAAAAAAAAABALCAEAAAAAAAAACAWEAIAAAAAAAAAEAsIAQAAAAAAAACIBYQAAAAAAAAAAMQCQgAAAAAAAAAAYgEhAAAAAAAAAACxwK7rDAAAAAAAAABAMZqdY9ztk15HEVdGMjlO8c5flIBXY8euqQMBAAAAAAAAwE/KNvEsUG+lFrZK7llwvm6HPAPrGjw4QgAAAAAAAAAA9YJQSjHP0EHm5VWalyOUVCCEsHjZNXh8DAQAAAAAAAAAqBd4TdowFMXKSSOEyCREcFMfS717UIPHRy+AiglSordMcDfXVZTkSsiqG1r2m3skLpup61w1BszHhyeWjnLvYKghL8Vhc6UUNY06eYxdeTEhv5bSS9/nIclSHXmZXzvHhzpT2UkqSr+xfZJ7W10laUkZFYNOfeYGPsopXi16tdFWgq0/NbqwTrIOtQaXbgAAAGioeKqGhBAWL4cQws5JlUqOI0xN3sagF0AFmLQL3jb99qUa9pqweEobxYKXEQc2rxlu/+/7a8HTjDl1nbuGjMmOmmvXbc0TxS5DRs6fZKwtR396n3Dz/IH98zzPhG+6emliqzouXibjYE+D5a2DH622xBddr1V6kuZd9+3qsiK+ae8pS2YYy2XePbZp4zD7e1nXLnq3xNWvscKlGwAAABoknnqrbOPuAuWmhJAMm8lEKFSN2czKTa/ZVKp+E0y1ddWKdOZ+3kFUuGFr0sLERv1QRfhwx8KDL9WHnYre76lCEULI8CEdOaY99q/f8c/ETXa4kaw2JvX4yi1xxH7T1eBJBqzipcPGeXf37tht9+JlF4ce7q3wY4cUFfIZDpdV+YZVw7t19VYBaV1Th4PaUtlJKnq5b976+3L9j4QHDtSgCCFDhnbXc2k3w2/Jea/DfZSoOs4+1ApcugEAAKBhYme/U7x/4r39DLogR/n6LkIInfehxlP5gYEAMpI0KSjYfTFj7oWMuRezLmc26vY/IYSR7jRmuf86Hw+V4oYCpdDF1pwjTEtMqrFXMoglYWpiEp9Wat1G56s2O6Xkujrqv+SXB7+0/z89O+03yLqFhpykhIyKgUWPqbtuZnyud8KnKzpyJWzW3Qya59BUTlLPe623Hptj6ntXUOqQTMZffRVZ0s7bEkXfZCItZutEj3Z6ytISUvKare2GLb3wvIAQQngXhitKu+9NLfzvz85cStJjXzpDCP/1Ff/h9sZaCpIcjpSidhvH/60KTkTn8TpXyUkqSrp85jpPs/eYXhrF69nNh45yksr4+2R4bslRWGxR4mW/3ubachJcaVVD29E7YtFnvAHDpRsAAAAaJlbBR5qXS2g2J+cdJ/MNJ/MNxXzTjPlpPxACUJCmSQ7vyLXsrVezt17LvZ5b+S4NG7u520Sf2f3blHpmxHv6MEHAbtrSULLustUIsA0s2qkwycf9V0UmfzU0n5LXNtCQKY4LFD7d2tt6wLoHeqM2nQmPvLR3VpfMwAmOrr438gghhOJwORSTGeK34J8207cGbBkzYHB/febp6VNxX2IATPqlYyE5Mk5D++p8XdOZD0FT7Zynncl3XBBwJTLkxJ+DVG+u6GMz7MhbEeHaLYs6O82UzdIbEXDr7s0tvZQo/q3F3Tz9IiR7LQ24GBp6ft9CD3bowp4efjcKarmkoBKVnKSCx/ceFbLbtDflfllPyZu1a07nxN1LKKkohbeXei16aTl79+nzf/n3lLu3b7LXohi0FRssXLoBAACgwRLINyGEsHNSay+JKg8EoGgNWYqWlprZR+Vxcv6pu5+e1NK0bfWQIDct9UNu5utbZ9bN3/TaaORfUztgFPFPke++fPuYuyN2LXQ02Niys72DjbWVtbWtVTtd2S8tdSbjtJ9fWKHLtsuHx+rRhBDS2c5WK6tN/w2LA70vj9YiLDabCJ7cUTz2eHM/FYoQIuAMbLlp9ZlT9xe1t2ATQgiTdvF4eJ6ixzBPdYpklEpfELdp9q6EppPDL661kSGEkM7Wju3YVu19/dZd77/OSs+klaY0RQrUjdqam3EIEcZHhMaLjOetWjKqLZsQQuxcXC3abIjksD4xRBKdyeuD8k/SrNSUbEZSTV2h9JfEUtNQY4nuJaeKPsdAhUnxamvuHxygThFCXOzVXoQ7bQ8Peya0NquxkSVQJ3DpBgAAgIamUK4JIYRTOgRA0UJJeVZ+FiGEoWiGLUkIoRghJajmI6sf6AXw7kXukXiBop7MNE+Nq1NUPWSrl2LDI0zY0t2gaXNT20Gr4lr4nA7d5qmJFyn8JFqn945bT64eXDzSWvld5H7/6UPdOjRV1TTvNWvfzfSizi68G3+HZbI79XRX4xd8xpO29bCW/vRP6PW84gNJWXu6Fvf2ZZsP8jKh4k+f/DwWgHl3/lhEvrrncI8yY76FL4ODnoi0Xbqbs4oPXSDUd3VrRb2JCI8XfptbNQN9OdHTv1buCH+eXbRatuPvC3yGdFRG+79+KP8kZQryeQzFleB+/TVxJbiEKSgoKO7rTyk4D+qhXrwNR6+ZLovJzMis+U5X8Gvh0g0AAAANjkCuqBdAStHHnJauqd1XpLkvK1QxIIQIFbTSPJal9Pwzw2ZKtZOo8iMRRhgUnh5ECCGUsX2TCHfZKeZZV64JxOEumdbpv+5sm/c571/curB/U4+2YT7Hzi9zVEHj7ydJaFsNX2g1fCFheOn/xf4THXbp6P7D60YHBz35+58/7WQzE5NyRbyQCXrSE8rsyE1+my4ieoQQQitpNpEqWcFq7TXYYtm8M6fuLOnYiSNKOncsmqczcphT2WiVKPlNkkiYuMVJfkuZNbRGYrKQmJR5+Esp9d14dN6HUWumOB2bodTMwtre2aPfsMFdW8ijEtQT3zlJJaUkKYbP4389sJ9XwCOUlFRJ/w1aXlmp1JWQzWYTwtTom1egTuDSDQAAALVt5MiRI0eOLLNw+PDh1T5g0UAAVvbnEID0638ZCdlcI6ccQ0fljL3srLfctKd8tRaKsUeqnUQ1ekUyL5IKs4iEnCQtJndSlGxza4/mhBAy8H9j3Ce177pq/Mruj/7sjHmlawglodqiS88WXXqOmuw11dJ1y85NF+fbeVE0RShJp2VXljlKfL09Ldu0SfHDPBar9GM9VvMBg7v4zjhz8s7STh2Tzx6PKWw+ZZj1t6N/KZoibMPR+w+MMvy6tU+x1VpyCPkmskU3cVka8mL606vBQaFhYaHBGybuW+3fc3Pw8bGtuGW3hTrwnZPUQlNLkSpITcliSMl8gESYmpwipDV18ES4scOlGwAAABocgZwGVVjA4mUXfWQVfJR7eP6TbkeedjuhtEqhnDpPraVKzFZ2dnK1k6hqCICtKb/NkZOUIshlsW3by2qKCv96Vvhtj+nGRJR28+TZmwXGA4Zaqxe3FSj5Tl1MONuuPInPZTrjjWLVxHsTc+7yv0zniQPbft24pxQ7O7SX3PIyLTVTRGnq6ipQok8SOp0sm5fXViu3Awqt13eI/R/e507dWap2/dh1YZs/hlh8e7/P0mmqyxLFi5TbW1pKlXOU72Art3LwauXgNXW5MD1qrmvXdQtWhwzb1+0HjgA1rLKT1NKkvZnE7ge37/HGdi2OBDEZsbdeiJQGdDBkf6cWQcOGSzcAAAA0UCIJORFXhpv5mpTqkUqJBLIvorONu2eZDxCo6Cvf2M3NePEzqVT1ORiHSyurSv/PQWmhg2yL/Pw1h1NXJDbyjrKU8MGBmVPGzdj14Mu070xmVPidQpZGM30Z3ERWG5V83nfyrLGT1sTmfF2HhO8unrqWT2uYmWnSRMLS3VFZcCfwyIMv81wI3xyfM+aPg3e+/8Y2StNzsLP0yysXLp0+dYt0GDq4TTlRLrqpi6sxK+PyoYtpXw6Ue32D95TVV94ICSGEoihCBIKiIBeTHrlu/LAFF96XbMxS/c2xnQLJy8oWlD02/EqVnaSURrf+9rJpZ3acSCpu7PPu79wZydfuPchepm7yDLUNl24AAABooISyqoQQdlZSmeXSL65SIgFP00Qh9ohE2tOfTKWqvQDyX2f125j1k4k1LJSml++MndeWLXaxix87yNZIUZj2MOjg7nNJSs5bJlmh+3f1cX+bs21GWO81C21Ng/sOdO/UQlOBzc98+yTmXODZ25n6ww79YS9JCFHy9FvkHDplec9enxaMd2kh++nF1QOr/jyX6bhzngxFyHeiAJRqj6HucoP/+mN7Est6/cDm5c7pzjKZtGpcoOe2sW4Sr3y8OmpSaffPb/bfFas+zWsZixBCK6mpcER3gnbvPpmqq2/VVVX44OzK40/e+kzqbaEnx2S/vhn457EMtW4DHMRmUsz6qfKTVHuo/x8H7OePd+z9cEIvY+nUG4c27bmn3u/QAhd8dY0VLt0AAADQQAmkVQghnI9vyyz/pN+FIRQhRCCj9vOp4A1JFZCxXBRy1WjVip2n9/oee59Py2o0b9/Tb8mCmX1aoNx+BqXsuCr6rsOujXtOhwX+eSrlI49w5VT1Wlr08Ds2eUJfU8WizimcVhPPXNNctXh94IIh6zL4EioG5k6zjvvN6WNQ0bvaKMWuQ3oonzj4Uqb7wr463+nmQim7bogMbbVk+Z7NE469yyWymq0699sQ4jfeSp4QQiiVXnPmHH6w+ujsCVc7+5x295l5Nlh28fK9u31O+mUWUNJqzdraTw/0ndu/CZ4o1rFKT1JJ8zkXwtUWL9x8xHfCe4GMrrmr75nlPt11MRFAI4ZLNwAAADQkDEeSEvAJIxLIaRBCOJmvS6/NbemaZ2ClGr0hw25GnpGDTEIExfzUaFZK1uenBhJUSvQxKW+nda0mUYEHDx6YmZnFxcWZmprWVR7qZ2YAagRqdY1DkUI9hGpZe+Rmvyz6IWe1Qd3mpJFBwda22NhYCwuLus5F44SyrT0/Wra2trZFP1hZWZVZFRMTU/TD3r17v93xh94IwFdplmE7VTLpntLN/R8sRxcq6WlcWUSKG/mfmttlm3iqhq9i56Rm/jYqX6e90s39Uom3q378b+FRGAAAAAAAAEAdKFTSY2g2JeDxlZryNE3lH10saf8XaBhnte3P+fCKnZtGCJGJDyWEZBv3+GjWr6CJSbVTRAgAAAAAAAAAoA5IvbkpkfYsv+lvWR1HyN8/KfXmZsmqPEN7Vl6GQFqlQLsdIYSb+Vr69Q2GLcEqzJNIfVztFDEwEgAAAAAAAKAO0PxPKlc3lbtKJWZbmSWKtw/VQIo/fwgAAAAAAAAAqP8QAgAAAAAAAAAQCwgBAAAAAAAAAIgFhAAAAAAAAAAAxAJCAAAAAAAAAABiASEAAAAAAAAAALGAEAAAAAAAAABA+fh8fgUfGxyEAAAAAAAAAADKl5aWVsHHBodd1xkAAAAAAAAAqKfevHlDCFFXVyeEpKWlFX1suBACAAAAAAAAACgfwzCvX79+/fp1XWekZiAEAAAAAFDH5Ga/rOssNE4lBZuz2qBucwIAUE808hAAj8cjhDx+/Lg+zNmQkJBQfzIDUCNQq2scihTqoaJqWfQnFQAAABo0tuhjUq0mQCtox8bG1moSFYiIiCCEeHl51VUGvlWvMgNQI1CraxyKFOqhiIgIiqLqOheNj3JdZ0Bc1OHtaGOFIq09KNvag7IlhLDN4nxqNYGAgAAjo/+zd5cBUWxtHMDPzCZIS5eiYoAoCmKTgoqBLQp4DWzF7gBbTOz2KuIFQUXFJsROvCq+diMGgoSSuzvzfkAQFQER7uLu//cJZmfnPPPsWZbzzDmzVpXaRAlYliWEhISE1KlTR1oxFHry5Im7u3sVCQagQqBXVzikFKqg/G7p4OBgZSW1D3RZ9cmKxMXFIbEV7seFFUhyxUK/rTzIbeVBbvPJ+EIAgUBACDEzM7Nsy/3VAAAgAElEQVSwsJB2LITP51edYAAqBHp1hUNKoQrK75b5H6kAAADwR6OlHQAAAAAAAAAA/BdkfBYAAAAAAMib/Pv/Y9IvAMCPMAsAAAAAAAAAQC6gBAAAAAAAAAAgF1ACAAAAAAAAAJALKAEAAAAAAAAAyAWUAAAAAAAAAADkAkoAAAAAAAAAAHIBJQAAAAAAAACA8hgwYMCZM2ekHcUvQAkAAAAAAAAAoJyCgoICAgLy8vKkHUiZoAQAAAAAAAAAUE4ikejWrVtTpkxJTEyUdiylQwkAAAAAAAAAoPy4XK5QKFy0aJG0AykdV9oBAAAAAAAAAPypDAwMdHR0kpKSZs2aJe1YSocSAAAAAAAAAED5VatWzc/Pj8/nSzuQ0qEEAAAAAAAAAFAeSkpKrq6ubdu2lXYgZYV7AZQVmx7jU49P8xr53hZLOxbmxRpbAVWAprlCFW2Txg59xq86cj+d+cmTJK8PDqmnqN5kSOD9nP802ipK8mCpDZ9Xf8Z1qb+cJWNTYqZaqyjV673uejr7070k9xZZ8Xnms+LKcDZs8k5XIUdz8PE/45alv4R5urLV17dGIYWeIZmEECKOm2XO41stuieRdqDwHxAlRi3qbKJAC1qtfPqzv4sAAAAAv2njxo1/0PifYBZAWbHpZ+aM3PxYTDjSjqQQxW82Ys2wplxCmLzPH988vnnm6NbJ+zetbj9/3z9TW6lT3+zMJJ2c2H1mYt+wf2d1qimQUsS/R3x1mrnjvZmvj/z13bnJhJ+cHZtxZWGPEZfabL2+0L2BUgnPpzRs+o8dK2qlI+dFPSYjLYPhNvBcOsFOtUgiOTVt/sxeD+WVeT94xmCfLY8VtPAhBwAAAFAU/jsqCzb9zJyRWzPbdW4afaLqXDnlmDgN8u5ZZGSzOuH4nL6eK2a6eVW/dtjbpGi1IieruvveK83rqv2BI0RWJJLweHTCpYsvJOrSDqaSMD85O/FnocPGizPMSxrG5OdH13nSSudKjPAPwWakZbDcpu2HDvVUkXYsID2S+JX9vcO1pkRcdzjl7LRe2uEAAAAAVCG/OCIUGLT0nBHwd8i+PZNaCysnoqonvwDwuduKhR2r9vVnvpHr0oPre2h+POG3OPJzwdashwd9+7m4dHZppKNc3cSqy7it11KKTCgXvTq19C+7+rrKQkE17Xp2A5dHJxbOJWfT/t09uUfz2lpKAoGiulEjl6Ero19/eVR8c05DHr/pwrtfp1SLb/s24vEs590RM682OCpy1HuFfCw6dV18c3ZDHrfmmDM5hBCS9+q0/2AncwNVhfxjD1t1pqBl9sOOjkJegxlnLq7oYqomUO27dkFzYa2JF/Nyjw7UoLl1Jl0SlXKEYkgSIxe529RQE/IVqtduM2j91Y/fTQ3OenjQt1+bujrKQkG1YhL1jdxjAzW42t4RT47N7WZpqCLkK+k17jY/+r3obdRi9+Y1NRQF1bTNXGccTSjMjiTpwvpRHZvUqF6NzxOq6ps7Dl4Z+1ZCCCGSh/4/PbsOzp06WRuqlJIf9/2ZPywE+LXkyAwmPT2DFSirlHjNn8vJexgysb2ZTjU+X0nHzGXcPw+y/6sA4T9Bqdv5Rd886ediyJN2KAAAAABVzK+UAIQNvPwXdKXPBfh49vVaeVFOFpSz6TGzR2795LZqdW/9qn8JndLtNdbdmHp7NPxyLiGEiB5s6N6mz6p44yFrw2Nij+2Y3Co1eJSjy9wrmYQQQtikw8Ptu/ieVXTz3R4aumO2s+T4DFenCZFpLCEk+8bCDnaDtzyqM2xdeMyZE7tnOWQdnupqP+pY8s+XpH9BG/Xob6eQERV2MvXrvqJ/ww48JLX7erUREuZ1yF9tOvuerdZzyb7I2JNB81ypk9M7Oow9kcISQigej0uxmXHLp4dVH7J6904f1yFBl9Z0UaH4beef/TcuYpIlr5Qj/CDv1pLu3eYezbL1DT4dfWi9t/7xkaND3n8tApSSqB/yzOXx2IzLC0Zu5w8Lunz/fzGLW6Qcne/V181jSXK3DWfuPrj6dy9uzLK/Jh/IL4KIbi/t3GFc0NvG4zYdPB15eOuEJkmhUzt3X35XTAin5qBfPLvv8zP2+1nuv5gcGZKTkZ5LKasq04Sw4pysbHExJ8xmnJ7kuSGn07zdhw7vnmUrPr9usFfA/3B3AFlCG9q5tdCq+n+wAQAAAP57ZV8IwKnlPqHNrUVjAp+KKjGeqoZNj5k9atsnt10BvfXoJGlHUxb8RtYWPObUwwdJjLNh6kFf32iR88bjQcOMaUIIaWlnq59m3jtgXvDI4976kn/XztqTUHvCuXD/lkJCCOnqVP2t2bCwbUfntPNg9s1bcV1iu/pIoE8tDiGEtLJtpfHerN/uBTsmdZhWr+QoKN1uns6TT0ftP/Gxn0d1ihBCRDdCDzwm5nM8rHgkO2bJ9LCkJvNv7J/ZkE8IIS1tHUxzLR03+m71cZnRgMPhcgnz+rJoxv92jswPnOTWUucQStXYonFjdYqUeoTv4sk+s3FjXJ7ZzMCdE5ryCCGt2tqZfG7kdIvUIYQQwqaUnKgfJ39QFEXyXut4RM9y1aUIMRo5qXdARMCldyNvHnFvyCWE9Jo+dOOO8Rdib4n6OPKZt48/Grbt3mf+1onN+IQQYm+n9fK8y9Z9B+9PaWgh0Da1+LWz+zE/kntFzza2xKfL8MCIyUjLYAjzcM8QW+8jV56niylFPcv2A2cund2zrkLBTuLHCWan49Y5qhBCiHMb/p3o3gejzr2fbl7M6wwAAAAAIFvKPBrg1HJy1FewGr8p8J99wVt9+zZUloN/lwsKAKtW99H7Y8ZNCkpKXIrNzs5mSe6VE9GpXJuuHbXycr7IVbR1baOYdSnqciaRPI+OesTqOrlaFyzqoLQ8DnzIfBfqqU1lX4m88Ilr3d2tZuFwmtJ06dxKILp99uLHUi8mU5qdPF3VP0eHFVx4zrsSevAZt5lnf3MuEd0+GfmaNu/kasIUxJVDW3Z00pHciTmbxBJCEUJYnlXXToY/SXupR/iW5PGVax8oPft2FoXTghVbdnUuvHdeKYn6CZ65fVvtL28DWltPi6a1W7ap+6WqRmvpanHY9NQ0lhBCG/daefDE/snNCr8nlF+zliGHSfnw/WqEsp1dyfn5xeTIEjYjLZ2VvLt2Nav1uHWhx0/s3zyheebpJX3s+ge+LMw0x7hL37aFdwpQqGGiy2FTU1Jxy3gAAAAAkANlngXAM66p/Txy4ZzgR2msRrOxAX6jXnj5X5XpFbRfCgBd/17d5w9YAlCATU/5KGJpNXU1mk1NSPzM5EaOMlYc9d1e/DevkxnmTcJbhtbRL+4u8szHxDdZhG9gpFv0QUV9fQ1K8v5NEkNKvTGfWvv+XbRCD4QdT/YYoEXlXAoNf8lvM6lvbQ4hosRXbxhRpm8TJd/vnsRVTXgjIXqEEEJxdfS0f5Z3SWlH+LZjS5LeJTG0vl7RmcEcHX0dDskihJDSEkWUio2DUlZWKiyE0TRNaCWVr3vSNE0Iw3wZcYvfxG5avPqfqLjHb1Mz8yQsSxiRiBiQYgfkpZ4dISXlp7Sn6xb3JNnAMR1z9LEXq6JnoP6l2tKhe5eGfS09Ds5fd6XfilYUIYTQ6tXViySOy+UQwjKoAAAAAACAPCh7CUAgoNJev0gTE0I+xh2OyVjSrDb36l3ZvcFYfgEgo9PmRZ1Usj5/JoSwmbkSlrCirMzPmQKFasKq8/2ARX2+fO6miFvDsrEGRZJpilBCp4UnFzp+t1icVqqhS5OXhBDC/GzwU9w0D5Zl8yfBl4GSk0d3/T1BYcc/eP2lfGHfodeKTn49DWlCCEXTFOFZTzmwtofWt4eihPr1CvJKczg/badsR/gu7u82SSSSgo1UKYn6XZ/PTXfusDqhnsfc1Yvt6uso82jm9e4Brst/srTkN/Pzq8mRJXw1/Rpq32yhdLv0aivcH3Hn7ke2VfWCjf99ZAAAAAAAVUGZSwA5Hz5k6xnp0uQVQwihaarIAEomieOPHn2a++7RoLoHB33zwJJWakuEPYKTD7hXk1JoJRA//jvgUDJdb2ifJlxCqRkZqVJMlsDQpkXtYsaxEn0jfVry7EWCiJgXDAzFGe8SUyXKugYaRobVyMVXL94wxKTgueynhISPLNfKSJcmhKZowjIS5msvYNPTMljydQCm0NajV43t2/Yf/9BLL/TIW9WOK93y581zDGsYcNgMSqdZC5vyfS3lLx6B1tTSpJn3b5IYYlZwpqKEF4kM0SSElJqo35V3cc+eB4yFb9Dfky2+NC/+RDJ/+v75zfyU9nRZft+yos8pqRIVbVX+1005WVkMoRUUBRj4AwAAAIDcK/N4R3Q35qJaR/fmGjShlC072wuuXHwi0/fQ5jbyCTt7vqhzh6c043FqD/o79nz0onYKpR/iv5b78tD43jPPZht7Lc6/6Z2gRUdHDfHN4L3xuYU7SV6FThs6Y/fNDJZwTJza1aVTToVGFd63P/342Ca1GgwITmIUWra3VxXfPBj+tPBlZt5GHLyYJ7RxtlWjCK1WXY1m3r95V/hw7u1TMYnf9AlB8359TXPPHzsWsf9okpbbANcvX6rItWjvYsg+PRh0/lPhvmzyyflDJ208/9O16hRFCBGLxeU5AtfUpqk6+y729K28gp1TI/dHFi7/LiVRv4vJysxiaU3t6gVvN+bNwVV7HotZsbigjvY7Z/e933z6H4xJ2NRBW6dO902Pv96zNO/Rnt3n84RW9i1VSngmAAAAAIB8KPs1xuwbm+YenDxpy/7JHCY9PmSBf7xsfzMApWJi3dqk6Bb23f9UaSrHqEnrNo3Ld+26YkmeR/+9PZVLCGHFWcnPb0bu3x/7XGzcdfWhdV01KUIIodTdfP3aRfks6tota/YI57pKWc/O7/JffjjVccvMahQh3CZjF3nt7R04uBN/2khnY+ZZzNaV/6SaDp/W35CmqF6+MzbHzJjr5pE3d3Arferd9WD/hcfyLKYsGFiTJoQY2js14F48sNS/h9EQS5WMu+GLfc8q1uB+M+ee17Sfu9nK1Yvn8pMNens5KRVsF9pOXdL7kNdGd1d2zviuDTVEidf2rVy695n5ojGqP7lUS1fX1qRFN0LW/KPRRM+8k+OvHUGp3cghZvv8Azz7K8waYK3++f6xDdse1TTlJhGWLUOifhPf2r610r7YtdM3m4yyUkyOP7El4FyDAV1Ulx67eOjIFUNbq3rqv3V23yslvbJbBaAN+88avqHTmqkO7e6P7NeqhsLnZ+f2bgq8QprO9PeuTROCBf/ygUm6tv/onQyGEMnTuxksQ66G7tiuRRGKX8fZ0974z7m1CwAAAEDF+4WhLPv5XpjfkLDKiwV+CZt3fdPI64QQQiiap6hhWL9ZvwVLfUb3slD7Okrk1R8dfkHPf97q4Nkeq1LyBNVNLJ0mh/pO62HCIYQQStttS2yE6ezFu5aN/PujRLlmM9eFEYsnOqtThBBB4ylHY3UXzlu/ZXS3uZ+Isr5Z6wGbNs71bq5MCCGE23hy0JZ3PkvWdW+0gFU1ad5z8prd9nPMRzzPK1Ib4pi592+yaPrVz6ZTvdoIv26nDd13X9Cw9PMPXDx424csWtWooa33jp2zBzT+bi3+1zOxHj7X4+T40JWj79Vy3+DkUPfXjqDQYt6RUM5E313Lhx7Oq2Zs7TZxV5DiArOr93Lz2DIk6vfQRoO37n0xaubOyZ2DGZUaVp1Hbwr3afRA4cLVFTuG/5Wz/crW7r93dj80+HtP/3NRao4rzkTXXbhkR8SqiTszJMLqJo3tpwbNmuZuoSzt2OC/I3kaNmvYiq/z1D6EzRwWRgihVDwP9bU3lvF3AQAAAECJqBYtWlRqA4GBgaamppXaRAni4+MbNWp0584dCwsLacVQNYMBqBDo1RUOKYUqCN2yUsXFxVlZWUk7CtmE3FYe5LbyILeV51dza2trW+o+O3bs+HHjgAEDfiGs/xxmRAIAAAAAAADIBZQAAAAAAAAAAOQCSgAAAAAAAAAAcgElAAAAAAAAAAC5gBIAAAAAAAAAgFxACQAAAAAAAABALqAEAAAAAAAAACAXUAIAAAAAAAAAkAsoAQAAAAAAAADIBZQAAAAAAAAAAOQCSgAAAAAAAAAAcgElAAAAAAAAAAC5gBIAAAAAAAAAgFxACQAAAAAAAABALqAEAAAAAAAAACAXuNIOoHLl5uYSQu7du5eXlyftWMiTJ0+qTjAAFQK9usIhpVAF5XfL/I9UAAAA+KNRjx49quw2MjIyKruJn4mJiZk6daq0WgcAAJAZy5Ytc3R0lHYUAAAA/5EJEyaUus+OHTt+3DhgwIBKCKfCcCs7vsDAQCsrq0ptogQsyxJCQkJC6tSpI60YCj158sTd3b2KBANQIdCrKxxSClVQfrd0cHCQ4ge6DIuLi0NiKwlyW3mQ28qD3FYe5DafjC8EEAgEhBAzMzMLCwtpx0L4fH7VCQagQqBXVzikFKqg/G6Z/5EKAAAAfzQZLwEAAAAAAAAAVIadO3fGxsZKO4pfg28EAAAAAAAAAJALKAEAAAAAAAAAyAWUAAAAAAAAAADkAkoAAAAAAAAAAHIBJQAAAAAAAAAAuYASAAAAAAAAAIBcQAkAAAAAAAAAQC6gBAAAAAAAAAAgF1ACAAAAAAAAAJALKAEAAAAAAAAAyAWUAAAAAAAAAADkAkoAAAAAAAAAAHIBJQAAAAAAAAAAuYASAAAAAAAAAIBcQAmgBMzTla0E1A8UeoZkVk576ffCl45wa1lPX6OagC9U0alj3XHIgpDbqUzBHrkRA9Roha6BaYQQ9v3W9kKO7rDTeZUSTHFyz4wx5teZfEn0n7X43xPFjjXm/viiF+I18r0tLtg5N/H8tuke7SxraqsKeXxFDaOGtr0nboh+mVN4OHHcLHNe0efTHL6ihnFjlyFLjz/LKTaCUuSdHqbLEbbf+p4t9mHJvUVWfJ75rLj8INmPZxd1MdeuxuOp2K1+LCFMYsQUJ9PqCjy+eo+g5OIPUYhNiZlqraJUr/e66+ml7CptosSoRZ1NFGhBq5VPme8eY5KvbBrTsbGRuqKwWnUTmx7Tg//3qeB0mBdrbAXcmuPOyXKfllsl9QoAAAAAecWVdgBVGZORlsFwG3gunWCnSn3dzKlpI6j4xj7f3vRX9wnhLzg12nTr4zPYWI3zOeF2TPg+3/5B2/etOfbPiIYK3z6BUrToPsbHplkNTkU0L746zdzx3szXR/5Sp362j+jfE6ffaTt3aMqriBarKI5p7wVr6n0ZIrIZFzb47ntmPnCJt9WX15zWtDHkEEKI5M3xad09V1//pGHRsfvg3nV1FUQfHl05dnD92IM7/x6/79iK9joFmaQ1HCcu7lcv/4ViclNf3TwRFDyzS0Ts+vNHR9ar2PcgpWHTf+xYUSsdmhBCmMTgeQuOPW8wdONWtwbmurQ4ftvsgNjklhN3THas11jlpy81IYTNuLKwx4hLbbZeX+jeQKlCY6xgmfeDZwz22fJYQau4VGZentveecmjGt195k80U079d9/aNV72t9IuVHjmoUopuVcAAAAAyC/8d1QCNiMtg+U2bT90qKdKJbeUHOHj5hP+of6wsCNrepoUVhjmLn5+YGwnz+3j+y1ocn1xc+E3T1JuOWJFywoKgEm4dPGFRL3EfcT3Tp56qerYsaWwxN1+Lw5RHsvjV0hRo5zN0Qa2f422/fIL+4Z7eP6+lybOw8f0/3YULLq7qo/7qhvVXPxPBE9qrl44m2bBkqvL+3adGeA10vLWfi/9/O1UNbNOg73ti1ROJo/rOsi65x7fRcc8A92UK/KUaF3nSSudC35j0z6mMhyTTsMHdWvKJYSIUlNSWW6jXmM8u9b4fgYQKxJJeLzCvwjiz0KHjRdnmFf1EZQkfmV/73CtKRHXHU45O63/7lHm+c6Zq28r994bE9xXhyKEeHh2NnZuMtF3/hH3oB4/L3fBn63kXgEAAAAgz8q6EIA27B1w+FihyLPn1vXQlPX/n5n09AxWoKxSCdf8vyWO3zAn6BXXZnbw2iLjf0IIEZj0XLNn/ax5UzvqfT8T+4eFAJKkixtGuzYx1lAUKKjoNbDzWhDxtGCqee6xgRpcbe9jCedWeLWspaHAE6gYWLrNPpYgJkTy0L+5sNbEi3m5Rwdq0Nw6k4qf6C95durkA6Gda1vFYh7Me3ly8QB7M31VIY+noGZg7jjI/3TC18NkPTzo269NXR1loaBadROrLuO2Xkv5cj6SB0ua8QVtV107NdOhhrLQeOzhvX00OAr2614WnbnLvFhjJ+RU7xuaypZyppkhPRVopX4Hc78+OTu0twKl0Gd/bnHNxZRnHQX78dBC/8tZ+h6bgiYXGf8TQmj15lN27Vgyy2+gpbCE9wel1dHLVYekXr10X1z8HqJXp5b+ZVdfV1koqKZdz27g8ujEontyOJ9vbh1mZ1pdgS9QMbB0mxXxKv/hrwsBROfG1RRYzL0lEt9bZMWj+FaenZUFDusTJHnnxtXkUMIO298n7ego5DWYcebiii6magJV9/35K1zyXp32H9zBuVMna0MVdaNGLsNWnUn8SZjSR6nb+UXfPOnnYljM5BQm8Xj45Vy97kO7FU7J4Nb2HOKkkHJif8znwt04XCbhuG93SwNlAV9Rs46t9+a4jCq+8gFKVGKvAAAAAJBrZS0BMK/Dxrt1ytdl2LY7z0+GxKTI+j/JORnpuZSyqjJNCCvOycoWV9IJSx4fjbgnVnAa7m3O//FRBashC6Z5tTVW+PGhItiPp8bZtRsfnu04O/BkbGTY8n6a15b0aOu19zVDCCEUl8djP11ZOGDeK+cVp+KfPb68tStzekn/4bsTGU7NQUGX1nRRofht55/9Ny5ikmVx/zUzbyJP3ua27uig9uPINu/6vE5uvmeE3RYEHo2KOrJzjis3ak5XV98rOYQQInqwoXubPqvijYesDY+JPbZjcqvU4FGOLnOvZBJCCMXj8yg2NdJ39iXzCRsC1w9q3smjs2belf2HXn2tATDPD4ReEWm7DXBVp0o501L80JxZeS5yZ507fPojVavfyE7F1MFo/c5T54/qaqFRYomMEigIKFYiLrZTsUmHh9t38T2r6Oa7PTR0x2xnyfEZrk4TItMKl7C/DR7hfUC1/7LgIwe3+likHF/iMXzXdwngWk09cS1sZD0ut86wkBv/Xv/Hb/Wla9vcdWme9bSTN/+9trFHdT6PS7GZccunh1Ufsnr3zrE2AkKY1yF/tense7ZazyX7ImNPBs1zpU5O7+gw9kQVfb/ThnZuLbR+8odMfO/W/0Rc86YWRd5YlEqjJrXpT3duPSksa4huLHD3e95i6raDR/5Z3FX51s6x7n4Xc4s7IPwZSuwVAAAAAHLt18c/lLrTSPecvaMupVXNEUHFYTLSMhjCPNwzxNb7yJXn6WJKUc+y/cCZS2f3rFvyePwXiR/deyzm1LZqWv55yeI7a6dufVJjbMzRlW2rEUJIyzaOTbitm871XXW596rWfEJRFMl9odjraMCAmjQhxKDvgolBuwefO305e0gvbVOLWuocQqkaWzRuXHwQbHLk8aus9ZJ2Wj8+LHlxJuoRYzbTf/6QxlxCCLFzdrEyD4jlcbJYIvh40Nc3WuS88XjQMGOaEEJa2tnqp5n3DpgXPPK4tz7hcLlEfP+m2r5763pVpwghJMvDTfefwAOHXo4db0ITQojkyYGwGxKjoV5OSkR8u5QzLcWPzf06yav7Dz8TgVOzRuW+xCh+cv5CIqPQvnHdYt6C4n/XztqTUHvCuXD//FUXXZ2qvzUbFrbt6Jx2nmqEECK+n9b2ysW5lgJCCGlnlXPVZOSFyMvZ3r2rfT0KVc2gQeN6ugoUEevUa2zZmEsIESVq8ihKydCssaURTcgnLpcwry+LZvxv58j8F4dkxyyZHpbUZP6N/TMb8gkhpKWtg2mupeNG360+LjMa/GdrNCpG1vt3GaxQS7vovTwIR0tHi8PcevOe+VIDlSQ+0lpxe3cfbYoQ4myv9SzGaVNM9ENJm0Z/2OkCAAAAAJTmly+T8Or39TKM3n3mo6wXAAhhM9LSWcm7a1ezWo9bF3r8xP7NE5pnnl7Sx65/4MsKvb20KCsrj6XzpxuUj+T56VP3GQPnzpacnAKSmi4d6lOvzsQ8knzZi9uwvbNRQRuUir6+CpWXmvKpLK8kmx5z4qK4UUcXw2JipLVMaiozD/5ZujnmaUZ+Y0rNBs6e4tFMgyK5V05Ep3JtunbUyiuILFfR1rWNYtalqMuF36yg0MbNpXBArmjv0dNIfG1/+Iv8NEse7Q+9ydTu69VGWMYzLc03zf06Njszi6UUVZTLWAFgJVkf3xV4m/DoesTqgb0XxVH1hk4qbjmN5Hl01CNW18nVuuCuC5SWx4EPme9CPbW/7M216NnHomDJCFW9Zk0VSpT6sUwvZVEUIYTlWXXtVPiyim6fjHxNm3dyNWEK80tbdnTSkdyJOZv0p73p2ZzsXJbiC/jfJpkv4BM2Jyen4HQo1Xb9uhSklvCMaxlx2NSUVNxDHgAAAABkz6/OAlBo1t3hXdjIx1V2ZXAF4piOOfrYi1XRM1D/cm25Q/cuDftaehycv+5KvxWtKmyRKU9ZRYFi8scc5asCMG9eJTKShPVOKt/f+IrWSXgjIQ3zf1ZVUy1yfJpDE8KwZRroZJ07HptlOsKlTnGXRSn1nmtCZn4cssLHad9E9VpWbezbufby6t++rgpF2NSExM9MbuQoY8VR3z2N/+Z1MkOMCSGEVtfTLTKxQtCqf+/am9YcCH8+flJtWnJ/f9gd1nyWhxWPEFGZzrQU3zX3yyglFWWKff7xYw4hpU47IIQwb3b2NN75zREUazhN3rdtgV1xt9pn3iS8ZWgdfZ2fdwZavXrRWxBwuNwyv5Tfo7g6etqFx5IkvnrDiDJ9m0XJq/IAACAASURBVCj5frcfVzXhjYToVfGbA36LEioIKTYvN+/b2kVuTi6hFBQKb9ZAq2ioFzkvLpdLCMv+afUOAAAAAIAy+LV/6CnlNp2sH51amyof/x3z1fRrqH2zhdLt0qutcH/Enbsf2VY6FXU7RF79hvV5kpsXLyUyVj/cp71sKJoi3Dref+8a8t0gneJq1eMR8pvfep5z+URMulGfDhY/6S+0rvOCyGcTHpw/fSoqOjrqdMDoncsWd113OnRYPYqmCCV0WnhyoeN3t1WklWroFpwth/PNefOs+/dtsNr/QPjT8ZNN4kPD7tLNlvQ351bYmX7X3K/iGDU0U6Nu3LhwLdujXRlqCbRWlyU7RzXKj5/iClR1TRuaGSiVHAPDlDSir8BbcdIcztejUTRNEZ71lANre3y35IMS6tf74+bFK+rpq1E579+lseTr21Xy/s07Ca1nqIel4gAAAAAgd36tBKBg1bbh44v+mfJRASCs6HNKqkRFW/XrlV42JyuLIbSCoqAix2AmXbo1mX3l4saACwNX237/FXF5/1veqfeJRkt2L3cz+tkROIY1jDjMI0ajaYsWFXqbgnyiuOOnk7TadbQqceIDV6O+g3t9B/dxiyTJZ6e7tF81e1mk104nIyNViskSGNq0qF3ckKv4cS7Xop+75dJ5Bw4/G+sQduA+r82avrU5hJThTCmKIoSRSL4el81Iq+jbuyu06d5Je3fgvpV7pjkMq/ndwJhNjhjmMjdj8La/x1jnf3sCJaxh076DfVmnjdD6Rvq05NmLBBExLzi2OONdYqpEWdeg5JsM/jaOYQ0DDptB6TRrYfNHXfAvHq9h00aCbfE3buUOa1+wqoJNibv+jFHvY12H+7PuBwAAAAAgq37pOhjX1LL+uzt3P8tHBYBJ2NRBW6dO902Pv15Yznu0Z/f5PKGVfUuVimyKU3f4Au861MP1Hp7rbqYXTW/Ww6BhPefGvM7VNilhWjihazi7mHFSju85WmS59ufLASN9lp18VaYF8hRFCBGLi13gIY4/cTpBxdG1pbC4RwmbHLtqhNfsiA+FTXM0mzs2USWZaRliImjR0VFDfDN4b/zXO6xLXoVOGzpj980SRuacen3721D/Hjt6LCz8sYKTZ88vq9VLPVOuuoYqJXn/NqlgcMcmRZ64/puzIH6g0nHmLAeV9FOTe0468qroreMlSecW9Bm8Mz5VwaiU73D4OY6JU7u6dMqp0KjC6Tbpx8c2qdVgQHBSZQ9ZuRbtXQzZpweDzn8q3MYmn5w/dNLG83/crQAIoXQ69bZXSgrfHJZYkLnc21u2xOYZdO9nX63EpwIAAAAAyKJfudBHKRkbK725WemjkCqCNuw/a/iGTmumOrS7P7JfqxoKn5+d27sp8AppOtPfu9gL2uVHqTovP7QxqevY/eNa1N3ZsVv7ZrU1eVmvb0cdPHQpUWg9LjhscqMSF51zGo7xHx7stnFYB8GLKe7N9Kik20fWLd4apz3efWFZZm/T1bU1adGNkDX/aDTRM+/kWLfIaF/y+NSpx0LbmbY/GTJRapqS+ENLQ++/njKmu5WxMpvx8lrw8n0pWp36OCgRinLz9WsX5bOoa7es2SOc6yplPTu/y3/54VTHLTOrUYT8bFhJm/TyaDN74oYZz18pd/RzK7xZW2lnyrN2ttfYEb7RL6ilr4sR+/r81tmb3xqr0A9JhS7u5pqO2hv6urv7irXdzI/Ydu1qZ2GoLEl5dDniwMl7mUZuAYc2fA351w/eZOwir729Awd34k8b6WzMPIvZuvKfVNPh0/ob0r+7pqM0QtupS3of8tro7srOGd+1oYYo8dq+lUv3PjNfNEa1cicglA+TdG3/0TsZDCGSp3czWIZcDd2xXYsiFL+Os6e9MW3guXjGLvtZIxy73x3VzUzx/ZU9a7ff0u61Z7ZzcbdhANlQWq+QdnwAAAAAUvQrJQA2LWKia0SlhVLlUGqOK85E1124ZEfEqok7MyTC6iaN7acGzZrmbvH9ZP0KoGDmve/fNoc3rdl5IOrwxpPJWVQ1bZNGbUZtHD1+kJ2hoLSnUxouAbFR9ecv2r5u1L63n4mSXv2WvQIifUe0LtN8BZ718LkeJ8eHrhx9r5b7BieHuoW3SiNMwukT8ZxWwx3VfjYC5DacdOi00rxFO7ZN2e+bmkMpatVqbD8heO703roUIYRXf3T4BT3/eauDZ3usSskTVDexdJoc6juth0mJxQnasLuHw9QhxxJ0Bm1wLfJNhaWcKaXRc/U/fuLpW8e22ZMt0G3Yznvhbv/o9k4P8/LyCCl+HkO50DrOS8/e7bJ77cZ/jp0PXB6aIearGdRv1n2e3/gxPRv+3nCZ0nbbEhthOnvxrmUj//4oUa7ZzHVhxOKJzuX/1siyow3dd1/QsPTzD1w8eNuHLFrVqKGt946dswc0LrUTSoPkadisYSueFE51+RA2c1gYIYRS8TzU195YQISW0yJitObNWbd37qgP4mpGli5zwxdN6WyEYaAMK7VXAAAAAMgvqkWLFpXaQGBgoKmpaaU2UYL4+PhGjRrduXPHwsJCWjFUzWAAKgR6dYVDSqEKQresVHFxcVZWVtKOQjYht5UHua08yG3l+dXc2tralrpP69atY2Njyx+TNOBSGAAAAAAAAIBcQAkAAAAAAAAAQC6gBAAAAAAAAAAgF1ACAAAAAAAAAJALKAEAAAAAAAAAyAWUAAAAAAAAAADkAkoAAAAAAAAAAHIBJQAAAAAAAAAAuYASAAAAAAAAAIBcQAkAAAAAAAAAQC6gBAAAAAAAAAAgF1ACAAAAAAAAAJALKAEAAAAAAAAAyAWUAAAAAAAAAADkAkoAAAAAAAAAAHKBK+0AKldubi4h5N69e3l5edKOhTx58qTqBANQIdCrKxxSClVQfrfM/0gFAACAPxr16NGjym4jIyOjspv4mZiYmKlTp0qrdQAAAJmxbNkyR0dHaUcB8At8fHwuXbqU/3NYWFivXr3yf46MjHRxccH239keGhpaq1YtAiDTJkyYUOo+rVu3jo2NrfxYKhLVokWLSm0gMDDQ1NS0UpsowY0bN5o1axYSElKnTh1pxVDoyZMn7u7uVSQYgAqBXl3hkFKogvK75fXr162traUdiwyKi4uzsrKSdhSyiaKojx8/5v8sFAoVFBTyf87JycnOzsb239murq5OoHLgb0Ll+dXc2tralrrPn1gCkPGFAAKBgBBiZmZmYWEh7VgIn8+vOsEAVAj06gqHlEIVlN8t8z9SAf4sxY5UhUKhUCjE9oraDgB/FtwOEAAAAAAAAEAuoAQAAAAAADIoJSVF2iHIrOvXr0s7BAAoJ5QAAAAAAEAGaWhoSDsEmWVjYyPtEACgnFACAAAAAAAAAJALKAEAAAAAAAAAyAWUAAAAAABABi1YsEDaIcisMWPGSDsEACgnlAAAAAAAQAbNnTtX2iHIrHXr1kk7BAAoJ5QAAAAAAAAAAOQCSgAAAAAAAAAAcgElAAAAAACQQZGRkdIOQWZ9/PhR2iEAQDmhBAAAAAAAMqhdu3bSDkFmVa9eXdohAEA5oQQAAAAAAAAAIBdQAgAAAAAAAACQCygBAAAAAIAMioqKknYIMsvY2FjaIQBAOaEEAAAAAAAyyNnZWdohyKyXL19KOwQAKCeUAEojSbqwbrhzQ31VBYGSTgPHoesuJTPSjqkCMS/W2AqoQjTNFaro1LbuONT/2NNsaQf3hejixFpcQZtVzyom8blHvFRpBbeg9Ao52i+0+3BHDyOhTpuJh19K/uOmZZ8oMWpRZxMFWtBq5dNvukne8cGaHOp7vIZzbooJ+dL/uTXHnRNJJ26oTD/tFQAAAAByjCvtAKo2NuX0eAe3jW/NPCcsn2acd+/g2jXjO/wv6+LZaRY8acdWgSh+sxFrhjXlEkJYSfbH59eP7Amc4Xb0+q7roZ6GqBJVBPGLEO9eqznjTt8eb6uLd12FyrwfPGOwz5bHClrFJFaUkZ5JNBynLO5Xl/N1K63epAbnx51BdpTYKwAAAADk2C/8dyQw6egz2dNag8OhP98O9l9x6HFVuUpcaXKuLPXZ/LjW+OjYlW2VCSHEw1mzvdOmmFN3J1k0kaV/LDkmToO8ewoKf584yMLeclrExpBn/SfXQQ3g97GZeTV8Iq42q1lN2pHIHEn8yv7e4VpTIq47nHJ2Wv/do2xGWgZLa9v0HuLdTJbesVCyknsFAMiPTZs2STsEAIAqp8zDO9q498whSgfH9+/n3mf0P1yvGX1ryfzQMPv87uAnfIdxk9oof9nCrTcp+vWTU5NlavxfDF6tlja6tCTpbVLhlHXRq1NLBzk1NFBT4PEV1I0tO47Zej2VLXg07+XJxQPszfRVhTyegpqBueMg/9MJX+dWZz086NuvTV0dZaGgWnUTqy7jtl5LYcnP5D45ON3N0kBFwK+m3aDd2MC7nwlV9HE27d/dk7vb1NJUEgqVtU1b9poefPfTTw/Hfrqza4yLmY6SQKBs0LjLjPBnud8eLu/lKf/BTg0N1BQEQmUd05a9pu2Nz/hyODZ1d2chr8GMi0+P+fZoaqQq4AvVazTvt+zsh/wdRFem1uUqdNvzKm7rCId6WtX4fCUdM5dxwQ9zvo22h3OHLg71qxcXbd6r0/6DncwNVBUEiupGjVyGrTqTKC4SXImJBUKp2/lF3zzp52JY3MQcJiM9g6GUVVWoYh4sxOEyCcd9u1saKAv4ipp1bL03x2X8vH9C1VdyrwAA+TFixAhphyCzKKrEj1YAqMLKPIznGNTQeX712gcJIUzKjWvPNXQ0ZX0ireTJ5StJtLmDrQ5FCCEsKz+DAjb1yZNkVqGeea0vtY7Ms1Odu86KyHGY9feRyFMH1g4xfrB1ZAfPna8YQgjJuz6vk5vvGWG3BYFHo6KO7Jzjyo2a09XV90oOIYSIHmzo3qbPqnjjIWvDY2KP7ZjcKjV4lKPL3CuZxbb9OXZap37Lzwvclh2Iigzz70XvHDgtssiYOfPa/PZ2Q3YmNhm/7WhMdPj64fWebvay7bb2frEDYzbp4IiO3pvj9QdtOBx9cs9cx/f+notufB1iM29CB7btPPsk28F3z8kz0QdWDzSMXzfA1i3gnogQQigul0sxH05N/msD03/r2Qcv7sf4t0reP6PvpCPpbMHj4nsbPCdcajTn0L9Pnt4MHqx+bf1gr4B7krJEy7wO+atNZ9+z1Xou2RcZezJonit1cnpHh7En8iskJScWCCGENrRza6H1sz9kbEZaOkurqCrThDB52Vl5xS4JF91Y4O73vMXUbQeP/LO4q/KtnWPd/S7mVmLQUMlK7hUAAAAA8qzMV7PF985dGdrZyTjq0CuRuo2VMPJIvKxfixS/fPpKzHXQyTwwvduSPVF33+bwdcwc+k/3n9ffXEnawVWwvIzk5GQBIYRIspOfXNzjN/Mkt4Wfn7tufoVX8uLJ53oOXl3WBgzNX1Ht0Fp4r2bfw8HH3w0eoc+8OBP1iDGb6T9/SGMuIYTYObtYmQfE8jhZLBF8POjrGy1y3ng8aJgxTQghLe1s9dPMewfMCx553Fv/uxIym3J4zd+P6bYB+9aPqEkTQlrZttb0MOt7+8vjzMtd05fFKfULPb65hyZFCCGtHVuqvjMfuXjJ8UGBbirfnRfz4p+AA+9UugWFLOmnSRFCWts3U+hgPqqgoiC6FjAn7I2h94nDK5yVCSGkVWuHhmIb6/lLl5303tVFmVAURZjUBGOf0/N7aVKEEL0h80fsPDD9TORNsZsDj1AURSQvch3Dto1qzCOEGHaZO6PbdrfgyLPvp5nps6VEmx27ZHpYUpP5N/bPbMgnhJCWtg6muZaOG323+rjMaEBKSqwQxfcyYDLSMhgmJXZRty0HIuOTslmuep3WPccuXDy69dcBoiTxkdaK27v7aFOEEGd7rWcxTptioh9K2jSS9TInAAAAAMidMl8mYdMv7z5I+i+aP2mK/7pB5GBYvMzfCUD8+XM2Ya7N77f4lc3kHceiT+9b0l3paoCXo8eul7J1e2k2+9BgQ618usYN2vRfHl9z9OZdE5opftmBYz5k25GTu4Z+vaNatZomOhwm5cNHhhBay6SmMvPgn6WbY55m5F/8Vmo2cPYUj2YaFMm9ciI6lWvTtaNWXs4XuYq2rm0Usy5FXf5xHoD4zuUbn7n1nRyNCromVb1917YKX8a7bOqZE1eyley6OijlFhwuT7OdqxUnJTbq3x+LUlk3Lt/O4zVtZ1+9YMBMG3bqal0wOVjyJCbmOaPl0sNWufApPDPXDrXplAuxX2tcPJuO7QoPwNEz0OOwqSmphX2ArtGuvVnhfGOenoE2nf94adGKbp+MfE2bd3I1YQoezqEtOzrpSO7EnE1iS04slAWTnvaJFd+7eFevz4JdR05EBC3pq31/1zgX59mXvnY+SrVdvy7aBSnlGdcy+vYFBgCAP9Tr16+lHQIAQJVT5lkA/IZDF7k98xu25V6OYg2XSYtXjPgwdEO8TM+V5fC4NMnLMJt2JWiIAU0IIbZOTrVyGnbb47/lpudia9m5HwAlsJsTPrstjxBCWEluxtsHFw9s9W4UHrQ0PGRc02qEEJLz7FjA4vUHzt5++j49WyRhWVYiklCNWJYQQqn3XBMy8+OQFT5O+yaq17JqY9/OtZdX//Z1VSjCpiYkfmZyI0cZK476rlX+m9fJDFH6tgolSnqXzNJmukXn8Ar19Kt/+ZV5m5AoZtND+miEfH8SwteJuYR8u/KXSX2flEt4OrpFhsy0lr4O78uvkjev30o4+sYGRV9LWs9Qj2auv31fMASkeKqq1YocgMMhhGG+Lk2gVdRUi4TL4dCEsAxTerSSxFdvGFGmbxMl3+8e5qomvJEQvRISC2UiaL/27nN/BU1D7Wr5L1H7zt3ttdu0WrB24T6fY4N1CSGE0Coa6kV6AJfLla91PwAAMsvIyAh/zytJZmbxCzoBoOor6zCWNrKx4cT5P8wmhGS9jAo96zGrhfHm+Mey/AXnHE0dTZqr1aqlbuH4jlJzaN9CsOtY/L3PxFpNmsFVLFqnkWO7dl+/EaBTz788mvQwHzht9MYOF6bUo5MPjbDvvSfLevi8Tata1tZU5FKSu6u7uv9d+Hxd5wWRzyY8OH/6VFR0dNTpgNE7ly3uuu506LB6FE0RSui08ORCR8F3jSrV0P1hFgrLsuT7z2pWIpEUbKMomtBaPdcenGz1Xd+l1WsLfzix4j74WYmk8Pou9WWvUp9UPqVES9E0RXjWUw6s7aH17aCeEurX45CSElufX0ExyjaqmlaN776FQaFx9871Ft++d/uRmOhipj8AAEB5KCoqlr4TAFRJZS0BsEnPXip7tK2n9PDeZ6Jo2tpK+XnwOxmfKMs1a2ohZO68fS8hZoUjBbFIzBJaIJCdKQDFo7SsrE04h/93676Y1Ms+tXv/a479+v3rRxl8GbRnv5BksuSbpfdcjfoO7vUd3MctkiSfne7SftXsZZFeO52MjFQpJktgaNOidhmWnfA0tdRoJultEkN0viSd/fTqRQpLahJCCK1fw5DHPshTNmveogyT4Wl1LU0eEb1/m8KSgrsOSBKeJ4i/jPE5BsYGHMnLFwkiYl74EksSX76WcPSNDH57eFhatGLDGgYcNoPSadbCpoQOVXxiOyn8bnhygclJ+5DJ166u+DX/bHZWNksJFRUwlwIAAAAA5E5Z7wXAfjoX4BdrNHF76L6QkB2Ta57zW33259/DJhsozQ592im/ObD54NuCYgeTeCjsQi6/SSsrWa98il/EnHko5hjXMuYQNiczU0z4WjpqBd1F9Pjv1eEfGFYilrCETY5dNcJrdsSHwv7A0Wzu2ESVZKZliImgRUdHDfHN4L1FVo1IXoVOGzpj981ivniNZ9G8qYL4fmTUi4IJJkziobCLuV/2pFTtO7RSzDkbtO/F1wkoef/bMW6k34EHxSxLUWzazJybF3c6pjA40aPw8NsF3wjAqeXsbEqnnN4fk14YSs7N8GMviJ6jc8PfLvOUFi3Xor2LIfv0YND5T4UPs8kn5w+dtPF8UmmJhTLIPeNTV9PAZuLptMIcsh+jdx18zmrb2pvLeh0PAEDutWzZUtohAABUOWX/J5hJu7V3rvfeSoylyqF0+y3y2203ydu+x+2xPRuppN0+sH7d0c/1RvsNKssF7T+I5Hn039tT8zsDK85MfnrtyN79V/Nq9J87wpJLKK1Wdg350cf9pwdqeNWjEm+Er9/0oOVAu7Orr8UciOyibFVdEn9oaej911PGdLcyVmYzXl4LXr4vRatTHwclQlFuvn7tonwWde2WNXuEc12lrGfnd/kvP5zquGVmtR8vw1La3Ub3m3dqp1+vIZKpvcwVP/4btnpvagMjzs38BQK00V+LpuxqN39yx74fZg5qW0OQdv/05iVrztD9HeYVMzWeU8dzdKcVg45M7OGTNq5jLc6by4EBx6iG6vTd/Mn+vKbjFnsF9941xE3Zb6Kbucqnh6c3LQh4pNl5+zSHCqjylBat0Hbqkt6HvDa6u7JzxndtqCFKvLZv5dK9z8wXjVGlCKWmWUJigRBCCJN0bf/ROxkMIZKndzNYhlwN3bFdiyIUv46zp72x7fhZzvtGbevTNnnkENeGmsz7WxHbthx9pdfj75nOsl7Gk2Ol9ArZ+usNACW5dOmStEOQWb179w4LC5N2FABQHrgOViKeuc+hs1oLZ68Onjt8ZSZX07SF5+pt80bbqsvWFGI27/qmkdfzf6ZorkBZ28Sitc+WCZMHtdKhCSGchpOCdr4bMy9kuMtmWsO0Zc9JQWED9c6mxw7esXrg0LzQ60sOnVaat2jHtin7fVNzKEWtWo3tJwTPnd5blyKE8OqPDr+g5z9vdfBsj1UpeYLqJpZOk0N9p/UwKW6mPaXuuub47moTF4f4/rWXVa3d0n1WyMa3w2zi8nLzWEIIUbSZe+pszUULNuya2GdhmlhB29S6w4KjfuNdtIt7UWgDr53HP0+dEhA81WMLXb2+/cBF+yZc6OQUn384itJ223L2WH3fJbv8PDel5PGrmzR1nh3uO6VLzYpZJV5KtLSh++4LGpZ+/oGLB2/7kEWrGjW09d6xc/aAxgJCCLfhpJISC4QQydOwWcNWPCmcZfEhbOawMEIIpeJ5qK+9saDO8AMXdVYsCAgJ9D36IZtW0a/X3GPlxjmjHQ0wDpRdpfUKKYYGACAr9u/fL+0QAKCcqBYtWlRqA4GBgaamppXaRAni4+MbNWp0584dCwsLacVQNYMBqBDo1RUOKYUqCN2yUsXFxVlZWUk7CoBfQ1EUvm2hkuBvQuX51dza2tqWuk/r1q1jY2PLH5M04EoYAAAAAMggsRj3zgEA+B5KAAAAAAAgg3g8nrRDkFn379+XdggAUE4oAQAAAAAAwC+oX7++tEMAgHJCCQAAAAAAAABALqAEAAAAAAAAACAXUAIAAAAAABkkEomkHYLM2rx5s7RDAIByQgkAAAAAAGQQl8uVdggya+TIkdIOAQDKCSUAAAAAAAAAALmAEgAAAAAAAACAXEAJAAAAAABkUKtWraQdgswKDQ2VdggAUE4oAQAAAACADLp8+bK0Q5BZvXv3lnYIAFBOKAEAAAAAAAAAyAWUAAAAAAAAAADkAkoAAAAAACCDEhISpB2CzLp+/bq0QwCAcpLxr0vNzc0lhNy7dy8vL0/asZAnT55UnWAAKgR6dYVDSqEKyu+W+R+pAH8QQ0NDaYcgs2xsbFiWlXYUAFAe1KNHjyq7jYyMjMpu4mdiYmKmTp0qrdYBAABkxrJlyxwdHaUdBcAvMDU1VVFRmTp16vLly/O3PHv2zMTEJP9nbP+d7VZWVlu2bPkx5wCyZMKECaXu07p169jY2MqPpSJRLVq0qNQGAgMDTU1NK7WJEty4caNZs2YhISF16tSRVgyFnjx54u7uXkWCAagQ6NUVDimFKii/W16/ft3a2lrasciguLg4KysraUchm5DbyoPcVh7ktvL8am5tbW1L3edPLAHI+EIAgUBACDEzM7OwsJB2LITP51edYAAqBHp1hUNKoQrK75b5H6kAAADwR8PtAAEAAAAAAADkAkoAAAAAAAAAAHIBJQAAAAAAAAAAuYASAAAAAAAAAIBcQAkAAAAAAAAAQC6gBAAAAAAAAAAgF1ACAAAAAAAAAJALKAEAAAAAAAAAyAWUAAAAAAAAAADkAkoAAAAAAAAAAHIBJQAAAAAAAAAAuYASAAAAAAAAAIBcQAkAAAAAAAAAQC6gBAAAAAAAAAAgF1AC+Ln0IDcFqjgc7aGn8v7zcPLOjDbk8OrPuC4u2/5MYsQUJ9PqCjy+eo+gZLZygyuH3PD+yrRC938+SzsQQnKPeKnSCm5B6f9ts+z7re2FHN1hp0vtTCXnKu/0MF1O0Q5Kc/hKWrWsO49ed/bt971FnBy3129QR+vaumqKfL6Cmn79lm6jl0c8/Fz1esivY9NjfOrxaV4j39tFzptJvrJpTMfGRuqKwmrVTWx6TA/+36eCs2VerLEVcGuOOyeSSsBQqUSJUYs6myjQglYrnzLSDgYAAACgiuBKO4AqTLHFmI3buki+2SZ5fsDP/2yNOkYcKQVVZuL4bbMDYpNbTtwx2bFeYxVK2vEQQrKPD645gN2Z+HcnASGEU6fjqHEG9erzpB2W1FCKFt3H+Ng0q1FqZypDrjhGbnNmdzbIr+lJspOfXj20Z9u4dseu7L2wp49h/mb244Ulffv4Rr+vVtepu9ckM30lJu153KmDO6dF7Nr5184T2/rW/JP/ILDpZ+aM3PxYTL7JZ+blue2dlzyq0d1n/kQz5dR/961d42V/K+3C0ZH1/uSThVJk3g+eMdhny2MFLbzMAAAAAEXhv6Of49VxHlTnmy2SZ5tcp6aZTzjsY1blSwBsakoqy23Ua4xn1xq/PNdDnCfi8HkVCKYOyAAAIABJREFUXDYQ3z1/OZVtUfAr18LLf3XFtvCnUW45YkXLsuxYhlzR1Zv2GOJt8bVfjp0yyt7Nevi+GatGdVvVmk8I83LXwB5zYkTNp506uKCdbuFbf97i/20f1Gnkbu8BjRqfmVC/yvfsn2DTz8wZuTWzXeem0Se+Tqtgnu+cufq2cu+9McF9dShCiIdnZ2PnJhN95x9xD+qhXhUqY1AJJPEr+3uHa02JuO5wytlpvbTDAQAAAKhCyj44pDWaDVkWGBYWErx3+0KPxqry988zk7Bn/JwzmsPWTLdRkHYsRPJ4eUu+oM2qu/8LntSxoZ6ygK+oWcfWe3NcBps/b1zgsD5BknduXE0OJeywPYklRPL+wvrRrk1qaCjyBUqaJlZdfLZcSS6YHpt72FOVo+19+NZ2DwstobLzpgRJ6u7OQl6DGefuBk9ob6ajJBCoGtl4rL2WnvMsfKZbE0NVBYGyfpNeS89+XWQgenVq6SCnhgZqCjy+grqxZccxW6+nsoQQIro0qY7QZukD0cddnYUUv7n/Q8n3k9tLCk90ZWpdrkK3Pa/ito5wqKdVjc9X0jFzGRf8MOfLk5mk82uGt29srKHI5wlUdOu1cZ978FH2T3LHfrqza4yLmY6SQKBs0LjLjPBnueSb7ixJurhhtGsTYw1FgYKKXgM7rwURT3N+crCSms6LHK7HETpvefd1kn1ezCgDjsBpYyJTdCGA+LZfYx7XaGTUNyFnR44w5PAs590Rl2vRBKdmXy97Beb1lSsJDCEk++zyeceTVdovC1lUZPxPCCFK5kO27V41c/6YNmp/7Gzp/ALA524rFnYsOq5nEo+HX87V6z60m07BVm5tzyFOCikn9sd8zSaHyyQc9+1uafDt+wj+WJS6nV/0zZN+LobyO8sIAAAAoHhlLQFQKvbjp1vdmefV273foIXxzaaPbaMkX0UA9uPRObNPCvr6z7VTlnYshBCKx+NSklchw4cd0Bn7z9VHz+IjptZ9/PdY93mXcgnfccmla9vcdWme9bSTN/+9trGHBkmNmujgPC4kpfmk7UdjzxzZ4tM4MXCUk/OcS5lfjsfnkazHW2dsyu25eOffs9ppcLhcLsV8ODF1XITJ9PCbD25HTDR9GjLJs3f3v7YLvHdfun/v3Cr79MOzB/ieyR+4Zp6d6tx1VkSOw6y/j0SeOrB2iPGDrSM7eO58xRDCs5x0JGZeWz6l0nXttX+vBw2q+e3FZrbk8Cgul0uJ723wnHCp0ZxD/z55ejN4sPq19YO9Au5JCCGSx2t7u046mGk3fduh01HHgxb30/53RV8Xn+NpxYzj2KSDIzp6b47XH7ThcPTJPXMd3/t7Lrrxdek4+/HUOLt248OzHWcHnoyNDFveT/Pakh5tvfa+Lm58/EtN/xS3oXu/JvSbiLDzRWoAmbH7Dr/lNfPsb17euTo8oZBLWIlYzBIiunH42GtW021Uf+Mf3/SUmt3YhRP6NNP9Q8dLbHrM7JFbP7mtWt1b/5uzE9+79T8R17ypBf/rNkqlUZPa9Kc7t54UvuiiGwvc/Z63mLrt4JF/FndVvrVzrLvfxdz/Ln6oaLShnVsLLdzqBgAAAOBHZR1ccIzNTNOv7XqeQwjJe3Hs+Msgu8a88xf/+5viSUvezYA5wWmtV/i5Va8ipQ+KIpI3yU12nZnqWI0QQvQmzPXcdjogOuqhpHWjGhaN62jyKErJ0KyxpRFNJI+Wz9nyUKlHUMSmftoUIYS0srcWvDQfu27RvrFHB+tShMvlkKwr71rduDLHIn8g+JmiCJOa1GDCOR8HFUKIwZRxrmti914UT3w4p4shTYjxoCkea8OWnj/7SOzYmCt58eRzPQevLmsDhtblEEKIQ2vhvZp9Dwcffzd4hL6ifoOGxsoU4WrUamTZWEAIKTrCkjzeXmJ4hKL+z959R0VxtXEAvjOzlbJ0kKKAYhfEXrBgwW7URI09sUcTeyyxl2hi7ImJXWOJxhK7iV3ksyuKYAe79A7L9pn5/kAQYVkWBEH29xyPZ5l235m5W+47d+5QhH2hbrt/09i6QkKIW/e5P/Tc3GPPmYux02s5p1w6c11RYfjC5WPbigghpHW7Tk1rrTiaaqHgiXWu08W92L36nxhZz11//9TfniKE+Pk3knaqPTarxa4L/XXaxgj3ceePr2hpTgghzVq0rSfwqz933sqrfVb6id7fGm+waONPJlOt74CmC74/fiBI0aGjWebhP7/3WJy4xZwvqzCkaGPVKW9dvCGnbGp7V2QIn/T4UTQraN7It/R7sBQ3PvX87LGb0nv8ubqPMx333ixFbEwaL3FwfK/TEuPg5MBwIVGx3NscKBv5xGH53e19HSlCSIC/w7Pz7dadP/eYbeHzqd4VAQAAAACQD2Mvk7Bvwl/YNfWvbkETQkutzBixvb0JdQPgEw4u/eOB08AZQ6uUpQtLlFWrTs3Ns/5iKrg5M3xyYnLeq9V8wsWzdzTSVp93dcw+aXTFzt18BfJrgTff9nGnCFOtS7ea718IFjVo00L29rXQ0cmWZqq2aF7h7UGgHZ0daD41OYUnhDC1h286evLPt+1/Qggx9/B0YrjE+KSCupcbFR6h3dt3rJUdndDZ1ZHO3FvK3MPTiYo5smL5iQdJma1lUa2+P8wY2col79lS3Lp6VyOs394/O5VDu3X9rGHWdtnnp0895FwDuvkyqiysR4dONahXF84/YXNvrVBFG0J79B7QQhx7fH+QInNC2pm9JxLM2w36ws24DfE6eWJMlqiXD6/sX9RvyO9PpY0nTmhvRgivyFDwhLaUWZalClwcshIAK1f1dc69b7xKqeYpkVj0/keVSCwivEqlykr7UFbt+3fPrnrCSpUr5vM+AgAAAAD41BnbHuBTzqz8Obja1C1/796x6ZdJXapKNBqNydwtyz3b9fux1OpfjW5nUdqhvIe2tJLluE7JMAwhPK/ntLAxb6JZ2t7NNeclYLqCqzNDMmKiU7PWYJxcnN6/7kkJLC3frUPRNKEtLC2yag1F0TT1rkTVsxM/j+jcqKqLrcxcKpVILFqsCGcJ0RdQUcKjZdZWOeorw9CE8BxHCJH4/7j3l8/MguZ0r+Nk596w81fT1xwOTczTXieEEC45Nk5NhE4VbN+1CmkHF6essQ+5qFeRHPtybTuZ9B2LRotCdWz066i8myxE0YbRrr0GtjWLO7E/MIMQQlJO7/sv2brz4B6ORibadPeWtXFzfsvVo5bfl/MDRV0WHjk8va6IEEJZWFnSFFfuGrZvEwCfrVjVV0/ShZJIJRSvUef6qFKr1ISSSiXZSSCZrU2O/lACgSCf9xEAAAAAwKfO+LuMufirm2Zc3UQIIcKG3+91U77Kb7S1cocNP7DnOltndt+6n/YDFHK3aTJbORT1rpHJMEXu+cwnHP7Gv89ORcPRC9atbFbF3kxAsfdWfdZvWzGGly/Kuunkg49GPL969uTZc+fOnt74/c4Vi1v/eOL4jEbmuRbV17TjWTa7YUzRFBF4jdj253Cv3NkQh+p6bpUvRNEF7IPjZwM7yv47cSAwo0sX9cm9J1Mdeg3pYvSY9UzlwWt/G+BBZ+6DUGrjWr1OdSdp1uqUVc06lZj/Qi9dS53gUW4Gws9MAKR1Xb+4q0whlxNC+Aw1yxNeq8iQZ4il5mbOLtaUKjYmhSfZ4wESNjYqhqWd3fJ0GgAAAAAAKPeK0KalHdv3aa28OC1vr+hyinv13/EQzn18wCf7vDTCuLi7CbinL19lkHd3qLORryJ1lKWra7E83SH11PYDbxj/tQfWjn37cHqifMFm8ERmeL3iC4+Wefp9Psbv8zHz+LQ7S3v4z/px4YHhR79yeG912sbBXki0sdGJPHF5O4d9/fy17m1igHFzr8hwTzjb+k2bGn/XfD5FW9E0RXiOZXmS9cgBXWpqRj6XlynbLgO72B46cSBQ3iRl32m52+DBheh1Qsu8/Dp28s63igrq9epReeXyf1f/EdZrlo8411z55RkdRt/r8tv2WW3KylgXxtCFHT/+VB3zZGi1g0Pfm/FTc+ufJJ/vSTjQur6PeFPYrRD1qI6St/P4xOCbzzibvg29BISUrz4RAAAAAAAFKeR1MKFtrW7Tl411/Hf5zkdFG6LsEyS/filEK/Vt5P2JDpdOCKHs/Ds0EquCDhyNzm5/6iKOHA5hrfw7NMndHiwKXpWRoSMiByfrrCqlDd+26lA8x7M6Nvuea0J0Oj2Zow8MT3Fr07jBE/96lr1lSubdrokzrU1LVeRpbpvVb1RboAk+fT4+a5b2yaFDd7MGh6fdAzrUYhL/3Xk87t2q8qurx4z/5eSrvKEbLpq2trWhuZio2OyGZlrQf5fk+fYwlwUM6uGUdObYiSMHzikqfzm4hSS/JYtA1HjSws8rqG/82HfUzkeKHDP41Nu/Deq/4noccfbIPXhiGSfwGb//4v9yCjoytZGQqTJ0W+D/zi1uL6Wcuvbxt4g7tH5/ZPbjL+9u2BCoce3V379wvTQAAAAAAMoDo3sBUHYdZq8ZUYeLvR+0fcKaC8/ytq3KK93zR+EqxqWye3G2xz42uvLwH8dt67xi4mejkmf0r++gfhm0dfFP1yQtls7pVSyXfSmH5q3riM79u3TGDtvB1anIW4fWrnvU7OvWF1fdOP/Pme6WTRpWMXOwt6Aygv5cs4+t4tqgV8NiC0/iKHh5cu224DePJ/VvXsWGyYi6e3jNxghzv2875x1Lj/Ea9G3X5UOPTv58fMqEzpWZqKs7Vp+g6tjQ9zLvEGDqfLd09J4ef4zqJH4xtV8jZyru7tHflmwMdpzY78e8l9gNF83Uat/Gden67Yv+6LisT1VR3K2/5i8Jc6jAxOT35jH3H/i56/aDc35KU9b+fmCD4s050c59Nx56mfL57J1f1Tv3e7ee7eu529Bpz27+98/x24k2beYf3DHM8xPr50LJPBv6eeacwsfct6IpVcV6fi0yb9txHbTkhz/9Z33Ttte9sT1rmcVe2/nr5hDH3jtnB5StcT2gOHFxNw4cD03jCGGf3kvjOXJ935bNDhShRF4Bg/z1PBYTAAAAwHQYnQLgE08vGnS6JEMpq7ik+ESOcrH5xC6Q5mbZ6uezZzzm/7hx+fBdsQraqpKP//hd+2f2q1McfQAIIUydKbu2xny34O/RHdbTtlWbfTFl1/6vnS+mBg7bsurrkZp9N5e2bjdp3mdX5vw7f8ytmqN2ftbwvdU/JDy60te7zgp+XPTH33OGLk1Q8BLbSnX8hm7aMPvrqnqatLTr4K3/yqdNXb1n2sANtF0N/68X7510qWu7sMxR4yjKtsPqwLM1Fi7e/NvYvdFyYuFco1nv1WfmfeOn55aGAoqW+i/6e0Xa5NXzAmpMYeyqtRw0d/O650Mbh2nV+TxOU9J8QB+PdcsjmKZLB9Qu9pEnKKsm0/4NDdi79rcdRwP3rj6SrGYsK1StHzB12/gJAxs5fNojXeRH4jv92HmHBXN++2vu2HideUXfDnMPLZ7arSKageUY+3T/rFHLI7I758TvnzlqPyGEkg06/KV/pWL6zAMAAAD4JFFNmzYt0QJ27NhRtWrVEi3CgLCwMB8fn9DQUG9v79KKoWwGA1AsUKuLHQ4plEGoliUqODi4QYMGpR1F+YRjW3JwbEsOjm3JKeyxbdWqVYHL+Pn5BQYGFj2m0oBLYQAAAAAAAAAmASkAAAAAAAAAAJOAFAAAAAAAAACASUAKAAAAAAAAAMAkIAUAAAAAAAAAYBKQAgAAAAAAAAAwCUgBAAAAAAAAAJgEpAAAAAAAAAAATAJSAAAAAAAAAAAmASkAAAAAAAAAAJOAFAAAAAAAAACASUAKAAAAAAAAAMAkIAUAAAAAAAAAYBKQAgAAAAAAAAAwCYLSDqBkqdVqQsiDBw80Gk1px0IiIiLKTjAAxQK1utjhkEIZlFktM79SAQAA4JNGPXnypKTLSEtLK+ki8nP+/Plp06aVVukAAADlxi+//NK2bdvSjgIAAOAjmTRpUoHL+Pn5BQYGlnwsxUkwZMiQEi1gx44dDRo0KNEiDOB5nhDy999/e3l5lVYM2SIiIvr161dGggEoFqjVxQ6HFMqgzGrZpk2bUvxCL8eCg4NxYEsIjm3JwbEtOTi2JQfHNlM5vxFALBYTQmrVquXt7V3asRCRSFR2ggEoFqjVxQ6HFMqgzGqZ+ZUKAAAAnzQMBwgAAAAAAABgEpACAAAAAAAAADAJSAEAAAAAAAAAmASkAAAAAAAAAABMAlIAAAAAAAAAACYBKQAAAAAAAAAAk4AUAAAAAAAAAIBJQAoAAAAAAAAAwCQgBQAAAAAAAABgEpACAAAAAAAAADAJSAEAAAAAAAAAmASkAAAAAAAAAABMAlIAAAAAAAAAACYBKQAAAAAAAAAAk4AUAAAAAAAAAIBJQArAsIzHBxcM8q/pYiURisxs3X07jVpx9rWmtKP6aLgXa1qJqSw0LZDIHD3rtuk7ceXRh6lcaUdXJmmDJngIxK3WvMDh+Zi0kWcXd/OU0uLmK57mPvJcwrV133WuW9HGTGJu59n48xl77qfzWfNerGklFnhMCNJ+7IihZOligtaO7exb0VoiEls4ejXtPeOv0DS+4PUAAAAAyjtBaQdQlnFPN/ZpMea8rOv0JX+18bLSxd49snrR9C5nHvxzc3N3e6q0w/tYKFGjb9aMqi8ghNPIk6LCb184vvH7A+tWdVy4d/e05jbl7jjork+v3fbBzDdHvzJu395fnnbzHzZeaFNPVu6OS5mV8XDPD8PGbwiXOuj7OMu4OrdjwE9P3HuNXzi5lmXynb2/rhnsH5Jy6fiY6vj0K6/4uGNjWvbeGuvVc+yC8bWtVc8v/Pnb8iH+1+MvnZ5YS1ja0QEAAACUKvwIzh/7eO/Gs0mOQ3b8vaCzGSGEkJZtm9IPKn/395ZTK7oPtC7l8D4exrPd0BFfiN9NWPX63zlfDlo+s8dguxtHRngypRdaCeBeX7n8grUp6vJM5V5zV/YqkchAHzZsxYARhxymHrvZ5lRAu7W55nLPt85cddeyz1/n93zpRBFCBg7qVimg3uR5C4/22/V5+ctfASGEsPfWz9n+3HHwP0HbethRhBAyZGAjoXf3bavWX/n219bIAQAAAIBJM+JGAEpWd8T644vbiXNMGLRk+8EjRw//9cvQ+tbl91c0IxAQSiiVvsuTUGYWZjRhBALTvoFCVLHLzwfXfm6f9N/8JWfkbyfyKXe2f/95kyoOFmKxmU1Fnw4jV5x7o3u3kvbVqZ+/al2jgqVEbO5YvfXXy85FZs7N+PsLKW3R/6D63bLKfX2klLTvATUhhA1f1kwkbrEy5OaGka2q2puJpLZVWo3e/kAhv7djfIdaFSwlEiv3Zl+vu53+rpcvG3f592+71KtkayaWypxrth686NhT1dt56hNf2wocR5x4HbR8cLPKtlKhWObq22P2idc6QtjHS5tIKk++rFEf/9qWFnhNuaIlhLBxl9aO7VzP3c5cJJRYudRuO2xFYDRLiN7lc98IYOiwZO3avft7pnSu42wpFpnZe7UasT4YHZaNR9m0nn/u9sn5Hdz0tOy4yH8PXVU79xrZ0ynrc0pQZdDwdtLE/w6cl2cvxgi41//O6+XrilNQLvBmjUcuXrJyahe7rLNOWTVv5Stk415Hqg2uCQAAAFD+GW7KUrKqHb5Zumacn53k3TSr1pPn+r9cNqRnj0E/hTefPblNeU0CMF4Dxvd0iv5r9uyDoTFytSr19Y2d05afp+uMHtdZVtrBlTaqQu9x/SpR0ccPXVUTQojy1o+dWg/b8MRr1G+Hzl/4b/usNooj07r4jz2RwBNCCB93ZLR/93kXzXrM27xv35bZAey/P3RpN+lMSsENLUooFFDsq7++nXm7+dKTdx/d2v2VTfCmbwZ80fubY57T/rn1KOzk7NrPd04YuuJuZsuaTzo1oXX7iYeUbWfvOBl4Zv+y/vY3fvq85eC/3nCEEEIJhEI+/dqPQxa8Clh+KuxZ+NWNn3Gnfxowenskx3gM3XVlTXcZJWq58OKd4GNTfIVEe/fnbp0m7IquO2HdwdNnjmycVC9u37RuvZbd0xGib/n3GD4sb3ft79Gj/nEat/v6k2dhx6ZVC982rt+CK2ioGIt2a92jqUM+H2S6ByH3tYLa9b1F76ZRMp96Vej00JCI7ASV9taifvOfN5226eDR3Us+swzZOq7f/Ms4BZ8sQZVO306d1qd2jnej+tG9CJ3AvbqXJP/VAAAAAEyC4RsBKKGMebZ9yna7CQc7Zk2y8uva8Mm+AfflPE/u/73/8Z4uflYXThjRlPv00G4Ddl0Sf//l6L6+y1ieEEJJKnWYdWLnzNYmnwEghIh8GnoLuVOPH8VxAW5xexcsv8m2WnV0x/jKDCGENG/V3Da2Vv/ti7ZM6TS9On/n11k7X1eZFHRoaTMJIYR81s4uutao/ZuOz2k/yLygkiiKsNEZfvt+HdpUTAjp+cM3LdeNOnPLZu+Tie1tKELcJkzuuerUtqDLMZyvG60L/XXaxgj3ceePr2hpTgghzVq0rSfwqz933sqrfVb6iQhFUUT9wqz38dVDPGhCiOuXiybv2j4s6PRV5fDejlW9K9swhLKq5F23rg1FCPcqPMmtZa++CzdObiQihBD/1g4v/9dh496DD6fW8RbnWT7nsHJ8jOHDQhGKImxUQr0/L0xra04IIc6T5g7adHr1ubOPWT+f8nWDRalQxMak8RIHR6ucaUrGwcmB4UKiYrm3OVA28onD8rvb+zpShJAAf4dn59utO3/uMdsCp+ATp5PHxSbJk1/ePLRy1q8vqw7bPaEh7n0DAAAAU2e4FwCXGPzf6ftJOXpzE8atsltC+FN55rVdxbOIBDdPt3L6Q5lPubRk8OgNUXUnrj8aeOXy2f2rvnYNXtRvwMrgjNIOrSyQWlgIKF6pVPJEee3MpXRBw149PLKrAmXfoVtzsfbuxctJPPv83NknfIV2XRpmXYKjHAb+E58Rs2+Qo3FdSGir5v713t6KQlk5OUmJwKdls6yGHe1QwYHmU5JTeULY56dPPeRcA7r5MqosrEeHTjWoVxfOP2Hfbk9Qp2NAxazKT8lcXGSUJjkxXU8ii67Ue8XB/w583yj7OrLIo7IbwyXGJxU45n8BhyVrd1p1ap6dBmEquDkzfHJiMh4oUAx4lVLNUyKx6P1aJhKLCK9SqbJON2XVvn/37JoorFS5Ik5BucBGrO3m6V7Fu1X/paHVph48+0cPZ9O+hQsAAACAFGE4QEpiJlEmKN/+xSsVKom9tHzeCaAN/mX04utOk4KO/dIsczjA5m3beSrrfD5n4saegZO8ymniw1h8amKSlqetbaxpLikySkFErhUr5PyBbebiYkuxsVFxHJfwOpqjnVycivz7m7KwtHi3Mk3ThLaQZU+haJqmCM9xhBAu6lUkx75e206We2Q42ul1FEvqZL62srbKEQzN0IRwvP42ny4qcN2SVbvPBodHJ2doWJ4nnFZLXEmBHV8KOizEjhBCaEsrWY6qxDAMITxfHnvVfHyURCqheI1a8/7hVKvUhJJKJVmfW7TM1ibHJ6FAIMApKBdotz4rD9eOT49/dvPYtl+71z03de/RH9valc/vKwAAAAAjFToFwKsUaqmZ9O1flNRcqspQlssfy+zLwAvhnNPIzg3MsqdRNq3bNxTuOHPxunySl1UpBlcGyK8G3dYK3H3r2lIkhuj7Vc3zPCEUlTWL4z7KZVWKpojAa8S2P4fnStJQAofqwvd76htBHjQjoNOq19UHzl21pHUNJ0shzb3ZPqTLsjjjgtEzLddhgRJk5uxiTaliY1J4kj0eIGFjo2JY2tkNV4TLO8qiSosuVQgh5MuhIzt/V7/j0m9+7nZ/WTM8EgAAAABMWaFTAOybZ6/tW1Yxp56m84Qyq1zF7s2lN2zB632COI4nhNXlvA2C8FqNlic8RZl660EXvm314QS6+si+9QSEtq3oZk4uv3oRxRHPrCPDp79+ncQLGlSsQNPCii40++zFay2pndUs16XFRCazlhVcbSmKIoRj2XcJAj4tpcgDsjNu7hUZ7glnW79pU2nBixdEc3nnzkec97xd2773fhu6Lp1kGBVdQYflw6ODAgjr1PcRbwq7FaIe1THrJhQ+MfjmM86mb0MvASHo7F8OcXE3Dhy+oarVd1ALx3d3+zRuXkf4x8mHT+R8MzwMEgAAAExZoZshfOql4zeq9h1Q24KiLGr361Mj5OSV1HLZC4Bxb9igApUQ+O/1d3f+80kXztzSCus08jUzsGa5p355eGKfmReVlQYvmVRfSAiRNuvob6W7ffDQ0+xsEBd97OBljaRxQCtrivFs174anXhq39nkrKqS+u+4epVrDtkTxxGBja0VxcZGx2U1x/i4M//dLOTF+my0e0CHWkzivzuPx72rlvKrq8eM/+XkK6NyVRRFCNG9Tf1wigwFT9s72mW9U7iogyt3hut4nY7l9Sz/ngIOS5H2DwqDcurax98i7tD6/ZFZtUt9d8OGQI1rr/7+BY5DCZ8mig37c8r40ZM3hqmyp/HJF8/f1jJOlT3M8cYDAAAA01b44ZH5tKA1P7rPnL7rqC0jf3h48eJzyeUyA0CIuPWU+V0Pjlrbrxs/87sutW252JDDq5fsT60yfP6omqY0EAD7/Ny2zckCQgivUyQ8v33mwIHA57pKn606/Ntn9hQhhFAOvef9sP78D3N7DNTMHdbchYq5uWfpjyc03lMXfe1BE0LXG7d48F99dgzrKpo+JqAS9+z8xhW7k6uOnj7AjSakYYC/7ZZDf8zf1Wxeh4r8m/9tnL0+upKMfkyKdDs2U+e7paP39PhjVCfxi6n9GjlTcXeP/rZkY7DjxH4/GnPWaDtHe1p76+81u23rOdfu3NDfz2Jv4K8z1nuObWCWEPbfhtVBNYfAehVYAAAgAElEQVR0t/r5xOXDR6+5tWpQ3ea95bu2zLGpgg4LLkF/OC7uxoHjoWkcIezTe2k8R67v27LZgSKUyCtgkH8l2nXQkh/+9J/1Tdte98b2rGUWe23nr5tDHHvvnB1gUdqhQwmhnPvNnbzh0o8LAlo/GdW/VVVrNu7eqe2bjkTatF/7nZ+o4A0AAAAAlGdGpQC0QfM6B737k08N2TF98I6SCqnsYCoP23elwsqFK/5aMmx9nJKWudRo0mfVmbljWtmb0oUkXnNz3ZibhBBCKFpoZutWo1H/RT+P/7a3d44L2eK6U48HVvhxwdoN3/acm04sXWr5DVn3x9wRTSwzV3TssSHwWNXZS/78Zcy2JNbSo1GXH48tmRxgQxFCbL9YtXu+bsbGcS12KsUV6rQf8eP2pec6tnus0WgIKfxjvCnbDqsDz9ZYuHjzb2P3RsuJhXONZr1Xn5n3jZ9Rz3IUNhw9d+DJiftWfPugcr/f260btvGvF2Nnbv2+2x5O5t6g27frDo33eSS9dH35ltFfqTZf29jr/eVb2ObcWAGHBT4Y+3T/rFHLI7K7WcTvnzlqPyGEkg06/KV/JTGR+E4/dt5hwZzf/po7Nl5nXtG3w9xDi6d2q4j7MMox86bzz/yv6tKfNhzcMndvvJK2cKpS/7N5C2dP+bwaHgoIAAAApo5q2rRpiRawY8eOqlWrlmgRBoSFhfn4+ISGhnp7e5dWDGUzGIBigVpd7HBIoQxCtSxRwcHBDRo0KO0oyicc25KDY1tycGxLTmGPbatWrQpcxs/PLzAwsOgxlQZcCgMAAAAAAAAwCUgBAAAAAAAAAJgEpAAAAAAAAAAATAJSAAAAAAAAAAAmASkAAAAAAAAAAJOAFAAAAAAAAACASUAKAAAAAAAAAMAkIAUAAAAAAAAAYBKQAgAAAAAAAAAwCUgBAAAAAAAAAJgEpAAAAAAAAAAATAJSAAAAAAAAAAAmASkAAAAAAAAAAJOAFAAAAAAAAACASUAKAAAAAAAAAMAkCEo7gJKlVqsJIQ8ePNBoNKUdC4mIiCg7wQAUC9TqYodDCmVQZrXM/EoFAACATxr15MmTki4jLS2tpIvIz/nz56dNm1ZapQMAAJQbv/zyS9u2bUs7CgAAgI9k0qRJBS7j5+cXGBhY8rEUJ8GQIUNKtIAdO3Y0aNCgRIswwNPTU6VStWvXTiwWl1YM2dRq9blz58pIMADFArW62OGQQhmUWS2HDx9ua2tb2rGUQ8HBwaX4S6l8w7EtOTi2JQfHtuTg2GYq5zcC2NradunSpeycabFYXHaCASgWqNXFDocUyiCxWIz2PwAAQDmA4QABAAAAAAAATAJSAAAAAAAAAAAmASkAAAAAAAAAAJOAFAAAAAAAAACASUAKAAAAAAAAAMAkIAUAAAAAAAAAYBKMSAFQsroj1h9f3E5c4EQAAAAAAAAAKKsEBudSsqoBA0b2b+hgIYkyPBEAAAAAAAAAyjTDvQAooYx5tn3KuG0PtAVMBAAAAAAAAIAyzXAKgEsM/u/0/SRdwRMBAAAAAAAAoEzDcIAAAAAAAAAAJgEpAAAAAAAAAACTgBQAAAAAAAAAgElACgAAAAAAAADAJCAFAAAAAAAAAGASBMYspA2a1znIqIkAAAAAAAAAUDahFwAAAAAAAACASUAKAAAAAAAAAMAkIAUAAAAAAAAAYBKQAgAAAAAAAAAwCUgBAAAAAAAAAJgE6smTJyVdRlpaWkkXAQAAAAAAAFBcJk2aVOAyfn5+gYGBJR9LcRIMGTKkpMu4evVqSRdhQHBwcIMGDUoxgJzKVDAAxQK1utjhkEIZhGpZcnBsSw6ObcnBsS05OLYlB8c2k0AoFJZ0Ga1atSrpIgAAAAAAAACKzM/PL+efWq22tCIpURgLAAAAAAAAAMAkIAUAAAAAAAAAYBIE2a8oinJ3d3dwcBCJRKUYEAAAQKFoNJq4uLhXr17xPF/asQAAAMCn7eeff54xY0ZpR1GC3qUAKlWq5OrqWoqhAAAAFIFIJHJzcyOEvHz5srRjAQAAACjT3t0I4OjoWIpxAAAAfAh8iwEAAAAUCGMBAAAAAAAAAJiEdymAuLi4UowDAADgQ+BbDAAAAKBA78YCePXqFSHE0dERwwECAMAnJHs4wNIOBAAAAKCse5cC4Hn+5cuXGEsJAAAAAAAATFP5fhwAwVgAAAAAAAAAACYCKQAAAAAAAAAAkyDQarWlHQO8I5FISjuE4qdSqUo7BAAAAAAAAEMCAwNLO4SPAb0AAAAAAAAAAEwCUgAAAAAAAAAAJkFgeLaNrbWtrW1iQmJKSmreuRYW5o6ODjqWjY9LUCqVJRNhcZJKpU4VHDmOS0xIzMhQ5F3A8P7mZ9KU8bXq1Mw7nWXZ/06cOnLoWNEjBgAAAAAAACgmBaQAHB0d6tT2DrsXmrdJbGlp6eHp7uPtk5aWFnYv7MXzT+Bpgg6O9g0bNJRIpHdDQ148f5menp5rAQP7a0DN2jXq1PDNO12tUVv3s2EY5uCBwx8Ud4mhpTY2gvTEdF2u1wAAAAAAAFD+FHAjAEVREomEpnMvltn+r+dbTygU0TTNcVyJRVicBAyjY3UCgaCebz0PT3dLS8tcC+S3v8ZQKhW5/j1+8sC9UuW+X/bt/lnX4gi/eNBuPZf988+ynm6Mc581R/Yt6OxIE0LneA0AAAAAAADlUlFafNntf5pm0uVpT589TUxINLB8i5bN27Rt3aJl8+wpFSu5NWrcgKIoA1NyqVe/buUqnjkXyDWlafMmbdq2btnaz0ADPi4uPiIiIl2eRtNMflmAItDpdIQQKg+WZc+c/0+lVHboHPDhpbwjabvw1IUcTi/paJnvgctLaGYulZpJhRRN09mr5XydP4FDs3Eb/z25qJ20KHEDAAAAAABAaSrgRoC8crX/Hz9+/PLFK7331WcTCoVurhXfRL4mhEil0jretSq6VUpKSaQoiuf5vFP0bkQmk3l4eDo6OYbdvZeRkZF3ilgscq/k+er1C5qm8uuUIJdnvHzxihBSvXp1SwtZPd96hBC9dwQUSmYKIG/qoXZNb0KISCS+FXLtQ7avD68OP7Pnf284Qghh34Sr9R81fbjnu7/rsZ9otcS1cSEKpO18vxg5ZmD7qlaMNraw0QIAAAAAAEDpK1wKQG/7v8D2M8uxao2a5VhXN5eqVb3c3CqJhKK4hFhCSJ4p+bZkWZa1klmbm5mbSaVPI569evVax+qyp0REPONYjuc5Hasz3BhOT08v9ixAdi+AvLMuhUX/efLh08gk1qsvHXeDSntR5FJy0Ty9sHvnNW2OKRKPjt9M+qp9dSvVy6t7Vq8++FBOVxux5Y++sSv7zvg3zb7n8t3fijd/PW4/9/nqHaPpTV9NvJzvxvNuiqds63dqwtw+c9ung3dx7QMAAAAAAAB8RAXcCJB5k3/m/5aWlu4eFd+2/9PTHj16+OLFy/T0dEdHh+o1qjk6OuS3EVbHMjTD6ti6detWquRBCE8Ir9Voa9eplWtKPj0ACCFEq9WyrE6lVrm5VfKpW9e3no9Oq8ueUrduXY7naJphdWx+aYTsONPT01+8ePno0cP09Ld3BLh7VMy8IyDn/hpPp2UJIRRF5/p3+V7MtPWXHrxIvPT7AF7qyLp342SehdqyAbS5nYurq6urq4uztZgQyrzhmCVTu9g/P7rjwF1h8zHzRjYoamd9/Ztiw3eN7TdyybHwT+DJDwAAAAAAAKBHASkAluUy/xcIBI6O9hXdKtI0QwiJeBoeGxMnT5cTQmxsbVr4tbSxtclvIzqWJRSxtJQ5OTqxrI5hBBRFa3VaNze3nFM0Wm1+WyCEaLQaQlE0TbGszsHewcPdU6vV5pxiY23H8xzLsvltIWec8nR5bExcxNNwQghNMxXdKjo62gsEguz9NXxYch8lXWYKILctJ+7nWpJ3bFioLeePMm/5/Z+7du3atWvn+lG+AiKp37mdU0bQ+sUbd2/7Zf35VPvmLWoU+i6PTPltSqMuxO0GAAAAAAAAUNYU0ErkODbzf51OFxMbxwgEUqmZTGbl4+2rUqmVSmVGhiI5KfnS5f8lJyXntxFWp2N1uoSEeJZlXV3cGIYhhGg0moiIcJ1Olz1Fq9UYiESr1VKEEgiEQoEoJjb6+fNnDMO8mxITHZcQZ2drq8s/BZAzTnNzMzt7Ox9vX0JIWlrq02fPYmLjdDpd9v4aPiy5d5DTfyPAq7j0mxsHZr7OfNFoxJ+F2nL+eGXI7uWHw1lCeG1MOEdb2tuKaVm7hSfavZ2vtpLRRM4TQvIfY1GvfDYFAAAAAAAAn7gCUgA5r4pnyDPevI7kOM7H20cms2rcqAnHcZFvouLi4uPi4g1sRMeyOlanY9ngW8HxleLq1PEWiyVajTYi/FliQlLOKQY2otVoGYZmOTo0LOTVq9eJCUnVqntlTrkbGvL69Ws3NzeeJ6xOl9+AAtlxmpmZubi6NG7UhGGYtLTU0LDQqMhohUKRa3+NlzmEYd7hAN2dZI1G/UUIublxYOYLSp1UqC0boIu597+L78YCkCalaLj0m3/8sPWumhBCeDYtWsvbKZQ8ZWklo0ianrAJ4QlhssLOes2l69tUcYUNAAAAAAAApaXAXgDv3RuvUCgiI6M4lvP1rSuTWTdt0uwKezkqOlqpMHSDOKvT6Vgdq9MlJSWnp6cnJSfXrFFTq9USQvJOyY9Wq42MjHwS/iQqMkqj0RJCNBpNZGTkk/DHUZHRGo3W2blC5o0ABgYUIIRIzaTOzhWaNmnGMExaWkpIyN3omJjs+Is2FkB+Rn3mPem3wJxT6NibxbLlvFS3z15KbtW2/5g0uxuvVRJ7cm/XrudczKNHSfRnvSZ+x9xS1XSmyfsJiPSUNJapHzCo3bWVZ5NyvNa3qRIKGwAAAAAAAD6aAscCYLP/z6RUKKOio4Nv305NTWEYpnlzPycnR7FEbGAjGo02Ijwis4Wv1epevXx95epVlUqVOTfvFL0yMhQ3btx4+eKVJquzgEKhvH7j+ssXrzOnqNXq4Nu3NBptfo8VJISIxSInJ8fmzf0YhklNTQm+fTtX/iLv/n6IFt6uq8b51/a0azF2N6WMZV4cp9JfFMuW8+LTr/w6c82ZKFu/3oMH927n7WlnQQjR3t2xbHewyqvb18O+8Ba8fvAoUsHnWOXSnp034h3q+9hz77/WtykAAAAAAAD4xFFNmzY1MNupgmP7du3PnjsbGxOXc7pEInZwdGjYoKGVlVVycvKly5cSE4qti3vJsbG1aeHnZ2dnl5qaeiv4VnxcvEqlzrlAfvtr2KIl89q36WRggbMXTs6ZucCYTUkkEuPL/VQYTu4AAAAAAAB8ivz9/QMDA0s7isIpoBeATqfLyMjIe1VcpVLHxcbduHkjLi4uQ6HIHBK/7ON5XqlSJSTE37h5Iy42Llf7n+S/vwAAAAAAAACfugLGApCnywMvBqqUeq7iqtWauNi4S5cvURSVkaEomfCKmVwuv3HjOkVRCoVS7+iDBvYXAAAAAAAA4JNWQApArdao1fk+q0+r1WlT04s7pBKk0+rSDAZseH/z8zTiGc//Z2CBZ08xnB4AAAAAAACUsgJSAGCMP7fuLO0QAAAAAAAAAAqAFEDZsnHjxtIOofgNGTKktEMAAAAAAACAgoYDBAAAAAAAAIDyASkAAAAAAAAAAJNAzZgxo7RjAAAAAAAAAICSFRgYSDVt2rS0wwAAAAAAAACAEocbAQAAAAAAAABMAlIAAAAAAAAAACbB0EMBLUWi7pWrMTRlzIZYjj/27Em6RpM9RaPRiESiDw0QygycUIDShfdg2YTzYrLK06kvI/tSQmGUkb0D+HCozJ+QsnyyDKUAenpVb+FS8W58bF0HJ0LI3fjYvMtkz6rr4MTQ1M4HYSUUKAAAAAB8curVq+fr65trYkhIyJ07d0olHgAAE2coBSBmmJuxUZvDQkZ4+xJCNoeF5F0me9YIb18xw5RQlAAAAADwSctMBISE6Pk9CQAAH42hFAAAAAAAwIe4c+dO5gX/oUOHEkK2bdtW2hEBAJg0pAAAAAAAIF8ah6oqh2qFWkUS/0QUH15C8QBA+WZlZdW5c2eGYViW/ffff9PS0ko7otysrKzatm174cKFlJSU0o6lKIx9IoCPvePgWt55//nYO5ZofHnRjt2XH5jfxoIQYf3RSwZWZ3K8AACAD0RX7Dp9WMMc49fQdk2GDGvj9PbrgrZv/t3qrVvW/bF2QS8PPFTGdLz78jWEsmw4bHwX149XMSiLJsPHBTihJpYslUM1jb2X8ctr7L0KmzIAAMjWvXv3zp07Va/m1blzp+7du5d2OHp07dp10qRJZTM2YxjVC+BufJyIZiyFeoY0fJSUeDc+rtDFCpvMODjX+83LVJ4QQrikwDXz9oWzRq3KxZ1ZOuFqmpwQobWrp72YIoRkvygYbdt4zNKZDjv7zA/SFjrsUtoyAEABBHVGrpvVkk9T8rRQzMff3PvH5nMv1UXaFG3l6V1Fk5VUFbi0+35m5/g/f07gCCGEMNX7jK52acbIA9FcIbZp1mTM924nf/zneWFWgoJ9wJdpYb378jVAWn/EKM97M6O4jxYYLw+9xa8a3zFkzn/xqF0lSZQQIXtwwsiF02p1LdFgTIyw8fSD32vnf7UyWJk1ia7U7/cNvoe+mHFaUZqRFYx2bD7y+6FNbQlLC0jazS3z111N4UspFolXj6mTe7iLaCop6Pcl226XWiBQMKFQ+PLF8wvnz7Vp265sDqovFosJIQJB0TvU59NypCzqjvp1easb44asf8QSw/VWWLnntNGNRaxAF7zpl3/C1ZRdwILFtQ5OWhOizF1abkbFfTMm6mZMVGF3rAC621vGzzlflMayKj5SVaQihZU7T/qui6WSJ8XdRi+5LQMAGIEyt7OP+LPvnPNaQoSOfhNXLBkW/dW6B7oP3jCner5v3vRniVmtN9rBUfTyeiEbW5TA3tPLUWJcohYKp+hfpoVV4Jcv7dChf/Vr635N4Inw4wWmDN19tP/Sz6ud2fDow+s7QBkktrOjLKqP7H0wZOcLlhBCKGv/4Z9V1KU72NJEUaZTX8L6X02odmX88MOxHCECmZU4vdSa3YJqg2d2j1n27aKHWtcvli0b02zkT1cySisYyGPHjh2EkCFDhpR2IB9Hvi1HxrXb9K+kDx9m/egyWG+F9b7omLR93LrHXqPWflH/6NKw+kO/UO+efrfA9j8pS2MBUDb1B0/6uokNIUISeWL1imPP1JTNZ8tXOq0fsSmcJZSs69I1LptGbAqnW8/f0eDI4JX6niSjZyM55uri7vy14Exctcl/dcm7plX9r38Y2dhMreZ1oX/O3Paik56iqVqDl01qKVJrONXtrbO23lEbs2UAgI9KG3fjQtiUAV6W1HOvEYsG1RELzCTKGxt+3HwrhcnvQ4y2bfjVlBF+dqxKqxM42iQ9JiSfT1SKtm4+ZqlzKs8++Hv+1luk0cj3iki11vO5HUEI7dh2wi9V5Lzy1pYFfz9EU63ECHKdYjrXCUphfIatntCUKLUCM0vBm8NLlxwMVxFCWdftP/Gbdq5EreMi9s5aFZgiyb2i4O2Xb4j5e1+XW+9o3hZN2TZvaXXjj+f6L/YXW2AkT7VMvnwxaZW/1+ZHj0qmAwRAqaJtbC2f7tuR2P6rVkcXXkjlibDGl31E//x1r5edNU3e8FY+/SePae9CszQXfX7Dyt0hquaztgdcGjr/ooIQxmv4hm/ip009mmyd9/NcoO9Np3eivq8D2mPgurWNTo6YfCjmbRoi7xTC0IxQIMjM/+rSUnWEECpPwCm8wGf4molNaZWOMZOqHt16Y1vTw4KRyoTP9yxYcuIVMThXZ1RsjGer5urzsx8rCSGRp06+Gti6jvDK9fJ14S77/vm8s8rsHfWflpxH2NvbO/P/gQMHkkIf4XxajsKq/Sc0vrliqWrs75UJIQXVW16tIuaWQkpkYUHUalGNAUPsji+8lGpUnq30UgCC+sN//aM3Twhhn/2zYFVIw+9HWu+f+l2InBdVG/n7xO43Jx6ILeQmKbuOeTcS8y49ystjIgkR6l3XvPmX7d/8/tXae5m/TCkbvQU4VKnwcN3glXdy/3w1tGUAgI+Jtqjcvlv9tPuH0njlzU3f3ySE0C79fp3XveLtndH6P8Qom3ZTJnhcmDzqbDxHxA2m7Pic5PeJSgifcvmP6e+2kKuIXen6o+Lizq+Ztu4hmmjF7v0v05VBuU9xnjpgU8nufuYC5o2nbhzTKej7w4lW7adM874+7Zv5kdm/iPNWnrczcn1d5ojEs7rrqytvsr50SyYwyq5T3moZ/+wZ066qJfUIHXuhHKKtbCzSHp7ccbb9Dz09g7Y/t2o7qH7orsnPuvWpbEVRNu2mTK8bPH30vDdaoUu3hcu+bz9uzuX/3f+2ZT3pxctK2tbHW317WQrR+3lO6XnTJeibmGijb/U3p1bOvREb9+53NpdnivbmtlX1Z/60qeGtf48eOXntpZzTG/CZdJuKtvf+GLzyjo6pNPD3ZU4bBo+9o6HsuixdN6DB6Z9vG5q7NKKdMbHRjs42cUFvJ6iiotSdnC0pklSuPjI6deo0duzY/OZyHLdv376cUzIvvJcp2SFZW1uH3AnOfN2rV682bdqUSjy5eiXkPcINGzZs2LBh5uu8Rzh/eluOwir9x9QMWjonkm2fNclwvdWF7dnmO2L6vC7aVzu2JHefUevK6i2xRvYLMioFUNfBycdB/7B/ofFxd+ML21QnhOTuIihq3ay+k4tozs/9CSGUGUXfsaNJYbcrrKNnIzHGHQnF7VP3e303Z8SRg8fO340t2h20AAClR1B/+K+/f8HRNJsccXn5tH/CWcah8cBRvX1teDVr72YXZkuT6HxWrdOs+qPT8zO797NqtZaQ/D5Rc62Zt4h8UgBQUnL1t8/1i8JgHcgIu/NiircbTdK8/eo8OrEoUmvMivl+XVKWFpRcnv2dWzKB6a2WcfJ0hYXMkiJIAUA5RFlYCBQZmpeH/45c27/pkX3Ve9BH5z5UV2jDWliIhN4tvB8fX/xGSwjRRp0+9mBYp7riM1dP3hnepanFlUC6fgPxrS3RnLBlAZ/n2W+6BH0T0/R+HegSHt9OeC/UvFO4uMvrJl7f49W8yxczNn794NcZG0X6Ar6UvQIb/TiCr2LJE0L4lPBweYCzLMc9ZHrmiiTGxUYIITk/IPjy92nx33//icViqVSad5ZSqTx58mSuiUOGDPH39/8YkRlh2LBhhJCtW7dm/tmmTZvs837nzp0LFy6UUlzvyXmEvb29fXx8QkNDw8LCSD5HuFBox04j6t/eMCWWI7nOYP71lku4sf3nG4QQ2qHzosGPNs+36j11fh0bOvbshvXnIw12uDQqBdCognMjJ5e8Tf26Dk5ihiliCuB9PMdqHvw9b/a5nMOaUDodKyzEEBB6N2IkLvb8kjHBVfy6fjl/3edHZi28XLiiAQBKWZ5br839v53odWn892cTOKH/gh2++a9KUbRAyDDkvXvS9H+ivt+QM2+Zpwi9n9t8Ofyx9UnQc4Jy0mm1VGYf3dwnyMCKub4uF5zMGhmSV6mJ2MiheY0MjOe5XIHprZa0RCJSpShRyaBcYswteIWC59Mv7wkaNG3ud/yjbeMSOE6WoTS3tKDfv+v37ftPFXzk0shR7R1upjSxurn7BUeYAj/P330a6Jn4IT+wCSG6lIig3Uuv3Rv/57edT+zRF3AOvE7HM/Tbl1qWZhjK4FxiXGxcXHSyo6sjTSI5QiTOzqL466U3LkEJSUtLK+yF/cDAwJKJpdAyUwDZ8Xh6enp6VMp8/eLFizISZ84jPHToUB8fn+Dg4G3bthXHtimruj5OEvsxS7wJYRxquZh/O+XlL8tPG1VvKctmIz5L3TFD3W1J7ZBZcwMrjPx1eItrCwMNvSeMfY7Ozdioy1Fv0rWay1Fv/rgbnPnvZmyxjRGou3/zUe2ePStLMqOiaUII4RUvX5LadV3zy1OwPC0UUe9e6N2IsSiKYlOfBu1etvl+TX8fSQFFAwCUcZRAKuVTktKN6AmlDQ26W/3zXl7vJZ6N+ETVU4Tez21elZomqeCk58oElChj64D2/vXHtbp1cM1uEBhc8f2vy3dnlX35PMmlkq0xX73GBqa7f/3Re4Hpr5ZiVzfxqxfoAgDlEiW1kKoVSp4QXcShvS9sM/49EKomhKgUaqmFmTbsUlj1bh1cBYQQgXP7rrUe/O+umhA24sgRtvPgIe3tbwY+44z6PDdE/+oC+5oNq9rk3BRtXaVBNfscU2hLO5u3b1/azNpKoFYp9AdcdEbGxj4PuiJu27mqhBDGJaBjpVuBYeVrIIBP3ZAhQ0xmLEC9+OQzi4d9M2n69OnTp8/5OzTqwu8r/nvNGVVvJd5DBkoPbrkuF4rpDLmKZ+UZOrG4gDe5oSaummU9ZFbZfzaq4Dy8ju+WeyHFctk/Fz7p1LKfnL+ftakDp1BxXMTfM1dcSObZB3t+C527aEubjHQ1JRG/OqzI+QXP3r94Z8i3E1tNXJn1Yrm+jRhVPmXdevJP/SrrtJREmHZi/VUFm26oaACAso5PC9p5osWEP9Yp01Wc1Cr2Yka+n2J8yoXli2zHT/p9q1CrJUKJ4uY1Np+P5QKL0Pu5rQ3+51DPH/7Y3C9D9ezg/OVnEsr0GNblh7F1gE88vXyl85T5W/pQCoU28dyyOf/ku2Ker8vsrXDRV68LxzaxPXA0oaAvTKMDSzqzYoXL5PmbP+cUKjbh3LJ5/zzPWy1VdZt5hAUWw/MvwACNvZfxj/rT2HuJEiJKNB7TQZmZSTUqNU8I4ZPOLv76bOZkXqlSSe2lJPncil+cpsze8BnNMXzMhWXLzybxhBAu7tT2uwN+q/XPwBccye9nttEx6F2dcus4cX6uwf+8B80PuNh7buDbRj1tW/Xfbp8AACAASURBVG/A7MG+5pyWpQR02r1Ny4/FJGr1BPwBo2kZG5vuyc4lx6dO+WOzkKaSg1YuvlbGH6do4rRarbuHZ5u27dw9PB8/KYsfJmq1mhCiUhXtKXVGK7jeCir3GeZ5btm6RJ5LOXqo6/gFi3uJyc0tSwp43gXVtGnT/OZZiyW/t+t04fWL7CmZKYDNYSGZf47w9iWEZP6Z83UmjUZTNh/kCEWDEwpQuvAeLJvKzXmhLPwmL2x85cc1V5OKmKKh7TsvWuSxe+K6+x9xRB3a5fNfZsrWTfjz6UcfbLLcnHpS0L5oHKqqHKoVaoOS+Cei+PBcE4cOHUoIMdBvtoQOaXk6U8airFvM+MkvcOovV+Uf7RoWXWnQ71O1iybsjUKWt8SYSGWWyWQ9e/aUSqVKpfLw4cNl8FkG1tbWAQEBp06dMhBbWT5ZhnoBpKhV3547+Xu7TmaM8LU8NXOij73j4Fre2a8JIZl/+tg73ozNZ6QpAAAAKMso8zodG1kLXTysydWkIm6DSzi9/szisd1cZ/0T+ZGaAJSl3+AWT9bP+vjtf5Miig/P256HMoqp0mvmNy0czbQhW36+9vHa/4QQgTjx1LbL0Wj/wwcrwrgGH1lKSsr+/ftLO4qiM9QLIJO1WNLTq5qZoIA+Ogqd9p/wR+kaTfaUspz5gCLACQUoXXgPlk04L++jaZrjPmYbgKYpLveogR9HeTr1Jbov9erV8/X1JYRk/h8SEpL5/507dz5OGOXpTIGJQ2X+hJTlk1XwcHcpatWf90OLsOkyu89QNDihAKUL78GyCeflfR+3/U8IKaX2Pylfp/7j7Etm4//jh1GezhSYOFTmT0hZPlkF9wIAAAAAAAAAgHJAEBMTU9oxAAAAAAAAAECJE8hkstKOAQA+tipVqnzkEp8+ffqRSwQAAAAAgFzo0g5AP2dn59IOAQAAAAAAAKBcKaMpAAAAAAAAAAAoXgU/EQCgDBLQEh+X3m4SDzNOJ2U1UlYjYbWZL977k8t8rZGyWhGnI4RwhMQQzSJh7FVKXrgihVJt5x+4Sg3ol7cEF36j5AklsmMAAAAAAAAlpnApAKlU2rhx47p161auXNnJycnCwoIQIpfLY2Jinj9/fvfu3Rs3biiVypIJtSziOI5o1ZWEOnOGI4V/KpGco15phJRITNOF647Bsmx6erpSqdRqtTxfuIIpihKJRGKxWCaTMQxTqHU5jlPpeJWFGys0L2SxhCKE0WVI5G8kAqqw+5sLw0h9PEbYC50oVkMI4QnhCZU5iyeEpwhPUYQiPPV2Fk8onhCeEIoQmhAXIpqjdeoiMjYFIOWoFmmSFN8ul+p04xmGtXHjarYTXPidubWX8CXy8CuO41QqtVypYVmuCOeXYSgLqVgiKUq9SlWkyi1TtAI1X8gKTRFKxErMU62szK2KUK94rdZFLDYr5IqZFCwbqVbTQmFh95fjOF6ndjMj5kJCCvsG5qkMlrzJIJSg0McZAAAAAKAk5HdDfXR0dPZrysfHx5ht2dra9u/fv3379mKx2MBiarU6MDBw3759OcsoAmdn5w/cwkeg1ah9JerhtR28nW1sLc0FhWwG6DguKT3jblTitodJdxQikcEDm5NcLk9OTq5QoYKzs7OlpaVAULg8jk6nS09Pj4yMjI+Pt7GxMTc3N3JFtUabZlfHvNlXVpVqSS1t6UKWy+l0yvSklBf3lNd3WiaGiYv6qEyGkVavPMZOVEHCaqScNusiv0bKvnud3SNAwmozF5OwGgmrpbOaeWrCNRE9NqY4EU/9Ge7oqRIQQu5Ur7lkxLcRHpUzZ1GR90Qnl1BR94u2I/lRq9VJqUqBma2FlY1UalaEZq1SqUhPTeKUKTYySX5v2LzDAWYo5LG2b2QdhbbVrM1tzGimkOWyXEayIvFxivy0zjHJzdwsd73KbzhArUZT09y8v49PLVdXG0vLIryPktPT779583dY2AO53Pj3kVajqWPNf9WoYq1KDraWZoJCZh90LJuUrrj3Mm7nrTdhKUQkMrZcAAAAAIASUjwpAKFQ2K9fv169ekkkkuyJaWlpiYmJCQkJhBAHBwdbW9ucTxZgWfbgwYO7du3SarVFDt3IFADbpC9VtRlP6Wk28GoF8+Acde9s0WIwTKtRd7dnpzf3shXyRKMkrI4U+rI4RRgBEZslacjPlyOOJTDGtF7kcnl6erqPjw/DMEqlUqfTFeEqsUAgMDMz02q1YWFhMpnMmCyAWqNN9+zo3GUSK7FWaHktW+hODxQhQoaYCylalRL970rL56eKkAWgGTOPquNsxC6SXB3+s15IOI00s9mf1f6XcFoJq5WwWjGnFXG6zN4CxqcAfDPE657aZ/+ppZm/un62sc9ApdSMEEJxLH1rryDwd0pdyNsK8qFWqxPlOluXKjqOVyiUGm1Rzq9IKDA3M2NokhT11M5CoDcLkCsFkKGQx3q98hzsRGS8ilPqeG0RegEIKKGUNuPTyPMdsU5P3XNlAfSmALQaTTsnp3GtWlkJhbxWy7NsEd5HFMNQIlGqRvPrxYvnYmONeR9pNZqOFYWT2vtYiyheqyasrtC9AAhFGAElkqSouZVnQk+90SALAAAAAAClqxhSADY2NrNnz65Zs2b2mufOnbt27dqzZ89yLVm5cuVmzZq1bds2u9SHDx8uWrQoJSWlaKEbmQJI6b1ModP/252mKHMRY/7sMn3zYOF/3xvCcZy3QL42oJotryJsEdMc7zDCJEry7Zkn93QWhi/5siwbFRVVt25dnU6XmV4JCAi4cOGCTqcrQrFCoVAgENy9e9fFxcVwz22O4xJlNZy+XJYhsNKyRSjq/XIZYq5Ljfn7e/v0x4W6xE0zZhWqT5FJXN5d8H/XC+C9Zn/2Zf/Mln/m/2JOJ+J0Ao6lCK8xOgXQWC5Z88wu18Qoe4dlQ0cHNm6e+SeVHi84s5y5f9L4fdGL47jY5AyZa3W5Qq0pavosm0gotDATp0U+drIxz3ucc6YAWJZ9Ln3sPsFebaHQ8R9aroASiuVmr9Ykeiir5axXeVMAHMdVE4kWd+pkRQjPfmjFohgmlZAfTp6M0GgM1yuO46pLNMt6NLSitYQtynvnPYwglRNOPRr8WFnoOxEAAAAAAIqRMSkAxsnJKb/13d3dly5d6u7uTghJTk7eunXrqlWrQkNDk5OT8y6cnJwcFhZ24sSJlJSUqlWrSiQSBweHVq1a3blzJzU1tbChW1payuVGXVZNqhaQ3yyeEA3LcfbuAmtHOuk10aoKG0Z+OLVyZl2b2pZ0Idr/FWsQSxuSnqQvUE5K8VYS5uRrBS0QGthGSkqKtbW1RCLRarVCoXDMmDEDBgxwcXEJDQ1Vq9WF3QuWZQkhPM9nZGRIpVIDSyo0rMB/ktaumlb39s77D/nHcoRlxAKJjA0/JzS+tzktkVQaIhDYcZo0Tp2m06SzmnStJl2rkWu0crVGrtFmqLQKlU6h1CoUOqVCp8zQKTNYlZxVp7Nqc1pIURQhhKdoniI6QrYyRo3n56oRdE42yzXRUqHodCWoxrPw0Ko15BYWRGzO1Qzg3OpSb8IoVaFrezaFUqkzc9JQQg3LEZr5wH8sISyhaIGI1qYLhbnrla2tbfbrlIwUuoeSdme1nIb/YCzP8iKWF3O6OwKp+F29yvu5warV39ar5yWTcSz7wdWK8BwnpihLieTi69eG71Jh1aqJjd2rWop5Lctz1If+0/FiQmRi0fmXiYbfvwAAAAAAJcrS0lLv9JyN63x/KFtbWy9cuNDBwYEU5no+y7LHjx8PCgqaNWuWt7e3g4PDwoULJ0yYULS+AMVCoWE5F18LjwYMTRW4MMVzfPhV5vo+w4tVFGq97aWFaP97tyaDFnBvHtO/jyWcvqudrLauvVlFUVIUMdQUVyqVLi4uGo2GENKyZcuKFSump6eHhYXZ2NikpaUZG0wOGo3G2tr6+fPnNjY2hso1c7FwrKHWFtvQd1qOiCvUypC6mLFxRq0gMKfdh10/NLLIJf6vzpDKAilHUQKOY3hGQz64MwMh/sE3Gt+7u7F3/7+69tIJhVyV5prR+wVXtgmubCU6TRE2KFfzjLW1UssRgbG3SNjILKpUcraxsqQIlZ6hfBkdGxWblN3nRcMTqbm1PC7OzFC1ImlmSdaeQg1blJj10hCNtIoo2SzRltgaWKyCSFTNzo4rUh8WvXidroadXQWh0HB2x1lMalhbcSqWkII/E4yi/X97Zx7fRLX+/+ecmcmedE0XupdCWUsFAUG2IiIIIiKoyOIGKl5BcAOk1YtYUBEEuZeLV/mJiuKVK14QEVSgWFARyl72lqUtXdIlXbJn5vz+mJKmSZqlrYJ+z/vly1dycuaZM+kMrzyf8yx819CgKA5olwgKhUKhUCgUyk2OZwlAIpFkZWWJ/v++fftWrlwZUFZ/XV1dZmbmCy+8MGTIEK1Wm5mZuXDhwlbXBWg7Zhtv9jt+XRHXN9iXBKDGJIT1O7cgPJZMzkKcBCf1hFEzYMf7HmeFsKBCPhYpBvyLyeFnzpyZMWOGUqnMz88vLCxsdQQyxljUFLzAs0o7pwKhPavf2zmVnVX45YmzStTrdeDb1MDSihkzw7ECwyIeE2KHwIsZeEJhscz9bMOYn/Yum/HM0W49gZPZh87ie9zNfbcUX/o1UGt2AgRzwPr3PSPUu0tSWkoCQiAQIghCTGRYl+TYovKqnLx8u73xm7VjzPuyZ2FMglIitOvfFyltVtZHZIoCYw3Ltu95NSwrRz4ceyUCJcK8rTV3gLRrb0liKq+vMuXtI9amC1QipERUAqBQKBQKhUKh3Ox4dqsefPBBMf8/Pz9/xYoVrUg1t9lsK1as0Gq1Xbt27dat25QpUzZs2NDGtXph/sDoSd1CWT/2+VvCLpD/nql588A1o50E+5rMIMJ59CDVYVBf5TIm3PUEll2PJL9jGpRcgON73A/lgLC+lu+ItQaAq1evPv744x9//PHSpUvXrVu3b98+X6tu0abPOQJgATEkwAZ48UFMFy27p9Bi93ScgBgBfNdgJ6zK2nsZp0zENZfFkV69eqWnp4uveZ7fuHEjADAMM3Xq1Ly8vFOnTnm0Y8WcBXM8EuyEwUSwEdwecQCNdCq68uFr87dmjHhvyuP6oGASlmCdso45/j9uR3ZApSIEsUIk8ss1Te+cMKBnJ5PZkvPb0YKr1wRCosJCh/brlZoYw3Hcd7+eEKfxGAm+XGIe8TwSBKE962UAEnjko1MmBsDX72cXlOnp8q5dDXl5pvPnXT6Sp6Yqe/c2nT5tOH7co03G1/ViAowNteJyg+5/TDVktPhaMehu3cpXiLmxByqDUGv6GVIoFAqFQqFQKH8sHiSA0NDQ++67DwBqamqys7PtdvvcuXNHjhxZXFz85JNP+m/aZrMtWbJk7dq1wcHBEyZM2LVr1+/R50+o0wmG2kndurXF/wcAFqOJXYPf+O9PWBnk1wHu/nCnW8n459DyaSBXQ0I3OHsQAECmRLeMaJqDMHn4VVRTBqUFYGu+R+qHg00I4a9XTUtKShKLAmzfvr1Lly45OTl+LdsNnuf9UAGI4HMruTkpYezGB0Ki1WytWfj2nHlLvvFQcbNYAwHAZxyFwKrq+q5glMlYsJLrft3YsWMzMzPFazcYDKIEwHHchg0bFixY0LIEwJoZjiECQwRMiI3YWy0BXI7ukFh6zWUQA9y398dhhw6umvb4toyRgBCffh9YTdyutwIwjZCAWfAjnkMu5Yb27ooAfbp9d0pSwlOD+nMsc/5q6dbcQw/dNaR7Svzp4oorZVUgfs++XGIgwAvNZL6fb7sQwLKdGPhrJ/EFDz78f4DGG9p9WNG1q3bqVEBI2bt3xUcfGZ3+pooePSIeewxhrOrThzeZTGfPejTr/ZKJAIIVAs0C4KJiVINHNb2NjFHcfnf9zi3OZv0QtSgUCoVCoVD+NKSmps6bNy8uLg618OOKEFJUVLRy5crzbts2f1KmT58+ceJE57brRqPx888/37Jli5ej/lx4kAAmT54s9v/7/PPPW8rhxxiPGjWqf//+Fovl0KFDe/fuHTVqVHp6us1mO3jwoMMd1ev1mzZtmjVrFsuyEydOXLNmTbtfQJfOnWKTkuefbp9C3CMnPFBUWGDwsEnvi6gk8tibgBmITYUnllt+3iotPAHpw0l8N2K1IFlTPTnEScgj2bDvC1RwFEoCflQc7rpCoXjppZc0Gk1GRsbChQsDbR0X4FmBBLJn2jOK+/SBsFAFAwBBMvxwL8XDvRTxb5a4m/WCwKnL+69GqhQZb+MRdvR9zM7Ozs7OJoRkZWW99Za/DrYFs2ZGwggCAwIixE5af8M89eqyOw7uf+aLjarrO8AOQhrqF/9rdaerl1Y8+jQA8Lc+wP70PjL5XQgDYT+rAKQmxASpVLlHTsUlJI0d1FscHNBTw0lle/NOPz7ujl6dEq5U1jeZ9QFxj8bv+VGs89uTjxX7M9Lcjo97hgAIbvcto1SGPvQQASg/ejTqllu0U6cWLVtm1+sBgA0J0U6dijAuO3o0Mj097KGHit96SzAa3c36OC9BvC1gxRCHRrsoC3x4tLMdQtqpsgCFQqFQKBRKm1mxYoWjrZuD/Pz8l156yX8j8+bNi4+P9zIBIRQfHz9v3rxZs2a1ZpXthFKpfOONN+bNm9d2U/fffz/bvLC0QqGYNm3aX1kCkMvlI0aMAIDS0tKdOz03OUMIZWZm3nbbbeLbQYMGzZw5U6VSiW+HDh2anp6+atUq8e2OHTvGjx8fHR2dkZHxwQcfmM3tVpZfJDYpGfn2cPwFIRyX3NHTxqKPw4RJCxqj/Z/7NzCcEBYryNV1547V7d5StfbvbHiHiJEPR46eKroQKCTSHNtN0vtO/N6TgSbYO1z9EydOPPTQQ88999zatWsB4HfuRkbc18liNDxFdqnafqGyWaz7gATp+knhKonbejxcqTdnrejWZfbgHjLeyiPsLAG0DgvDmTHHIAGDgNsmAfAYbxpz357kyJdWLsrQy90NTfl22+5+g4516wGYJREp6Mphf00jDP6VlO+gDVHIZcV6Y79uHRVymWP81tTEnXlnZDJpjDa0yZSvr44QcM8CkHdyFSP8GXG2Q4jvjXbidleE3X8/p9Fc2LataMsWaWZmSEqKatCgmm3bAEA9aBCWSqvOnMlfvbp+woRO48aF3nuv7rPPfJzDHQGEwCWA2ouXOggCcnrQ9BcvImc77VnTgEKhUCgUCqVNuPv/ANC9e/eAjMTFxQHAPffcw7fQv5lhmG+++ca7TOCCXC7XarUhISFyuVzsWmWz2UwmU01NjU6nM5lc99h8wrLsokWLUlNTAz3QhR07djhe33333c7jUql0x44dhJAxY8a08Sw3A64SQL9+/aRSKQDs3r27pb90RkaG6P9fvXoVAOLj40X/v7CwUC6XR0dHjxw5cv/+/YcPHwYAnuf37NkzZcoUmUzWt2/f3Nzc9r2AdvT/W28wtR9O6tn4muEAQN7vLr66RLbzw2C1NF4ttfL66p+3XC66kPjkYlEFkPYeLhgbSPod6MgPrVsnxlgqla5Zs8bR7+2HH1xN3Xlnix0TA4MQ9zyFQ3NiwxSM0SZk7azZfKKxycSITvJ/TdBKPVY1cM908Bq5UKsdKCWCHWEeY54wfmxle8OCWTPDYUIYIiAgdtLWSgA6OZsZX90/RPpCSXCctdlzhACG/3bgWLceAI33g78g5I8EEK5RDLuli0zCyVUqQMhZAjBbbZxCrVLIWZZxkgB8uLuEEPcoD3fnPNAR3xIAIS5RAKr0dHXv3jUFBeXffBOrVp/79NPeL71UXVIiKl9VxcWqhoZzn34ap1aXf/NNePfuIf37Nxw9asjPdzHrIxGAoJYkAC4yUhITaziS5+Gz8uqzn37adfp00Xj16dNVO3aFMk2h/zQKgEKhUCgUys2DsxPbasT4/5a8QsdHLaUJuKBQKJKSksLDw13GpVKpVCoNDg5OSkrS6XSXL182uoV5elnh3LlzHZXCKP7gKgH06tVLfPHLL7+0dMytt94KAOXl5c888wxCaP369REREYWFhbNnz5ZKpZ988olKperTp48oAYimpkyZIhpvdwngZsDWY5i738aMepzpPhC2rIAr+RIGhUVG4QlP2g11rCoIABBmGFWQtfsQSYASgEvANsMwjpGBAwe6TJbLvfaC8xtCPO3WKhgAUHB4xT1hAxOkr+yovDNVuWpcOMsgADDb+Mwv89+ZktZkxN1d9B6xjRleAB4xdsTbfUUBiP/ueMmGsGDOxEjEQgDtIgGIHFRbpqVWTK1QT61QyZw8wNBW9WgE7DsKgMFo5qiBIRoVAPTrkvx93qlBaaks0/jl5Ow/0jc1US6Tlukbmkz5ESHiHgVwaMjlVow0t+NLemj+J2NUKu0DD9gMhuNr1kRJpYQQWVnZdzNmRKpUITIZAFT99NPp775LDA4mLBsulZ5cu3bg0qXaBx80Ll0qOAnG/tS39CgBSOPjYjIXMGp12ep/1P/6m8unLDC6r7buPXg4rHs3Y3lF3ZGj8XKFINAoAAqFQqFQKDcLffv2nT17truP7U5lZeV7773n8Nf8R6FQAID/LrqD6OjolJQUMXK5srJSp9PV1dWJjckkEolGo9FqteHh4VqtNiws7MKFC2VlZf6YnTlz5vDhwwNdjBfcpRNxxDlGwCeE65D26KuLxpKDC2a8e6bZz3sh8u55bz17Z9BPHz2W/ZW+WR0pEnrbhGceG5+uVTUUHv16zZptV2oJAEjCBj35zJRB6R2kQuWZI1vfX/uNON56XCWA5ORkAKirq7t06VJLx4hhAlVVVaLzWVlZGRERUV5eTggxm816vV6lUjk7n4WFhfX19Wq1umPHjm1a7E1LUprn8bgu9sEPsldeBQDzuSN1W/8dM+N1589RbJdAT+XFyxUrOPg5OdDTtpSw8PFPlx8Zknh/mqp/vLRDECfWZDxfWj/j33kFRtU7U5ymBpgIAAA8wnaM7YSxIwGuF1yXyWTilcrl8qCgIKPRGB4ePm7cOAAoLi5uyZSF4cQoAEwIBmIX2q0XvQWR9ZF1txgkfRqkbTSlDQtjwkPL9A1e5tw3oHuPpA7i64xbUvNLa5Z9/u2ofmlyKXvg1MWSOsurkwfKZZIDZ4uaygr4TgTwUAsgdV2k89tzT5f7MyI0iwLwJT0Q4iwMaSdN4tTqw6tXh5pMwDAEQMYwqaGhcF0/CpFKQ6RSx9vghoZTn3ySPnNm+L33ln/+ubNZ76cVCLjXApClJMVkvcxq1AAQNXe2sOpfdbmuMmgoozAX6+ov7+YwjuVULjUl27ejAoVCoVAoFEqg+On/A0B4ePjs2bMfeeSRgOyLKfcMw2RmZtYFuOOlUqkwxnV1defPn4+NjZ04cWJaWppWq0UI1dTUnDlzJjc3Ny8vLzU1VaVSaTQa7xJAv379nn32WY8X+84773Ac99prrwHA66+/brFYAip/0HY6DJs59cHRg2MlmFx1+UiQpU1YMGtEuIDcmoYRJnnkgswnUq4e37m1KGXM3TNef7n2ycwci73Lk6++eFd88Q9ff1KGbxk/fuYSdd2MV3J89HT3jqsEEBUVBQCVle3c37qyslKtVkdGRvqe+ieECevgMmIoOFW+4xPztcsyXUGyRgoAagljO7mH2DIR15Q+zQT59Yg6IC10UGsjvm16igIQWbDliq7W/OI9XWKDG/Wtzb9effmLM1ZlDJI1c4k9WPB5WgR2xNiRYMe8Yyt7/vz5f//73wHgtddemz9//qhRo8Tykzk5OV999VVLpiyYMzMS3BgFAPa29Y/4nYiJDM96atzRwrLtRy8cv1Lu/nfpHqudPKQXdgq1emnC0J/OXM49ccFstfZISnyxf3ephN2052CJSUDNEgF8VeZz++vIU9wKhfgx0tyOL+nBqRygOi0tqE+fS7t345ISTefOWCIhdru1utpWVeXi0rNBQRKtFrGsXBCqLl+uPHMm/Pbb6w4dMlyvQ+v7CSGuUQDKHl3iXn2eUTQKlwjjDnNnER7V7nNVASTASTAHAMTmdiIqAVAoFAqFQrmh+On/i2i12oCMq1SqN954o3PnzgCwdOnSRYsW1dbW+n94QUGB0WjU6/XPPvvskCFDnHMHoqOjo6Ojhw8fnp+fv3TpUrVa7WVjT6Ql/x8AJBJJSkrKsmXLACAhIeHChVY2umo18UPH9Db++O3RQXe7ZCcgVcdpLz4ac/pkQde068UTcK85Kxbcptyx4LGj903qIhh2LF/y70uG0IbgDx4fdtdt0fv22W7tl8hU/PzBik+Oc8LO+qCPnh09/FbI+bktK3T9BS+GdlRVuTa3byNVVVVJSUlKpbJ9zd4kEMEO0OTu1p85XLL8qUgZI2OxXNM0HowFW121JCyq6cjA/dDft/K/1xN7HGY00UjSLPoAMRIuLMlmczukNStHjkAARxTAhg0bHC0nBEE4ceLEsGHDGhoajhw54i0RgGFNWCLWAkRA+JsybRsjpJLLB3dPGtw9qbiqftuR8z+cumSyNIqEKplkwYQhKrfkjtG9u47u3VjuxWq3f/zDL5sPnsNytWMCQRi8t0D0VA6wHUb8aQp4XTJgO3YUbLbE4cOT7rijmUGr1Vpebq2oAABJRIQkIgJLm56phOsvZD17NjgaBPq604jQrBaAun96fOZsLGkWo4Uwjpn3lGDma/cfanYwQgghj4oYEW7Gm4pCoVAoFAqlXVi+fHlCQuOPr+Tk5DfffDOgLgCCIJSUlCxevLhv374Wi2Xr1q0HDhwQXf24uLjbb7993Lhx3bt3f/7557Oysnxa8yJ2ZGVlLVu2LDExEQCKiorEvcM/kkNvPTTVbNM+MmB0cwkA9XjqhTFMwbq3P+u6oUkCCI7SqtRKrVqT3FGLbOfPFpgB49rTZ8qYIQkpKUzObzV6O8Qk39orvqi0XsXwPuFzBgAAGBRJREFUZkS0bd1W99AUEPyu6OA/7W7wpsKur2SinNSNhprUYKn7BWOJlNOEOI/wDbWB1ri7QRIAaSkKYNnYiGn9ggGgqNIYEybHCE3sG5WWEPLUF9fOV1iamQg8EQAACEI2xDBYcEQBXLly5cqVK85z9u3b59OOGXNmhsNAkCgBCL9rA4VWwjCM/Hptv06xshditU/f1W/n8YLTJVWjeiWnRodq5J5zDYwW6/d5py+XV+UcP1dlxVgd2uxjv8oBuv51Toy81oqR5uUAA2gKqB08GHOc3WwuOnDAUFkpWK2sQiFVqeIGDpTFxcni4sRp5pqaqz/8YK6pAQAskagiI+MGDmQkktDbbqv48kuHWR80TwRIePU5xDLusxDLxC18Rnhjrf6nxjQ5Rq2Mf3mGpUx37Z+fu8+nUQAUCoVCoVD+wrRL278vvvgiISFh4cKFSUlJM2bM6NixIyGkoKDgf//7365du5YuXfr5555+ZbWBVvih7mn/AdVW5M1mANffloTrPn7m8Pj8t5/9vl7RpWlJ9n2vPX0mCFfr5BNlCGwmkx1AgojRaEZEJldgMOV89PGghY+Pf3vtfeIRAqpra1EzVwnAaDRqNJrQ0FCPs1uNaNBgMLSv2ZsE86XT0ijHfiSo0oeiXR2g2s076nMX4pq5cIbzx4IDPNeNkQBIi7UARP//Pwcuz990cnRaxHtP9OUY3DlC+u3TCYu2NU/g8ZAI4Ne18AjbEOuIAmgdFoYziYkAQBAA3+ZGEkJMD/uAR9iDn0H7lRVgGMa5vD8AKOSyaUPTAaCkqvbtr/YUXCt/dOSA+wb0cp5zvqRi/v/belVvAobFkhAsdfuifNYCcCszCQAd32v2j0DBnGp/RprVAvB+VnHO9fmnNm1Kf/zxq7m5F9av5zAGhARCeEEoPXx40KJFZr0eAGTBwUc//LD+yBFW1IMIKRYEICQxI+PUF18wfvfXJAIItqbvxKP/7/go4dW/kSX/rvnxoKJLYtLiZ6QdtABgunitavtP7mYpFAqFQqFQ/qq00TEWOXPmzNNPPz1+/Pjp06c7BtPS0tLS0jZs2PD000/72UJep9O1lMiwZMmSxMREccswISHhtddee+655wJdZ7ujGP74Qwklv7x5rD4oOFIKgCRyjVpaa7QQW0NFJQCSG80EguRyFgAIUiplBJmMBgGQ4ei2hdP2xibFByNj+PgFz98eV1bSxsW4SgClpaUajSagNBKfIIREg37WdfzTYTmWAwNGO94iTkJmLEcfvgjVpU2TktLg3jkuB1pPunoRPrlRiQDuu8RV9ZYwtdRosc//9MiXeXpGk/D16fr6f/yy/pnbpByjkOB3J3bwbsFfELJjjNooAeDGcoAICAJoS8h2QmlJVWgYcAr7iOeFtHHsd0vxVU895AJHAFDIPO/zd4qJWDf7ocIK/aubvpdLZRMGNlag3Jx79I3/7rHJgnCQqkW7PgsfEOIe0i9Jdv3C/Rlpngjgs9hDU20L69mzAMAhFNU8XQjZ7QBQdvQoACRmZMgNBjFZqWkNLAsAtvPnseN0PqMPWm4K6A7COHHRTFVal/CxgxDX+A9m3LypxvMlhvxCF7N+2qRQKBQKhUL5PaisrHT4cS355w5PXqfTBWS8XboMAoDZbA4PD6+vr9+wYcPPP/8MAAMHDnz00UcjIiL89P8B4L333pszZ45HFcBisVy4cEEsB7h48WKx6cANp3PvnirGevuiz25vHOg3+b0X+RmvbaqUqSKCcLWuqrCwksQmdkmW5Vw2BHXpEsXj8wUFvPjz0lJffPZUVbexU2+LQfpjuSfauBhXCeDSpUupqakajSY5ObmwsPEHrsViAYCgoCCEECFk+fLlLMs6+kNmZWUxDGO32wEAIRQcHAwAzn+/5ORktVoNAA6DfzG4M/st5VelkfGOERSVBC9thGM/QskFkCkhriv0GOwShWKtLmdP7G0hFaNFblgUgNsWZ89520f0jCgsN1xsUDCaKADAUvXuSw0PrsjdOHeQSuZ2Ye6bpH5fi4CwDbdJAjA3RgGIEgDRGS+22tT7r7/y5ci7//XQ9AalSohIsUz7kD31LfnXemho678vB0+enb5q0+N39h/ZuwvjqZNf94So9XMefGzN5il39DNarAs3bN96tABrIn0EOPkOefCQCNAeIwEkAuC6OkKIOjGxsvldEZSYCACGy5fFa9QkJtZebVZbVR4ZSQjBtbUOU75LEAhgswfgriOW0d43zHkES7iOb88+OW2JtaLG2SyFQqFQKBTKDUR0jP3ZzdXpdGvWrPkDluSRdevWff311717916zZg1CaPPmzc8//3x5ebn/FvLy8sR2Bk8++eT48eOdP3Ku/38z7P+LFP7nlde+F3+lsnHjs2ak5X+/YmNOHWaHLl73Yk/l3gXjV//vqwvDnh358iL+l6KUsQMllUd2/lpKAFBE5zuH9UlM6Tmwf88wXp+z8h+5bu0EAsTVTzt+/PioUaMAYMCAAQ6P/eLFiwCgVquHDRu2d+9eF3nG5NSROyMjQ6VSAUBBQYFjcMCAAQ7jbVzuzUkwS4r+8278nHebjUrl0P8eL0eVbnw7ng3Yn79BEoCnMP6Q5O8LGhATiqUSx6eIUxwsJeOX7fnyxaGh6uYb2oF3BGh2dNtC98WOAIgQDKTBVHS89Gt/z+u2SlYQHt65/c5f9q+a/sSOwcMRxnzaPULkAahsqyCHOMnhKvuhj3ZG/3fvE3f2mzasT4hK4TJHIZdpwrQCoHHZHxXUCzjEj3IgvmsBeCjsd3aca01Qf0ac7fi+VZ1rEJhMZUePRvfuHf/oo7q9ey1lZYhl1d26xU6YQASh7tQpsR1GwoMPFtvtdSdPCna7vEOHsCFDQjp3vpaXB2YzcVym76aAyMq3dcdeEhaU8uasY48sczbbRpsUCoVCoVAobeHw4cPTp0/3p4N9oO0A2xe73V5fX//AAw+EhYUBwKRJk3JycsQd5UD54IMPNBrN8OHD23uN7Ux94eHrYcMSw2AAoab45IVSK4P15ZWGRJOuHvFXv1v2puZv0++5a0J3Q8Hh9f9Y/ZOFABCs7T5+2sSg0tKCH/67/uuv95fUtdkddJUAfvvtN4vFIpVKhw8f/sUXX4hb/bm5uY888khoaOjzzz/fr1+/S5cuuTuiCKGkpKTBgwcDQGVlZW5ubuMJWDYjIwMAzGbzoUOH4K8IAtCcO1C2/aOosY/5eUjFrk1B53KRNMAYgBskARAgxFPTc8SpAMD1I1ZxSo/vyd6z+eWhHUIVeoN128GrH++9SARXZ5W0qn7ac889N3fuXPfxVatWrV69uqWjzAwnYThEiMl09dyV9XbB3yij83KbnhGCeVcBQlurz16z4t7d37/1xKzC+ES/l+8VhJFcjeTqct7+xva8d7YdePexseNv6yHjmu4Tk9UmlUoultcU2BVIxXkx5mzW5xSXWgBxy9UtzfSOtGMAwRrOUQAAcGLdOtkrr4QNGRI2ZIjTJHJs40ZSXg4Axz799JZp0xJmzHA2Ul1QcHztWq2TKZ93lQDQdgkAAILSOjrboUEAFAqFQqFQbgbEPHkvQoD/KQCEEIQQwzCOAHAXGIaBVnkodXV12dnZb731Fsb4zTffrKurC9SCY4WrVq0KDQ1NT0/3Pds/2iPlgS/9eMq9HwOA+89169lVY8euArFkoHB89dyHGj9Alfu/XLz/y+azEZ//9TP3+Lt76R+uLqjJZMrJybnrrruio6NHjx69fft2ADCbzUuXLl28eLFSqRw6dOjQoUO9WDQYDMuWLXNECowZMyY6OhoA3MMH/twg5LzZGCxlS775VxmAPypAxa5Nlq9WRrj4b34UqxSfrvZVAcTkDp8nRkTw/7QISwoMweOy93aNUf54vJxnlVgRgthmLhJCAIS0oi1iTk6OXq93Hz927JiXoyyYMzESi+Hy5cJ1PG/yMtOFOkZ4OkU3vzj4FoOHLP1+p09uenn2Z2PHyywW908DBiHEcYQAsByWyq2ErPzhaJ+UuKxN39/Xv/sdaSm6OsPiL3fPvGvg+7uPIKlrgEALJoH40REABOKsyEiSWukhO3b1Efh1XxFCHM+R2mDYPW9e2C23RHTrJg8L4y0WU03N1QMHmLKycLkcAMq2bfv28OH4gQPVHToAQEN5ue706epjxzooFMSRN9H8wfSIIIBVwK3qUulKkwSAUKuLXVAoFAqFQqG0I17y5AFAp9N52TZzoaioKD4+/ptvvvE+zaVdl5+cPXt23bp1AJCfn9+Kwx3Y7fbs7Ozs7Oy2GHHgTwzFnx0Pu9BffvnliBEjGIZ5+OGH9+/fL7pbp0+fnjNnzuTJk/v06RMSEuJ+FABUV1fn5eVt2rTJUfYvNDR08uTJAGCz2TZv3vy7XcUfjZ0gIw+K5nurMUq2ZNs/Cy6ciH14nnNdAGesumtFG5dLTufGqSUuHzXYwE7Au0sspkO3uwTgs1UGAgFsRsLIvE9rBsMWWYOLLlhQSBIGcdnNJQCbERG+FRLA8ePHW5FRYmY43lxSevEfQiD+v8gVqf1vHSvvrlb8rSwoxO66oy7h+ce2fhWoTY9gBAwCO9OkDV002lbt/G3xw6OX7/j13e9+S44KmzNu2Jni8i1nypCs5fp/zjbtFkA+dsYRj4gZC5J2a20AANjMYF+dFwUAM89Lr99+LEJxSmXDqVOXjh2zCwJGiMU4SCKRymTiPR8mk5krKoo2b7bwPALgMJZzXKxSiZweCpMg+GyTYgdiEgjTlpqQ13FIAHZMbDeoVCeFQqFQKBSKM448+bazcuXKefPmxcfHt+QvEEKuXLny7rvvevzUJ999910bVteEwWDwGCbcvvxl+tx7kABKS0u3bNkyadKk4ODgrKysBQsW2Gw2cXzlypX+m+Y4LjMzU6PRAMCWLVv+Su0A6ngoMfKdVK4eToxKor944OLCXHmvYcG3ZigSu0rCogAhm15nKDhVe/Qnw+EfYxU42M3/B4BrJr6Ox96rA7IsKwhC+0oAgiCwrI98BNZuQA3loI4LyDJCLHAsCMSjA4oMFRxvgrb25vMXg6nIVPSpwBtbdzgB+DbUuD/IPKtUc0+1ArdCuvADhrciSwOoIxwjiOU2nSrNu7r1yTv7TxuSXmMwv7frt11nS7DG354d2FiNeZv371nKyy2VBiGqPXexUTXIeLn3OQZBqDCZYmTNpCUlyyqb35DOSQoSjEOlzcIxXJoZ6Mxmk6/teBMSagS7hm98DJfF3+99vheSpY36ei1YzQwNA6BQKBQKhfKX4vz587NmzbrRq/iDaK+WBzc/nn2/jRs39ujRo2vXrl27dn3hhRdWrFghqgD+w3HcCy+80KVLFwDIz8//7LPP2mGxHhF4aFuteA8GfXHVwv5c1tCpc4j75GApGyQF/bmf9Cf2ltp5K08AgGOQkmWCpExiiMSz78iwP5dWX7Ew3osDKBQKg8GgUqlaysYJFJZl6+vrXbqsuSO36gzXjrGpsXZPFQFaAccg27WjSmsFcH5HFmhiYc4l5wGGCKzAc4QX/y++ZYnAEh4TgSUCJoQhAiYCNFw0XPoQ/M7/b4laRngzVv9tqOml4qBOZv/y8ANBaa6tLy1gw+Kcv2ekDjtvs76weT/hbQgxSKHGoR28GHGGYzBfVqg21YDSmzceatNeOV8piWTspH0CAVjMWc9BtNWHTqHj+ZOVlTHx8aSd7mfEMCcrKyt43vtdVSOxnrdUprFxhBcAIIaN8DrdGxYeAACzzDnLNb3EpgDPPR0pFAqFQqFQKJSbBM8ep81mW7JkyerVq7Va7ZAhQ7Ra7RtvvFFTU+NxsjtBQUGLFi3q0aMHAOh0uuzs7NYVePQH3f6vtYPuazcVQOB1uVt8zsJS2X8u1AxOCEuWepAMEECIjA1x74rXEgx70YT+c7GGkQZ7n6jRaIqLi0NCQgghbVcBWJZlWbahoSE2Ntb7TLmU1RfsVsWlm2UxbVcBOAZJG66aCvfKA6qGiFkITnQe4IEQQkDggfDi/5HAI8IjQQAiCIRHRBAIQXXnhSsftd3/d3BSYXmsU8UDlaoZ5RpFewSTO5BLWP3pn1WdbjEqw5upACyHZMpArXEYyep1dacPyKU+1IpgVciV4xKuCwhhhrarACzm2HKZ7TgKbiFjqGmmTPZjcXGv6OhIlm27CoAY5prN9mNxMSv3EX0gUchyqwoSwuMUZkawt3XrHrOMgRP26y9y4dT/p1AoFAqFQqHc7KC0tLSWPktISHj99dfFShJ6vX7Tpk07duzw7nmyLDtmzJjJkyeL8f86nS4rK+tq8z7e/hAdHV1aWurPTJvN1r76AsuyHOd7g9doMPSSGN8ekZqsYsFmAYEPuLoYQoAZ4KQX6+3zd58/aVPIfe3GE0Jqa2tramri4uIQQmazmef5QPMCxKqeMpmMEFJUVBQSEhIUFOQzs8VgMOpQlHbYHFDFmm2CPfB0BISAxUjGYWgo0u19TwvlSqW36z0x3q+Ef0QIQwQxFoAlPCsILOEZIoj/SerOSo4sBLshsLX6R6SNmXsteFithy3nbwdnZM55CQAknzyBrxz236bBaNSpYsLueUoIiTLbeHsARRgbQSB+zwyuKave9r7WeE3hySXu2LGj4zUhpLqm+pT5aPhkBUTYzbzJLtgD7deAALGYlTFyKGervjB1l6WHhoQ631fOjUIdGA2GeEF4tm/fKJlMsFqJILTiOUIYY4nkmtn8z8OHizH25zkyGgwJdcH3aAeqiMRusgl8a86LGczKuQZk2ar7uUhTq1Aq/zIZYhQKhUKhUCiUPyNiJX53nJ1rbxIAAAQHB2dmZnbr1s1x5J49e3799Vf3X/MpKSn9+/cfPny446z5+fnZ2dkei7f7s3Q/JYAbhehFRAsNkzqFjEiJTAxVKdjA8tqNduFydcOuC+X/vVhdjtV++g+CIIgqgEKhCA0NlcvlYisO/+F53mQyVVdXG41G0f/H2PfKCSEGg1FnkUqShgR3vF0aGoNZH3utriu3myzVJfqL+62Xc7VSi1Kp8H69fkoA4uoQIWxTIoDAEJ4hgkx/RnP4RWRvCGidgXJ7nez5a8EdrM3+CqIEgKqLJO/fj+wBNAsghBiMxkqs4tKGqbv2lYZHY0kgVRgBBKvZUllaf/qg7cS+cGJQKjx/z84SAADwPF9VXXWuJp9JE1TpMnkUx0gDu595i2AqszUcMwsnmM4h3cJCw1zuTI8SgPgcqS2WYTEx/WJjO2g0Mj8EOGfMNtu1urpfi4r2lZQ0yGT+P0dGg0FTJ+0nSU1SxQTJVCwOrEOnXbDXmhsKG4oPWc/VaawKpdKf54hCoVAoFAqFQvn9aAcJAAA4jpsyZcqECROci8bV19dXVVWJLSW1Wm1YWJha3dRI3G63f/XVV5999lmr9+dvfgkAAAghNpvN3NAQAhYMfGAOBIAdgAdGD1KZSsVxnP/7h4IgWCyW+vp6g8HQuigAlmUVCoVarZZKpf77LYQQq9Va32Ay8JyNJ8SPbvPNzksEjkFKxqpWKSQSic/rPT16r10aGsAJCMFAGFECEASF/lTEwefw7+z/i8gE9GiFerJOJSGNF7W+e8T7/VNx/k5kClgCE++reqO5Act4QK34nhkgKt6kVsq93FcuEgAA8DxvNptLK67pzBVmu1kggUXmY8TIWJlWFhEd0UEmk7krUx4lAHB6jmR2OyIEB3g/CwgRhEwsKw/8ObJarVaTRW7iWAFjPrANfIEhPCMYZTaJXCqRSKj/T6FQKBQKhUK54bSPBOCwNXHixIyMDJnM256k2Wzeu3fv5s2b21j//08hAYgIgiBWLG+FKw4AGONWOA9iLYBWdwcQcwEwxq2IW/7Drreuw/DiXlmBqQAAQAgiQlDFgdi8V7CtPrBj20aimZ1dGpRmlB5RWpbE1TS0rT787/09u0sA4HRfCa3qcS+elGEYj/dVSxKAyP+154hCoVAoFAqFQml32lMCEJHJZH379u3Vq1fHjh0jIyNVKhUANDQ0lJeXX7x48cSJE4cOHTKb26Hu2p9IAqBQ/ox4lAB+V7xLABQKhUKhUCgUCqWN+CMBBBa9bjabc3Nzc3Nz27QuCoVCoVAoFAqFQqFQKO2KP/voNH+VQqFQKBQKhUKhUCiU/xMEWsPuxlN41//+4DMm7xp/A89Lofwe/JCy4g8+Y3LBjXyO6PNLoVAoFAqFQqHATRsFQAsBUCgUCoVCoVAoFAqF0r78f6aAEpq4nrNwAAAAAElFTkSuQmCC;clipPath=inset(27.51% 48.67% 15.68% 5%);" vertex="1" parent="1">
          <mxGeometry x="600" y="5" width="1151.09" height="795" as="geometry" />
        </mxCell>
        <mxCell id="lhs4AXZ87nFdSQfo4i2J-16" style="edgeStyle=orthogonalEdgeStyle;rounded=0;orthogonalLoop=1;jettySize=auto;html=1;exitX=1;exitY=0.5;exitDx=0;exitDy=0;entryX=0;entryY=0.5;entryDx=0;entryDy=0;" edge="1" parent="1" source="lhs4AXZ87nFdSQfo4i2J-2" target="lhs4AXZ87nFdSQfo4i2J-3">
          <mxGeometry relative="1" as="geometry" />
        </mxCell>
        <mxCell id="lhs4AXZ87nFdSQfo4i2J-17" style="edgeStyle=orthogonalEdgeStyle;rounded=0;orthogonalLoop=1;jettySize=auto;html=1;exitX=1;exitY=0.5;exitDx=0;exitDy=0;entryX=0;entryY=0.5;entryDx=0;entryDy=0;strokeWidth=2;" edge="1" parent="1" source="lhs4AXZ87nFdSQfo4i2J-2" target="lhs4AXZ87nFdSQfo4i2J-13">
          <mxGeometry relative="1" as="geometry" />
        </mxCell>
        <mxCell id="lhs4AXZ87nFdSQfo4i2J-18" style="edgeStyle=orthogonalEdgeStyle;rounded=0;orthogonalLoop=1;jettySize=auto;html=1;exitX=1;exitY=0.5;exitDx=0;exitDy=0;entryX=0;entryY=0.5;entryDx=0;entryDy=0;strokeWidth=2;" edge="1" parent="1" source="lhs4AXZ87nFdSQfo4i2J-3" target="lhs4AXZ87nFdSQfo4i2J-11">
          <mxGeometry relative="1" as="geometry" />
        </mxCell>
        <mxCell id="lhs4AXZ87nFdSQfo4i2J-2" value="&lt;font style=&quot;font-size: 36px;&quot;&gt;1&lt;/font&gt;" style="ellipse;whiteSpace=wrap;html=1;aspect=fixed;" vertex="1" parent="1">
          <mxGeometry x="899" y="1160" width="80" height="80" as="geometry" />
        </mxCell>
        <mxCell id="lhs4AXZ87nFdSQfo4i2J-20" style="edgeStyle=orthogonalEdgeStyle;rounded=0;orthogonalLoop=1;jettySize=auto;html=1;exitX=1;exitY=0.5;exitDx=0;exitDy=0;entryX=0;entryY=0.5;entryDx=0;entryDy=0;strokeWidth=2;" edge="1" parent="1" source="lhs4AXZ87nFdSQfo4i2J-3" target="lhs4AXZ87nFdSQfo4i2J-19">
          <mxGeometry relative="1" as="geometry" />
        </mxCell>
        <mxCell id="lhs4AXZ87nFdSQfo4i2J-3" value="&lt;font style=&quot;font-size: 36px;&quot;&gt;6&lt;/font&gt;" style="ellipse;whiteSpace=wrap;html=1;aspect=fixed;" vertex="1" parent="1">
          <mxGeometry x="1069" y="1160" width="80" height="80" as="geometry" />
        </mxCell>
        <mxCell id="lhs4AXZ87nFdSQfo4i2J-28" style="edgeStyle=orthogonalEdgeStyle;rounded=0;orthogonalLoop=1;jettySize=auto;html=1;exitX=1;exitY=0.5;exitDx=0;exitDy=0;entryX=0;entryY=0.5;entryDx=0;entryDy=0;strokeWidth=2;" edge="1" parent="1" source="lhs4AXZ87nFdSQfo4i2J-4" target="lhs4AXZ87nFdSQfo4i2J-26">
          <mxGeometry relative="1" as="geometry" />
        </mxCell>
        <mxCell id="lhs4AXZ87nFdSQfo4i2J-4" value="&lt;font style=&quot;font-size: 36px;&quot;&gt;2&lt;/font&gt;" style="ellipse;whiteSpace=wrap;html=1;aspect=fixed;" vertex="1" parent="1">
          <mxGeometry x="1159" y="1310" width="80" height="80" as="geometry" />
        </mxCell>
        <mxCell id="lhs4AXZ87nFdSQfo4i2J-9" style="edgeStyle=orthogonalEdgeStyle;rounded=0;orthogonalLoop=1;jettySize=auto;html=1;exitX=1;exitY=0.5;exitDx=0;exitDy=0;entryX=0;entryY=0.5;entryDx=0;entryDy=0;strokeWidth=2;" edge="1" parent="1" source="lhs4AXZ87nFdSQfo4i2J-8" target="lhs4AXZ87nFdSQfo4i2J-2">
          <mxGeometry relative="1" as="geometry" />
        </mxCell>
        <mxCell id="lhs4AXZ87nFdSQfo4i2J-10" style="edgeStyle=orthogonalEdgeStyle;rounded=0;orthogonalLoop=1;jettySize=auto;html=1;exitX=1;exitY=0.5;exitDx=0;exitDy=0;entryX=0;entryY=0.5;entryDx=0;entryDy=0;strokeWidth=2;" edge="1" parent="1" source="lhs4AXZ87nFdSQfo4i2J-8" target="lhs4AXZ87nFdSQfo4i2J-4">
          <mxGeometry relative="1" as="geometry">
            <Array as="points">
              <mxPoint x="749" y="1350" />
              <mxPoint x="749" y="1350" />
            </Array>
          </mxGeometry>
        </mxCell>
        <mxCell id="lhs4AXZ87nFdSQfo4i2J-15" style="edgeStyle=orthogonalEdgeStyle;rounded=0;orthogonalLoop=1;jettySize=auto;html=1;exitX=1;exitY=0.5;exitDx=0;exitDy=0;entryX=0;entryY=0.5;entryDx=0;entryDy=0;strokeWidth=2;" edge="1" parent="1" source="lhs4AXZ87nFdSQfo4i2J-8" target="lhs4AXZ87nFdSQfo4i2J-14">
          <mxGeometry relative="1" as="geometry">
            <Array as="points">
              <mxPoint x="799" y="1350" />
              <mxPoint x="799" y="1500" />
            </Array>
          </mxGeometry>
        </mxCell>
        <mxCell id="lhs4AXZ87nFdSQfo4i2J-8" value="&lt;font style=&quot;font-size: 36px;&quot;&gt;Début&lt;/font&gt;" style="ellipse;whiteSpace=wrap;html=1;" vertex="1" parent="1">
          <mxGeometry x="529" y="1310" width="170" height="80" as="geometry" />
        </mxCell>
        <mxCell id="lhs4AXZ87nFdSQfo4i2J-24" style="edgeStyle=orthogonalEdgeStyle;rounded=0;orthogonalLoop=1;jettySize=auto;html=1;exitX=1;exitY=0.5;exitDx=0;exitDy=0;entryX=0;entryY=0.5;entryDx=0;entryDy=0;strokeWidth=2;" edge="1" parent="1" source="lhs4AXZ87nFdSQfo4i2J-11" target="lhs4AXZ87nFdSQfo4i2J-21">
          <mxGeometry relative="1" as="geometry" />
        </mxCell>
        <mxCell id="lhs4AXZ87nFdSQfo4i2J-11" value="&lt;font style=&quot;font-size: 36px;&quot;&gt;4&lt;/font&gt;" style="ellipse;whiteSpace=wrap;html=1;aspect=fixed;" vertex="1" parent="1">
          <mxGeometry x="1239" y="1020" width="80" height="80" as="geometry" />
        </mxCell>
        <mxCell id="lhs4AXZ87nFdSQfo4i2J-22" style="edgeStyle=orthogonalEdgeStyle;rounded=0;orthogonalLoop=1;jettySize=auto;html=1;exitX=1;exitY=0.5;exitDx=0;exitDy=0;entryX=0;entryY=0.5;entryDx=0;entryDy=0;strokeWidth=2;" edge="1" parent="1" source="lhs4AXZ87nFdSQfo4i2J-13" target="lhs4AXZ87nFdSQfo4i2J-21">
          <mxGeometry relative="1" as="geometry" />
        </mxCell>
        <mxCell id="lhs4AXZ87nFdSQfo4i2J-13" value="&lt;font style=&quot;font-size: 36px;&quot;&gt;3&lt;/font&gt;" style="ellipse;whiteSpace=wrap;html=1;aspect=fixed;" vertex="1" parent="1">
          <mxGeometry x="1239" y="1160" width="80" height="80" as="geometry" />
        </mxCell>
        <mxCell id="lhs4AXZ87nFdSQfo4i2J-29" style="edgeStyle=orthogonalEdgeStyle;rounded=0;orthogonalLoop=1;jettySize=auto;html=1;exitX=1;exitY=0.5;exitDx=0;exitDy=0;entryX=0;entryY=0.5;entryDx=0;entryDy=0;strokeWidth=2;" edge="1" parent="1" source="lhs4AXZ87nFdSQfo4i2J-14" target="lhs4AXZ87nFdSQfo4i2J-26">
          <mxGeometry relative="1" as="geometry">
            <Array as="points">
              <mxPoint x="1559" y="1500" />
              <mxPoint x="1559" y="1350" />
            </Array>
          </mxGeometry>
        </mxCell>
        <mxCell id="lhs4AXZ87nFdSQfo4i2J-14" value="&lt;font style=&quot;font-size: 36px;&quot;&gt;8&lt;/font&gt;" style="ellipse;whiteSpace=wrap;html=1;aspect=fixed;" vertex="1" parent="1">
          <mxGeometry x="1159" y="1460" width="80" height="80" as="geometry" />
        </mxCell>
        <mxCell id="lhs4AXZ87nFdSQfo4i2J-25" style="edgeStyle=orthogonalEdgeStyle;rounded=0;orthogonalLoop=1;jettySize=auto;html=1;exitX=1;exitY=0.5;exitDx=0;exitDy=0;entryX=0;entryY=0.5;entryDx=0;entryDy=0;strokeWidth=2;" edge="1" parent="1" source="lhs4AXZ87nFdSQfo4i2J-19" target="lhs4AXZ87nFdSQfo4i2J-21">
          <mxGeometry relative="1" as="geometry" />
        </mxCell>
        <mxCell id="lhs4AXZ87nFdSQfo4i2J-19" value="&lt;font style=&quot;font-size: 36px;&quot;&gt;7&lt;/font&gt;" style="ellipse;whiteSpace=wrap;html=1;aspect=fixed;" vertex="1" parent="1">
          <mxGeometry x="1239" y="880" width="80" height="80" as="geometry" />
        </mxCell>
        <mxCell id="lhs4AXZ87nFdSQfo4i2J-27" style="edgeStyle=orthogonalEdgeStyle;rounded=0;orthogonalLoop=1;jettySize=auto;html=1;exitX=1;exitY=0.5;exitDx=0;exitDy=0;entryX=0;entryY=0.5;entryDx=0;entryDy=0;strokeWidth=2;" edge="1" parent="1" source="lhs4AXZ87nFdSQfo4i2J-21" target="lhs4AXZ87nFdSQfo4i2J-26">
          <mxGeometry relative="1" as="geometry">
            <Array as="points">
              <mxPoint x="1559" y="1200" />
              <mxPoint x="1559" y="1350" />
            </Array>
          </mxGeometry>
        </mxCell>
        <mxCell id="lhs4AXZ87nFdSQfo4i2J-21" value="&lt;font style=&quot;font-size: 36px;&quot;&gt;5&lt;/font&gt;" style="ellipse;whiteSpace=wrap;html=1;aspect=fixed;" vertex="1" parent="1">
          <mxGeometry x="1409" y="1160" width="80" height="80" as="geometry" />
        </mxCell>
        <mxCell id="lhs4AXZ87nFdSQfo4i2J-26" value="&lt;font style=&quot;font-size: 36px;&quot;&gt;Fin&lt;/font&gt;" style="ellipse;whiteSpace=wrap;html=1;" vertex="1" parent="1">
          <mxGeometry x="1639" y="1310" width="170" height="80" as="geometry" />
        </mxCell>
      </root>
    </mxGraphModel>
  </diagram>
</mxfile>
